<svg width="42" height="42" viewBox="0 0 42 42" fill="none" xmlns="http://www.w3.org/2000/svg">
  <g clip-path="url(#clip0_6717_37756)">
    <path d="M37.8861 31.244C37.3308 31.5409 36.7553 31.7985 36.164 32.0148C34.2811 32.7203 32.2867 33.0814 30.2761 33.0809C22.5184 33.0809 15.7613 27.7506 15.7613 20.895C15.7693 19.9766 16.023 19.077 16.4959 18.2897C16.9689 17.5024 17.6439 16.856 18.451 16.4176C11.4314 16.7128 9.62733 24.0276 9.62733 28.3082C9.62733 40.4285 20.7963 41.6586 23.2073 41.6586C24.5029 41.6586 26.4547 41.2813 27.6355 40.9041L27.8487 40.8385C32.3698 39.2803 36.2233 36.2252 38.7717 32.1788C38.8644 32.0329 38.8957 31.8563 38.8589 31.6873C38.822 31.5184 38.72 31.3709 38.5749 31.2768C38.4731 31.2114 38.3558 31.174 38.2349 31.1682C38.114 31.1625 37.9937 31.1886 37.8861 31.244Z" fill="#0F5197"/>
    <path d="M17.3358 39.5921C15.8766 38.6844 14.6114 37.4971 13.6127 36.0987C12.4737 34.5392 11.6897 32.7493 11.3157 30.8547C10.9418 28.9601 10.9869 27.0066 11.4479 25.1312C11.9089 23.2559 12.7747 21.5041 13.9845 19.9989C15.1943 18.4936 16.7188 17.2712 18.451 16.4176C19.232 15.9944 20.1049 15.7691 20.9932 15.7615C21.8121 15.7702 22.6181 15.967 23.349 16.3367C24.0798 16.7064 24.7159 17.2391 25.2082 17.8937C25.8708 18.7807 26.238 19.8536 26.2578 20.9606C26.2578 20.9278 30.2761 7.90551 13.1371 7.90551C5.93713 7.90551 0.0164009 14.7447 0.0164009 20.731C-0.01103 23.9018 0.666827 27.039 2.00091 29.9155C4.18672 34.5731 8.00594 38.2664 12.7341 40.2949C17.4623 42.3234 22.7705 42.546 27.6519 40.9205C25.9385 41.4574 24.1291 41.6167 22.3482 41.3874C20.5673 41.158 18.8573 40.5455 17.3358 39.5921Z" fill="#0C88DA"/>
    <path d="M24.9786 24.4212C24.8474 24.5852 24.4373 24.8312 24.4373 25.3561C24.4373 25.7825 24.7162 26.1925 25.2082 26.5369C27.5699 28.177 32.0146 27.9638 32.031 27.9638C33.7792 27.9615 35.495 27.4915 37.0004 26.6025C38.5167 25.7176 39.7747 24.451 40.6495 22.9289C41.5242 21.4067 41.9851 19.6821 41.9863 17.9265C42.0355 14.2527 40.6742 11.8089 40.133 10.7265C39.247 8.99533 38.0873 7.4186 36.6987 6.05713C34.997 4.39644 33.0161 3.04846 30.8468 2.07499C27.7469 0.691268 24.3878 -0.0160087 20.9932 0.000274911C15.4762 -0.000270615 10.1808 2.17093 6.25216 6.04429C2.32356 9.91765 0.0775822 15.1818 0 20.6982C0.0820045 14.7119 6.03553 9.87362 13.1207 9.87362C13.6948 9.87362 16.9749 9.92282 20.0091 11.5301C22.6824 12.9406 24.0929 14.6299 25.0606 16.3192C26.0774 18.0741 26.2578 20.2718 26.2578 21.1574C26.2578 22.0431 25.815 23.3388 24.9786 24.4212Z" fill="#2CC3D5"/>
    <path d="M26.6416 0.62023C26.6416 0.62023 41.9256 16.4176 24.6506 24.9526C24.6506 24.9526 23.5337 26.8076 28.8689 27.767C28.8689 27.767 37.7073 29.6876 41.2745 21.9217C41.9929 19.4862 42.6325 15.7123 40.7333 11.5121C39.9387 9.798 38.8726 8.22347 37.5761 6.84929C36.2127 5.35103 34.6524 4.04455 32.9379 2.96556C30.1301 1.53048 26.6416 0.62023 26.6416 0.62023Z" fill="#49D668"/>
  </g>
  <defs>
    <clipPath id="clip0_6717_37756">
      <rect width="42" height="42" fill="white"/>
    </clipPath>
  </defs>
</svg>