<svg width="42" height="42" viewBox="0 0 42 42" fill="none" xmlns="http://www.w3.org/2000/svg">
  <g clip-path="url(#clip0_6717_37758)">
    <path d="M0.952987 20.8533C0.952987 32.2398 9.97173 41.4683 21.0905 41.4683C32.2045 41.4683 41.2233 32.2398 41.2233 20.8533C41.2233 9.4668 32.2045 0.238281 21.0905 0.238281C9.97173 0.238281 0.952987 9.4668 0.952987 20.8533Z" fill="#1370B3"/>
    <path d="M0.952987 22.5172C0.952987 32.9902 9.97174 41.4776 21.0858 41.4776C32.1999 41.4776 41.2186 32.9902 41.2186 22.5172C41.2186 12.0443 32.1999 3.55682 21.0858 3.55682C9.97174 3.55682 0.952987 12.0443 0.952987 22.5172Z" fill="#1678BC"/>
    <path d="M30.9202 5.07626L27.6858 3.90172L31.7733 7.49991L30.2452 7.40669L29.9311 8.04989C29.1436 7.42068 28.1545 7.09442 27.142 7.13636C26.6545 7.26221 26.2655 7.62575 26.1108 8.10582L26.3545 9.14986L29.4811 9.40621C29.7249 9.76509 30.2217 9.75111 30.2217 10.4875L31.3936 10.4363L32.2045 10.1659C33.1749 11.4244 33.8499 12.8832 34.1827 14.4353L33.2639 15.0878L33.0155 15.8941L32.9967 18.7279C32.9967 18.7279 32.4108 19.3245 32.317 19.1428C32.2233 18.961 32.3452 16.8216 32.003 16.6072C31.6936 16.3975 31.2952 16.3789 30.967 16.5653C30.6155 15.8475 30.1467 15.3348 29.528 15.0925C29.3545 14.6916 29.1436 14.3048 28.8999 13.9412C28.6842 13.9785 28.4967 14.1137 28.403 14.3094C28.5061 13.9552 28.4733 13.5777 28.3139 13.2468L26.8702 12.9718L25.8624 12.9065C25.4874 13.0137 25.2342 13.2934 25.1639 13.8014L24.6014 14.2861L24.2592 15.5026C24.1749 15.8242 25.3092 16.3369 25.7686 16.2157C26.228 16.0945 27.0999 17.3903 27.0999 17.3903L26.8702 18.3085C26.8702 18.3085 26.5139 18.9563 26.4249 18.8212L25.567 17.4928C24.967 17.1386 24.3483 17.1992 23.7249 17.4928C23.5795 18.7699 23.542 20.308 23.7249 20.9465C23.9077 21.585 24.1702 21.8647 24.442 21.7808C24.7092 21.6969 25.792 20.8626 25.792 20.8626C25.792 20.8626 26.7858 23.5333 26.7858 23.6778C26.7858 23.8223 28.267 24.9176 28.3561 24.9176C28.4452 24.9176 28.7592 25.0574 28.8061 24.7358C28.853 24.4095 28.628 23.8176 28.7592 23.7244C28.8952 23.6312 29.0733 23.8176 29.1202 24.279C29.1858 24.9362 29.242 26.2832 29.1624 26.5722C28.9795 27.2666 28.0842 28.2408 28.0842 28.2408C28.0842 28.2408 27.817 29.2522 27.953 29.3034C28.0889 29.3547 28.5389 30.6877 28.7217 31.0513C28.9045 31.4148 31.9139 40.7599 37.8952 32.9622C41.5514 28.1988 42.3577 21.6363 40.3233 16.2204C39.0295 12.7714 35.9311 10.9536 33.7983 6.59104L30.9202 5.07626Z" fill="#10549A"/>
    <path d="M5.24205 4.26993C5.27017 5.70548 5.88424 7.12238 7.3983 8.51132C9.11861 8.04057 10.7545 7.99396 12.2827 8.3948C14.0358 6.50715 15.892 5.822 17.842 5.9292C16.478 6.99654 15.4889 8.46005 15.0061 10.1193C15.2077 10.8231 15.7233 11.4011 16.403 11.6854C17.7624 11.8951 19.2764 11.7506 20.767 12.1468L20.678 13.298C19.7592 15.0225 17.828 15.5585 16.2717 16.9615C16.478 17.8657 16.4452 18.8072 16.1827 19.6974C15.6061 19.222 15.0155 18.9936 14.3874 19.0542L14.2749 19.1241C12.3624 21.0351 13.9749 22.6571 17.003 24.1718C17.7999 24.321 18.6249 24.2557 19.3889 23.9854C20.9827 23.0905 24.9389 22.163 25.6795 25.3184C25.3139 25.7798 24.7608 25.8451 24.1514 25.7798C23.9405 25.9523 23.5467 26.0315 23.3405 26.1946C21.0014 28.073 18.5874 28.7907 15.7561 28.3386C16.2999 29.0098 16.9655 29.5784 17.7108 30.0212C19.2858 30.1377 20.1764 30.3521 20.2795 30.6924H18.8311C21.4749 31.8669 24.0764 32.0394 26.5655 30.7576C26.5842 30.9953 26.4295 31.3216 26.2045 31.6805C27.0436 30.9674 27.7983 30.0632 28.6795 29.42L28.8155 30.2962C30.2545 29.9746 31.4405 27.6628 32.3264 23.0625L32.9077 24.7171C33.4795 22.2143 33.4655 19.222 33.203 15.9873C34.0233 16.8216 34.6327 17.8424 34.9795 18.961C35.0967 14.3747 33.7889 10.1426 30.5733 7.67236C31.2811 7.52788 32.3592 7.966 34.4452 9.56001C33.2874 7.2389 31.2717 5.08558 28.4592 3.06277C32.303 4.20468 35.7624 6.53511 38.4436 11.0328C38.4717 10.0867 36.2545 6.96391 34.1874 5.19278L34.3045 4.58687L36.742 6.80078L36.8733 6.29741C40.0608 10.0867 40.7264 13.3586 40.778 16.514C40.6983 18.7466 40.3889 20.8533 39.6342 22.7316C41.003 21.7808 41.617 20.7834 40.9749 17.5953L41.4624 15.6005C42.1608 18.7279 42.203 22.1257 40.5483 26.176C39.7514 28.3899 37.7967 30.5805 36.4186 32.7851L38.1811 31.536L40.0795 27.7188C40.2952 29.0378 40.0842 30.3941 39.4795 31.5873C38.1108 33.7266 36.2217 35.4791 33.9811 36.6909C33.9624 37.2642 33.6295 37.8794 32.8233 38.5413C30.0952 40.6387 26.392 41.5149 21.7561 41.2539L22.4311 41.8971C20.5749 41.9251 18.7327 41.6314 16.9795 41.0302L18.0436 41.7386C7.64674 39.1705 1.07486 32.375 0.962362 23.1325L0.0014245 24.8849C-0.0360755 22.9087 0.676425 21.2029 1.00455 19.3665L1.16392 17.8424L0.474862 19.511C0.798299 17.1852 1.29049 14.7942 3.0858 11.9277C2.83736 9.19647 3.60142 6.47452 5.24205 4.26993Z" fill="#E36724"/>
    <path d="M15.0014 10.1193C14.3545 12.8319 14.5702 15.195 16.2577 16.9615C16.5905 16.6632 16.942 16.3835 17.3077 16.1272C18.2733 15.5399 19.4405 15.0831 20.6639 13.3074L20.753 12.1561C20.0686 11.9044 18.278 11.7972 16.3889 11.6947C15.6202 11.3591 15.1467 10.8371 14.992 10.1286L15.0014 10.1193ZM14.2608 19.1288C10.3749 18.9517 9.20767 21.4965 9.77955 25.7845C9.86861 23.4913 13.4311 20.7088 13.4358 20.6529C13.5014 20.0563 13.7967 19.511 14.2608 19.1288ZM24.5264 25.8031C23.6967 25.3743 22.5014 25.3557 20.7999 25.9197C17.0264 26.8612 13.9092 26.3345 11.3124 24.6799C11.7436 26.0921 12.9014 27.3366 15.5405 28.2268C16.9327 28.5251 18.3811 28.4925 19.7592 28.1289C20.5749 27.8912 21.3436 27.5183 22.0327 27.0196C22.8717 26.3251 23.6967 25.8078 24.5264 25.8031ZM7.3983 8.49268L3.39986 11.6201C3.99049 10.0914 4.80611 8.6092 6.36236 7.37407L7.3983 8.49268Z" fill="#D5562C"/>
    <path d="M15.0295 14.934C14.9686 14.7522 16.0045 14.3374 16.1077 14.3374C16.2108 14.3327 17.6264 14.0811 17.7858 14.1556L18.2827 14.384C19.267 14.0065 19.7639 13.6662 20.1952 13.1675L20.167 14.109C19.8155 14.645 17.7436 15.9174 16.7311 16.5187C16.6889 16.5373 16.6561 16.6072 16.6186 16.6352C16.4827 16.7284 16.3655 16.8403 16.2577 16.9615C16.2061 16.9988 15.2686 15.6424 15.0295 14.9293V14.934Z" fill="#F0B991"/>
    <path d="M19.192 11.8205L19.9842 12.1701L20.1952 13.1629L20.167 14.1044L20.6874 13.2561C20.7905 12.9158 20.7999 12.557 20.7061 12.212C20.5561 12.0582 20.3592 11.9604 20.1436 11.9371L19.192 11.8205Z" fill="#7E3430"/>
    <path d="M9.27799 8.15709C10.2858 8.06854 11.2983 8.14777 12.278 8.3948C13.9561 6.53045 15.8311 5.85929 17.8374 5.9292C16.5061 6.97789 15.5264 8.40412 15.0342 10.0168C14.5092 11.7087 14.617 13.326 15.0342 14.8967C15.3014 15.6611 15.7186 16.3649 16.2624 16.9661C16.4592 17.8703 16.4264 18.8118 16.1733 19.7021C15.5639 19.1847 14.9405 18.9703 14.317 19.0915C10.4264 18.8678 9.18424 21.3846 9.78892 25.7845C8.23267 21.7435 9.5358 18.7326 13.6139 16.8449C12.1467 14.6217 12.7186 11.4244 13.342 9.37824C12.4467 8.72572 10.9561 8.38081 9.27799 8.15709ZM25.6608 25.3231C25.103 23.2397 23.317 22.699 20.4717 23.51C19.117 24.265 17.2514 24.4934 16.3561 23.8269C16.342 23.8129 16.3233 23.8036 16.3092 23.7943C15.442 23.3422 14.7061 22.8808 14.1389 22.2189C14.0684 22.1488 13.9932 22.0834 13.9139 22.0232L13.642 22.7223C13.5999 24.3443 16.0749 25.7332 19.253 25.1646C22.0842 24.6612 24.1514 24.8197 25.6608 25.3231Z" fill="#FF9D00"/>
    <path d="M31.0749 27.6209C31.6467 26.1527 32.0592 24.6286 32.317 23.0719L32.8983 24.7265C33.4233 21.8461 33.5217 18.9051 33.1936 15.9967C34.0092 16.8356 34.6186 17.8564 34.9702 18.9703C34.942 13.3074 33.292 9.73247 30.5639 7.68635C31.478 7.6444 32.7061 8.14777 34.4311 9.574C33.0202 6.84739 30.8499 4.83856 28.4452 3.07675C31.6092 3.91104 34.9186 5.50506 38.4295 11.0468L37.0983 7.52321L34.2858 4.60085L36.6811 6.76349L36.8639 6.29741C41.842 12.3752 41.1999 17.6187 39.6249 22.7316L31.0749 27.6209Z" fill="#F5B044"/>
    <path d="M35.842 23.8129C37.8811 20.6855 38.4436 16.8077 37.5999 12.2167C40.7452 18.1034 40.7452 24.8104 36.3436 32.6686L33.3717 34.5096L35.842 23.8129Z" fill="#FF9D00"/>
    <path d="M29.2889 30.0725C30.817 28.9399 31.7217 26.5256 32.303 23.0952C33.142 24.3722 33.3811 26.2832 33.0249 28.8094C34.342 27.1594 34.6702 23.9155 34.9608 20.6109C37.1311 26.9078 35.7999 32.4169 32.1436 35.6562C32.3545 35.4884 30.217 34.985 30.9295 34.0902C32.5092 32.1093 32.978 27.9751 32.5655 27.9005C31.028 29.9187 30.067 30.2729 29.2889 30.0725Z" fill="#FF9D00"/>
    <path d="M25.0561 34.0762C28.928 33.0881 31.2014 31.1119 32.4389 28.5018C32.3639 32.1093 31.042 34.8545 27.8077 36.2901C25.8389 35.7587 25.0749 34.9897 25.0561 34.0762Z" fill="#FF9D00"/>
    <path d="M31.5952 37.418L30.5967 38.4108L31.6749 38.4294C30.3577 39.1705 28.9467 39.3896 27.5358 39.4921C28.5389 38.6578 29.9077 37.9773 31.5858 37.418H31.5952Z" fill="#10549A"/>
  </g>
  <defs>
    <clipPath id="clip0_6717_37758">
      <rect width="42" height="42" fill="white"/>
    </clipPath>
  </defs>
</svg>