<svg width="42" height="42" viewBox="0 0 42 42" fill="none" xmlns="http://www.w3.org/2000/svg">
<g clip-path="url(#clip0_6717_37760)">
<path d="M3.2619 9.85879C6.96833 4.08154 13.4721 0.25 20.8762 0.25C28.9531 0.25 35.9587 4.80952 39.4302 11.4805H20.8762C16.5801 11.4805 12.9447 14.2918 11.7302 18.1647L3.2619 9.85879Z" fill="#DD5044"/>
<path d="M20.0036 41.7361L20.027 41.6878L19.9991 41.7359L19.9725 41.7348L22.974 30.2944C27.2551 29.3436 30.4547 25.5442 30.4547 21.002C30.4547 15.75 26.1771 11.4912 20.8962 11.4805H39.4302C40.9142 14.3322 41.7524 17.5698 41.7524 21.002C41.7524 32.4629 32.4058 41.7539 20.8762 41.7539C20.5839 41.7539 20.293 41.7479 20.0036 41.7361Z" fill="#FFCD41"/>
<path d="M19.8635 41.7299C8.80416 41.2048 0 32.1254 0 21.002C0 17.5789 0.833771 14.3493 2.31048 11.5031L3.14749 10.0392C3.18532 9.97881 3.22343 9.9187 3.2619 9.85879L11.7302 18.1647C11.4491 19.0609 11.2977 20.0139 11.2977 21.002C11.2977 26.2605 15.5861 30.5234 20.8762 30.5234C21.5968 30.5234 22.2988 30.4443 22.974 30.2944L20.0859 41.3029L19.9629 41.6562L19.8635 41.7299Z" fill="#17A05D"/>
<path d="M19.9996 41.7351L19.9728 41.734L22.9728 30.2991C25.614 29.7188 27.8455 28.0546 29.1714 25.8L29.2339 25.8359L19.9996 41.7351ZM3.28022 9.86133L3.28184 9.85879L11.7501 18.1647C11.4691 19.0609 11.3177 20.0139 11.3177 21.002C11.3177 22.7517 11.7925 24.3911 12.6209 25.8L12.5584 25.8359L3.28022 9.86133ZM39.4501 11.4805L39.4518 11.4837L28.0006 14.6156C26.2479 12.6901 23.7142 11.4805 20.8962 11.4805H39.4501Z" fill="black" fill-opacity="0.08"/>
<path d="M11.2977 21.002C11.2977 22.2523 11.5455 23.4905 12.0268 24.6457C12.5082 25.8009 13.2137 26.8505 14.1032 27.7347C14.9926 28.6188 16.0486 29.3202 17.2107 29.7987C18.3728 30.2772 19.6183 30.5234 20.8762 30.5234C22.1341 30.5234 23.3796 30.2772 24.5417 29.7987C25.7039 29.3202 26.7598 28.6188 27.6492 27.7347C28.5387 26.8505 29.2442 25.8009 29.7256 24.6457C30.207 23.4905 30.4547 22.2523 30.4547 21.002C30.4547 19.7516 30.207 18.5134 29.7256 17.3582C29.2442 16.203 28.5387 15.1534 27.6492 14.2692C26.7598 13.3851 25.7039 12.6837 24.5417 12.2052C23.3796 11.7267 22.1341 11.4805 20.8762 11.4805C19.6183 11.4805 18.3728 11.7267 17.2107 12.2052C16.0486 12.6837 14.9926 13.3851 14.1032 14.2692C13.2137 15.1534 12.5082 16.203 12.0268 17.3582C11.5455 18.5134 11.2977 19.7516 11.2977 21.002Z" fill="white"/>
<path d="M13.2625 21.002C13.2625 23.0092 14.0647 24.9342 15.4925 26.3536C16.9204 27.7729 18.8569 28.5703 20.8762 28.5703C22.8955 28.5703 24.8321 27.7729 26.2599 26.3536C27.6877 24.9342 28.4899 23.0092 28.4899 21.002C28.4899 20.0081 28.293 19.0239 27.9103 18.1057C27.5277 17.1874 26.9669 16.3531 26.2599 15.6503C25.5529 14.9475 24.7136 14.39 23.7898 14.0097C22.8661 13.6294 21.8761 13.4336 20.8762 13.4336C19.8764 13.4336 18.8863 13.6294 17.9626 14.0097C17.0389 14.39 16.1995 14.9475 15.4925 15.6503C14.7855 16.3531 14.2247 17.1874 13.8421 18.1057C13.4595 19.0239 13.2625 20.0081 13.2625 21.002Z" fill="#4A8AF4"/>
</g>
<defs>
<clipPath id="clip0_6717_37760">
<rect width="42" height="42" fill="white"/>
</clipPath>
</defs>
</svg>
