<svg width="42" height="42" viewBox="0 0 42 42" fill="none" xmlns="http://www.w3.org/2000/svg">
  <g clip-path="url(#clip0_6717_37762)">
    <path d="M19.0062 1.98802C19.9091 1.85026 20.8207 1.78202 21.7334 1.78385C32.0635 1.78385 40.4452 10.413 40.4452 21.0526C40.4452 30.7776 33.4392 38.8255 24.3493 40.138C23.4465 40.2772 22.5349 40.3469 21.6221 40.3464C19.0759 40.7229 16.4816 40.555 14.0012 39.8531C11.5208 39.1512 9.20752 37.9304 7.20573 36.2668C5.20395 34.6032 3.55663 32.5326 2.3666 30.1842C1.17658 27.8358 0.469383 25.26 0.289161 22.6176C0.108939 19.9751 0.459559 17.3229 1.31914 14.8262C2.17871 12.3296 3.52879 10.0422 5.28512 8.10677C7.04144 6.17138 9.1663 4.62955 11.5271 3.57751C13.8879 2.52547 16.4339 1.9858 19.0062 1.99219V1.98802ZM21.6221 0.242188C10.4484 0.242188 1.39091 9.56927 1.39091 21.0755C1.39091 32.5818 10.4484 41.9089 21.6221 41.9089C32.7958 41.9089 41.8533 32.5818 41.8533 21.0755C41.8533 9.56927 32.7958 0.242188 21.6221 0.242188Z" fill="#CFD8DC"/>
    <path d="M21.6221 1.80469C20.736 1.80469 19.86 1.87344 19.0062 1.98802C14.5626 2.66345 10.5029 4.96188 7.56837 8.46379C4.6338 11.9657 3.02 16.4375 3.02154 21.063C3.02154 31.7026 11.4013 40.3339 21.7334 40.3339C22.6195 40.3339 23.4955 40.263 24.3493 40.1505C33.3947 38.7922 40.334 30.7651 40.334 21.088C40.334 10.4359 31.9542 1.80469 21.6221 1.80469Z" fill="#4497D7"/>
    <path d="M34.4042 7.9151L19.4938 18.8276L23.9163 23.3589L34.4042 7.9151Z" fill="#CD151E"/>
    <path d="M19.5059 18.7922L21.7334 21.063L34.4042 7.9151L19.5059 18.7922Z" fill="#FA5153"/>
    <path d="M19.5059 18.7922L23.9285 23.3255L9.00796 34.238L19.5059 18.7922Z" fill="#ACACAC"/>
    <path d="M9.00796 34.238L21.7334 21.0651L19.5059 18.7943L9.00594 34.238H9.00796Z" fill="#EEEEEE"/>
    <path d="M21.3996 6.27135C21.3996 6.39635 21.5109 6.51094 21.6565 6.51094C21.7779 6.51094 21.9114 6.39635 21.9114 6.27135V2.86719C21.9114 2.74219 21.8002 2.6276 21.6565 2.6276C21.5109 2.6276 21.4016 2.74219 21.4016 2.86719V6.26927L21.3996 6.27135ZM23.2649 4.68385H23.2305C23.1661 4.68008 23.1057 4.6505 23.0622 4.60144C23.0187 4.55238 22.9956 4.48774 22.9978 4.42135L23.1091 2.9026C23.1142 2.83997 23.142 2.78161 23.187 2.73915C23.232 2.69668 23.2909 2.67322 23.3519 2.67344H23.3741C23.5198 2.68594 23.6088 2.79844 23.6088 2.93802L23.4976 4.45469C23.4854 4.59219 23.3964 4.68385 23.2649 4.68385ZM19.7406 4.46719C19.7507 4.59219 19.862 4.68385 19.9935 4.68385H20.0279C20.0601 4.68098 20.0914 4.67157 20.1201 4.65616C20.1487 4.64075 20.1741 4.61966 20.1948 4.59409C20.2155 4.56853 20.2311 4.539 20.2406 4.5072C20.2502 4.47541 20.2535 4.44198 20.2504 4.40885L20.0603 2.91302C20.0502 2.78802 19.9389 2.69635 19.8054 2.69635H19.773C19.7082 2.7027 19.6484 2.73516 19.6067 2.78667C19.565 2.83817 19.5448 2.90456 19.5504 2.97135L19.7386 4.46719H19.7406ZM18.5308 6.6026C18.551 6.7151 18.6522 6.80677 18.7736 6.80677C18.7857 6.80677 18.808 6.80677 18.8302 6.78594C18.9718 6.75052 19.0528 6.61302 19.0184 6.48802L18.3507 3.15469C18.3445 3.11989 18.3302 3.08715 18.309 3.05923C18.2879 3.03132 18.2606 3.00904 18.2293 2.99427C18.1928 2.97138 18.1507 2.95981 18.108 2.96094L18.0817 2.9651C18.0736 2.96927 18.0655 2.97135 18.0533 2.97135C17.9319 2.99427 17.8308 3.14219 17.8652 3.26927L18.5308 6.6026ZM26.599 3.46302C26.6239 3.43719 26.6535 3.41671 26.6862 3.40276C26.7188 3.38882 26.7538 3.38168 26.7892 3.38177C26.8094 3.38177 26.8215 3.38177 26.8438 3.39427C26.9652 3.4276 27.0663 3.57552 27.0218 3.7026L26.6213 5.16302C26.601 5.2776 26.4999 5.34635 26.3886 5.34635C26.3684 5.34635 26.3441 5.34635 26.3218 5.33385C26.2004 5.30052 26.0993 5.1526 26.1458 5.02552L26.5444 3.5651C26.5444 3.51927 26.5666 3.48594 26.599 3.46094V3.46302ZM16.3559 3.41719C16.3227 3.42906 16.2923 3.44826 16.2669 3.47344C16.2393 3.49642 16.2177 3.52624 16.2043 3.56012C16.1908 3.594 16.1859 3.63083 16.19 3.66719C16.19 3.6901 16.19 3.72344 16.2002 3.74635L16.6554 5.17344C16.6999 5.2776 16.7889 5.33385 16.888 5.33385C16.9224 5.33385 16.9447 5.33385 16.977 5.32344C17.0364 5.29499 17.0844 5.24623 17.1128 5.18546C17.1412 5.12468 17.1483 5.05564 17.1328 4.9901L16.6776 3.5651C16.6587 3.51758 16.6265 3.47693 16.585 3.44836C16.5436 3.41979 16.4948 3.40458 16.445 3.40469C16.4148 3.40311 16.3846 3.40735 16.3559 3.41719ZM15.8582 7.5026C15.8798 7.54716 15.913 7.58462 15.9541 7.61076C15.9952 7.6369 16.0426 7.65067 16.0909 7.65052C16.1253 7.65052 16.1577 7.6401 16.1921 7.62969C16.3236 7.56094 16.3802 7.41094 16.3337 7.29635L15.0591 4.15885C15.0378 4.11462 15.0049 4.07736 14.9642 4.05124C14.9234 4.02513 14.8765 4.01117 14.8285 4.01094C14.7941 4.01094 14.7617 4.02135 14.7273 4.03177C14.6665 4.05773 14.6177 4.10693 14.5913 4.16907C14.5649 4.23121 14.5629 4.30146 14.5857 4.3651L15.8603 7.5026H15.8582ZM29.3383 6.62552C29.2987 6.62462 29.2602 6.61235 29.227 6.5901C29.1056 6.52135 29.051 6.37344 29.1158 6.24844L29.7834 4.90052C29.8039 4.85859 29.8355 4.82346 29.8745 4.79914C29.9135 4.77482 29.9583 4.7623 30.0039 4.76302C30.0363 4.76302 30.0808 4.77552 30.1152 4.79844C30.2366 4.86719 30.2912 5.0151 30.2244 5.1401L29.5609 6.48802C29.5382 6.52853 29.5058 6.56242 29.4669 6.58648C29.428 6.61054 29.3837 6.62398 29.3383 6.62552ZM13.4528 4.90052C13.4322 4.86458 13.4025 4.83511 13.3668 4.81528C13.3312 4.79545 13.2909 4.78603 13.2504 4.78802C13.2047 4.78849 13.1597 4.7999 13.1189 4.82135C13.0895 4.83577 13.0632 4.85637 13.0419 4.88182C13.0206 4.90728 13.0046 4.93703 12.9951 4.96919C12.9856 5.00134 12.9827 5.03519 12.9866 5.06857C12.9905 5.10194 13.0011 5.13411 13.0178 5.16302L13.7522 6.47552C13.7722 6.51121 13.8011 6.54069 13.836 6.56085C13.8709 6.58102 13.9104 6.59112 13.9504 6.5901C13.9969 6.58995 14.0426 6.57853 14.084 6.55677C14.2175 6.4776 14.2499 6.3276 14.1851 6.2151L13.4528 4.9026V4.90052ZM13.6085 9.00885C13.5669 9.00958 13.5257 8.99969 13.4886 8.98006C13.4516 8.96043 13.4198 8.93168 13.3961 8.89635L11.5672 6.07552C11.5489 6.04722 11.5364 6.01536 11.5304 5.9819C11.5245 5.94845 11.5252 5.91409 11.5326 5.88094C11.54 5.84778 11.5538 5.81653 11.5734 5.78909C11.5929 5.76165 11.6176 5.7386 11.6461 5.72135C11.6874 5.68937 11.7382 5.67317 11.7898 5.67552C11.8666 5.67552 11.9455 5.71094 12.0002 5.7901L13.8291 8.61094C13.8478 8.63901 13.8606 8.67076 13.8669 8.70419C13.8732 8.73762 13.8727 8.77202 13.8655 8.80525C13.8583 8.83848 13.8445 8.86982 13.825 8.89732C13.8055 8.92482 13.7807 8.9479 13.7522 8.9651C13.7106 8.99634 13.6599 9.0118 13.6085 9.00885ZM29.5366 8.99844C29.5785 9.02899 29.6288 9.04503 29.6802 9.04427C29.7206 9.04567 29.7605 9.03574 29.7958 9.01556C29.8311 8.99538 29.8603 8.96569 29.8805 8.92969L31.7094 6.11094C31.7414 6.05257 31.7513 5.98405 31.7371 5.91863C31.7229 5.85321 31.6856 5.79554 31.6325 5.75677C31.59 5.7258 31.5389 5.70973 31.4869 5.71094C31.4473 5.71227 31.4087 5.72338 31.3742 5.74332C31.3396 5.76326 31.3103 5.79145 31.2886 5.82552L29.4597 8.64427C29.4277 8.70263 29.4178 8.77115 29.432 8.83657C29.4462 8.90199 29.4835 8.95967 29.5366 8.99844ZM11.3244 8.39427C11.2547 8.38954 11.1885 8.36094 11.1363 8.31302L10.1733 7.17135C10.0721 7.06927 10.0944 6.90885 10.2056 6.81719C10.2519 6.77607 10.3105 6.75254 10.3715 6.75052C10.4383 6.75052 10.5051 6.78385 10.5597 6.82969L11.5247 7.97135C11.6016 8.08594 11.6016 8.24427 11.4924 8.32552C11.4708 8.34876 11.4447 8.36693 11.4157 8.3788C11.3867 8.39067 11.3556 8.39594 11.3244 8.39427ZM31.8328 8.39219C31.8788 8.43405 31.9374 8.45833 31.9987 8.46094C32.0707 8.45715 32.1384 8.4242 32.1869 8.36927L33.1074 7.18177C33.1863 7.06927 33.1741 6.91094 33.0629 6.8276C33.0166 6.78649 32.9581 6.76296 32.897 6.76094C32.8201 6.76094 32.7533 6.78177 32.7088 6.8526L31.7883 8.0401C31.7114 8.1526 31.7215 8.31302 31.8328 8.39427V8.39219ZM11.4458 10.8464C11.3811 10.8458 11.3186 10.8214 11.2698 10.7776L8.92906 8.38177C8.82992 8.2776 8.82992 8.11927 8.92906 8.0276C8.97827 7.98391 9.0411 7.95987 9.10608 7.95987C9.17107 7.95987 9.23389 7.98391 9.2831 8.0276L11.6239 10.4234C11.7351 10.5276 11.7351 10.688 11.6239 10.7776C11.5745 10.8219 11.5113 10.8463 11.4458 10.8464ZM19.8944 39.4651H19.8721C19.8077 39.4613 19.7473 39.4317 19.7038 39.3827C19.6603 39.3336 19.6372 39.269 19.6395 39.2026L19.7487 37.6838C19.7513 37.6221 19.777 37.5638 19.8203 37.5211C19.8637 37.4784 19.9214 37.4546 19.9814 37.4547H20.0158C20.1594 37.4672 20.2484 37.5818 20.2484 37.7193L20.1372 39.238C20.1321 39.3006 20.1043 39.359 20.0593 39.4015C20.0143 39.4439 19.9554 39.4674 19.8944 39.4672V39.4651ZM23.186 39.238C23.1961 39.363 23.3074 39.4547 23.4409 39.4547H23.4733C23.5377 39.4483 23.5972 39.4162 23.6388 39.3651C23.6804 39.3141 23.7009 39.2482 23.6958 39.1818L23.5077 37.6859C23.4955 37.5609 23.3863 37.4693 23.2528 37.4693H23.2184C23.1537 37.4751 23.094 37.5071 23.0522 37.5583C23.0105 37.6095 22.9902 37.6756 22.9958 37.7422L23.186 39.238ZM26.8013 38.7484C26.7511 38.749 26.7019 38.7339 26.66 38.7053C26.6182 38.6767 26.5857 38.6359 26.5666 38.588L26.1114 37.1609C26.0965 37.0957 26.1038 37.0271 26.1322 36.9668C26.1605 36.9065 26.2082 36.8581 26.2672 36.8297C26.3016 36.8193 26.3239 36.8193 26.3562 36.8193C26.4574 36.8193 26.5444 36.8755 26.5889 36.9776L27.0441 38.4047C27.0542 38.4276 27.0542 38.463 27.0542 38.4859C27.0519 38.5542 27.0244 38.619 26.9773 38.6672C26.9522 38.6931 26.9218 38.713 26.8883 38.7255C26.8559 38.7463 26.8337 38.7464 26.7993 38.7464L26.8013 38.7484ZM16.4126 38.7589C16.4328 38.7693 16.445 38.7693 16.4672 38.7693C16.534 38.7693 16.6007 38.7484 16.6554 38.6901C16.6824 38.6611 16.7013 38.6251 16.71 38.5859L17.1106 37.1276C17.1551 37.0005 17.0539 36.8526 16.9325 36.8172C16.9123 36.8068 16.888 36.8068 16.8658 36.8068C16.7545 36.8068 16.6554 36.8755 16.6331 36.9901L16.2346 38.4484C16.19 38.5755 16.2892 38.7234 16.4126 38.7589ZM21.5898 39.5339C21.4461 39.5339 21.3348 39.4193 21.3348 39.2943V35.8922C21.3348 35.7672 21.4562 35.6526 21.5898 35.6526C21.7334 35.6526 21.8447 35.7672 21.8447 35.8922V39.2943C21.8447 39.4193 21.7334 39.5339 21.5898 39.5339ZM29.1724 35.5964C29.0389 35.6755 29.0065 35.8255 29.0713 35.938L29.8036 37.2505C29.8238 37.2865 29.8531 37.3162 29.8884 37.3364C29.9236 37.3566 29.9636 37.3665 30.0039 37.3651C30.0505 37.3644 30.0963 37.3522 30.1374 37.3297C30.1668 37.3151 30.1928 37.2943 30.2139 37.2688C30.235 37.2433 30.2508 37.2135 30.2601 37.1813C30.2694 37.1492 30.2721 37.1154 30.2681 37.0821C30.264 37.0488 30.2533 37.0168 30.2366 36.988L29.5042 35.6755C29.484 35.6395 29.4548 35.6098 29.4195 35.5896C29.3842 35.5695 29.3442 35.5595 29.3039 35.5609C29.258 35.562 29.2129 35.5741 29.1724 35.5964ZM13.2525 37.3984C13.2138 37.3977 13.1761 37.3862 13.1432 37.3651C13.0218 37.2963 12.9652 37.1484 13.0319 37.0234L13.6976 35.6755C13.7182 35.6333 13.7501 35.5979 13.7895 35.5736C13.8289 35.5492 13.8742 35.5369 13.9201 35.538C13.9525 35.538 13.997 35.5505 14.0293 35.5734C14.1507 35.6422 14.2074 35.7901 14.1406 35.9151L13.475 37.263C13.4204 37.3422 13.3415 37.4005 13.2525 37.4005V37.3984ZM18.0877 39.1693C18.1046 39.1779 18.1236 39.1815 18.1424 39.1797C18.2536 39.1797 18.3528 39.088 18.3851 38.9734L19.0285 35.6401C19.0353 35.5727 19.0176 35.5051 18.9787 35.4504C18.9398 35.3957 18.8826 35.3579 18.8181 35.3443H18.7857C18.7266 35.3416 18.6684 35.3591 18.6201 35.3942C18.5717 35.4292 18.5361 35.4798 18.5187 35.538L17.8773 38.8714C17.8694 38.9392 17.8867 39.0076 17.9258 39.0628C17.9648 39.1181 18.0226 39.1561 18.0877 39.1693ZM24.2279 35.6422C24.1935 35.5172 24.2724 35.3797 24.4161 35.3464C24.4282 35.3464 24.4363 35.3422 24.4444 35.3401L24.4525 35.338H24.4565L24.4727 35.3339C24.5941 35.3339 24.6952 35.4255 24.7155 35.5401L25.3811 38.8734C25.4135 38.9984 25.3143 39.1463 25.1929 39.1693C25.1808 39.1693 25.1727 39.1734 25.1646 39.1755C25.1556 39.1793 25.146 39.1815 25.1363 39.1818C25.0934 39.1823 25.0512 39.17 25.0149 39.1464C24.9839 39.1318 24.9567 39.1098 24.9356 39.0823C24.9145 39.0548 24.9001 39.0224 24.8935 38.988L24.2279 35.6422ZM28.1973 37.9818C28.2186 38.026 28.2515 38.0633 28.2922 38.0894C28.333 38.1155 28.3799 38.1294 28.4279 38.1297C28.4623 38.1297 28.4947 38.1297 28.5291 38.1088C28.5903 38.0833 28.6395 38.0342 28.6663 37.9721C28.6931 37.9099 28.6954 37.8394 28.6727 37.7755L27.3981 34.638C27.3769 34.5931 27.3438 34.5552 27.3027 34.5287C27.2616 34.5021 27.214 34.4881 27.1655 34.488C27.1311 34.488 27.0987 34.5005 27.0643 34.5109C26.9328 34.5797 26.8762 34.7276 26.9227 34.8443L28.1973 37.9818ZM14.8042 38.1297C14.776 38.1278 14.7481 38.1222 14.7213 38.113L14.695 38.1068C14.5736 38.0609 14.5048 37.913 14.5493 37.7755L15.8137 34.6359C15.8348 34.5902 15.8676 34.5512 15.9086 34.5233C15.9496 34.4954 15.9973 34.4796 16.0464 34.4776C16.0808 34.4776 16.1132 34.488 16.1476 34.4984C16.2689 34.5443 16.3357 34.6943 16.2892 34.8318L15.0267 37.9693C14.9944 38.0839 14.9054 38.1297 14.8042 38.1297ZM32.6866 35.3234C32.7412 35.3672 32.808 35.4026 32.8747 35.4026C32.9314 35.4026 32.986 35.3797 33.0406 35.3339C33.1519 35.2422 33.1741 35.0839 33.075 34.9797L32.11 33.838C32.0575 33.791 31.9913 33.7632 31.9218 33.7589C31.8605 33.7615 31.8019 33.7857 31.7559 33.8276C31.6447 33.9068 31.6447 34.0672 31.7215 34.1818L32.6866 35.3234ZM31.4545 36.463C31.413 36.4632 31.3721 36.4528 31.3354 36.4328C31.2987 36.4128 31.2673 36.3839 31.2441 36.3484L29.4152 33.5297C29.3965 33.5016 29.3836 33.4699 29.3773 33.4364C29.3711 33.403 29.3716 33.3686 29.3788 33.3354C29.386 33.3021 29.3998 33.2708 29.4193 33.2433C29.4387 33.2158 29.4635 33.1927 29.4921 33.1755C29.5339 33.1431 29.5855 33.1268 29.6377 33.1297C29.7146 33.1297 29.7915 33.1651 29.8481 33.2443L31.677 36.063C31.6954 36.0912 31.7081 36.1229 31.7142 36.1563C31.7203 36.1897 31.7197 36.224 31.7125 36.2571C31.7054 36.2903 31.6917 36.3215 31.6724 36.3491C31.653 36.3766 31.6285 36.3998 31.6002 36.4172C31.5583 36.4496 31.5068 36.4659 31.4545 36.463ZM11.5996 36.3943C11.6421 36.4252 11.6932 36.4413 11.7452 36.4401C11.7861 36.438 11.826 36.4268 11.8623 36.4074C11.8986 36.388 11.9305 36.3608 11.9556 36.3276L13.7845 33.5068C13.8166 33.4484 13.8264 33.3799 13.8122 33.3145C13.798 33.249 13.7608 33.1914 13.7077 33.1526C13.6651 33.1216 13.6141 33.1056 13.562 33.1068C13.5207 33.1078 13.4802 33.1187 13.4437 33.1386C13.4072 33.1585 13.3757 33.1868 13.3516 33.2213L11.5227 36.0422C11.4907 36.1005 11.4808 36.1691 11.495 36.2345C11.5092 36.2999 11.5465 36.3576 11.5996 36.3964V36.3943ZM35.3247 32.8797C35.2693 32.8823 35.2146 32.8662 35.1689 32.8339L34.0158 31.9088C33.9045 31.8297 33.8944 31.6693 33.9713 31.5547C33.9927 31.5232 34.0211 31.4975 34.0542 31.4797C34.0873 31.462 34.1241 31.4527 34.1614 31.4526C34.2161 31.4526 34.2707 31.463 34.3152 31.4984L35.4684 32.4234C35.5796 32.5026 35.5898 32.663 35.5129 32.7776C35.4926 32.8097 35.4646 32.8359 35.4317 32.8538C35.3987 32.8717 35.3619 32.8806 35.3247 32.8797ZM7.71114 32.7547C7.76395 32.8091 7.83473 32.8411 7.9094 32.8443C7.96605 32.8443 8.02068 32.8234 8.06519 32.7776L9.18599 31.7943C9.2093 31.7717 9.22806 31.7447 9.24119 31.7147C9.25432 31.6846 9.26156 31.6523 9.2625 31.6193C9.26344 31.5864 9.25806 31.5537 9.24667 31.5229C9.23527 31.4921 9.21809 31.464 9.19611 31.4401C9.14279 31.3852 9.0712 31.3531 8.99582 31.3505C8.96706 31.351 8.93867 31.3573 8.91229 31.3691C8.8859 31.3809 8.86204 31.398 8.84206 31.4193L7.72125 32.3984C7.69795 32.421 7.67919 32.448 7.66606 32.478C7.65293 32.5081 7.64569 32.5404 7.64475 32.5734C7.64381 32.6063 7.64919 32.639 7.66058 32.6698C7.67198 32.7006 7.68916 32.7287 7.71114 32.7526V32.7547ZM34.1372 34.2026C34.0717 34.2024 34.0085 34.178 33.9591 34.1339L31.6204 31.738C31.5091 31.6339 31.5091 31.4755 31.6204 31.3839C31.6698 31.3406 31.7325 31.3168 31.7974 31.3168C31.8623 31.3168 31.925 31.3406 31.9744 31.3839L34.3132 33.7797C34.4143 33.8839 34.4143 34.0443 34.3132 34.1339C34.2654 34.1794 34.2023 34.2041 34.1372 34.2026ZM8.88455 34.0672C8.93389 34.1115 8.99713 34.1359 9.06258 34.1359C9.11923 34.1359 9.18397 34.113 9.24062 34.0672L11.5793 31.6714C11.6805 31.5776 11.6805 31.4193 11.5793 31.3172C11.5301 31.2735 11.4673 31.2494 11.4023 31.2494C11.3373 31.2494 11.2745 31.2735 11.2253 31.3172L8.88455 33.713C8.78542 33.8047 8.78542 33.963 8.88455 34.0672ZM36.3221 31.463C36.2794 31.464 36.2373 31.4525 36.2007 31.4297L33.4513 29.5464C33.4236 29.5283 33.3997 29.5046 33.3812 29.4767C33.3627 29.4488 33.35 29.4173 33.3437 29.3841C33.3375 29.3509 33.3379 29.3168 33.3449 29.2838C33.3519 29.2508 33.3654 29.2196 33.3846 29.1922C33.4093 29.1554 33.4427 29.1256 33.4816 29.1056C33.5205 29.0855 33.5636 29.0759 33.6071 29.0776C33.6498 29.0765 33.692 29.088 33.7285 29.1109L36.4799 30.9943C36.5892 31.0755 36.6215 31.2234 36.5447 31.3484C36.5174 31.3824 36.4835 31.4102 36.4452 31.4299C36.4068 31.4497 36.3649 31.4609 36.3221 31.463ZM6.66923 31.2838C6.71374 31.3609 6.80276 31.4088 6.87964 31.4088C6.93426 31.4088 6.98079 31.3964 7.01316 31.3609L9.76258 29.4776C9.81648 29.4392 9.85351 29.3805 9.86563 29.3142C9.87775 29.2479 9.86399 29.1794 9.82732 29.1234C9.8054 29.086 9.7746 29.0548 9.73779 29.033C9.70099 29.0111 9.6594 28.9992 9.61692 28.9984C9.56934 28.9981 9.52303 29.0143 9.48542 29.0443L6.73397 30.9276C6.68007 30.966 6.64305 31.0247 6.63093 31.091C6.61881 31.1573 6.63257 31.2258 6.66923 31.2818V31.2838ZM35.8123 29.213C35.6909 29.1672 35.6343 28.9964 35.701 28.8714C35.7217 28.8291 35.7536 28.7937 35.793 28.7694C35.8324 28.7451 35.8776 28.7327 35.9236 28.7339C35.9559 28.7339 36.0004 28.7464 36.0328 28.7693L37.3418 29.4547C37.4632 29.5214 37.5198 29.6714 37.453 29.7964C37.4324 29.8386 37.4005 29.874 37.3611 29.8983C37.3217 29.9226 37.2764 29.935 37.2305 29.9338C37.191 29.9327 37.1525 29.9205 37.1192 29.8984L35.8123 29.213ZM5.86201 29.4089C5.78108 29.4547 5.74871 29.5338 5.74871 29.6255C5.74871 29.6609 5.76085 29.7068 5.77097 29.7505C5.81547 29.8318 5.90449 29.8755 5.98137 29.8755H6.00362C6.04298 29.8751 6.08148 29.8636 6.1149 29.8422L7.38946 29.0901C7.50073 29.0214 7.5331 28.8734 7.46836 28.7464C7.44508 28.7073 7.41229 28.6753 7.37325 28.6533C7.33421 28.6314 7.29028 28.6204 7.24582 28.6214C7.20625 28.6223 7.16771 28.6345 7.13455 28.6568L5.86201 29.4089ZM37.9406 28.3359C37.9062 28.3359 37.886 28.3359 37.8516 28.3255L34.8028 27.013C34.7441 26.9821 34.699 26.9294 34.6765 26.8657C34.654 26.8019 34.6557 26.7318 34.6814 26.6693C34.7137 26.5651 34.8149 26.5089 34.914 26.5089C34.9442 26.5073 34.9744 26.5115 35.003 26.5213L38.0519 27.8214C38.1632 27.8672 38.2057 27.9714 38.1935 28.0964C38.1935 28.1089 38.1935 28.1193 38.1895 28.1318C38.1861 28.1426 38.1841 28.1538 38.1834 28.1651C38.1288 28.2797 38.0418 28.3359 37.9406 28.3359ZM5.17414 27.7547C5.12905 27.7746 5.09094 27.8082 5.06491 27.851C5.03887 27.8938 5.02616 27.9438 5.02848 27.9943C5.02848 28.0276 5.02848 28.063 5.04871 28.0984C5.09524 28.1984 5.18426 28.2568 5.28339 28.2568C5.31576 28.2568 5.33802 28.2568 5.37241 28.2443L8.42126 26.9443C8.47827 26.9116 8.52194 26.8589 8.54423 26.7957C8.56653 26.7326 8.56597 26.6633 8.54264 26.6005C8.52343 26.5534 8.49106 26.5132 8.44965 26.485C8.40823 26.4568 8.35962 26.4419 8.30998 26.4422C8.27559 26.4422 8.25333 26.4422 8.22097 26.4526L5.17212 27.7547H5.17414ZM38.5718 26.6339C38.5516 26.6339 38.5273 26.6339 38.5051 26.6234L37.0869 26.213C37.0276 26.1992 36.9754 26.1634 36.9402 26.1125C36.9049 26.0615 36.8892 25.999 36.896 25.9368C36.9027 25.8746 36.9315 25.8172 36.9768 25.7756C37.0221 25.7339 37.0807 25.7109 37.1415 25.7109C37.1637 25.7109 37.186 25.7109 37.2082 25.7214L38.6265 26.1318C38.6647 26.1414 38.6997 26.1615 38.7276 26.1901C38.7944 26.2464 38.8166 26.3484 38.7944 26.4401C38.7839 26.4935 38.7562 26.5417 38.7158 26.5769C38.6755 26.612 38.6247 26.6321 38.5718 26.6339ZM4.43975 26.4068C4.45809 26.4586 4.49094 26.5037 4.53415 26.5363C4.57736 26.569 4.62899 26.5877 4.68253 26.5901C4.71692 26.5901 4.73917 26.5901 4.76345 26.5672L6.14727 26.0984C6.17876 26.0874 6.20782 26.0701 6.23275 26.0474C6.25768 26.0248 6.27798 25.9972 6.29248 25.9664C6.30698 25.9356 6.31538 25.9021 6.31719 25.8679C6.319 25.8337 6.3142 25.7994 6.30305 25.7672C6.28114 25.7164 6.2454 25.6732 6.20016 25.6429C6.15492 25.6126 6.10211 25.5964 6.04813 25.5964C6.03599 25.5964 6.02588 25.5984 6.01374 25.6026L5.98137 25.6068L4.59553 26.0755C4.56403 26.0865 4.53498 26.1039 4.51005 26.1265C4.48512 26.1492 4.46481 26.1767 4.45032 26.2076C4.43582 26.2384 4.42742 26.2719 4.42561 26.3061C4.42379 26.3403 4.4286 26.3745 4.43975 26.4068ZM38.9481 24.9359H38.9158L35.6788 24.2734C35.6158 24.2553 35.5616 24.2137 35.5269 24.1567C35.4921 24.0997 35.4792 24.0314 35.4906 23.9651C35.523 23.8276 35.6241 23.7484 35.7455 23.7484H35.7779L39.0149 24.4109C39.1363 24.4443 39.2374 24.5693 39.203 24.7172C39.1907 24.7779 39.1589 24.8326 39.1126 24.8723C39.0663 24.912 39.0084 24.9344 38.9481 24.9359ZM4.14033 24.3297C4.10297 24.3511 4.07196 24.3826 4.05059 24.4208C4.02921 24.4589 4.01828 24.5023 4.01894 24.5463C4.01894 24.5588 4.02097 24.5672 4.02501 24.5755L4.02906 24.6047C4.05131 24.7297 4.15044 24.8214 4.26172 24.8214L4.30622 24.8089L7.54322 24.1589C7.66461 24.1255 7.76576 23.9984 7.73137 23.8505C7.71114 23.7255 7.60998 23.6339 7.49871 23.6339C7.49174 23.6351 7.48494 23.6372 7.47848 23.6401L7.4542 23.6443L4.21721 24.2964L4.14033 24.3297ZM39.2152 23.1651L37.7403 23.0505C37.6189 23.0401 37.5178 22.9026 37.5178 22.7776C37.5215 22.7113 37.5502 22.6491 37.5978 22.6043C37.6455 22.5595 37.7082 22.5357 37.7727 22.538L39.2496 22.6526C39.371 22.663 39.4802 22.7776 39.4701 22.9255C39.4478 23.063 39.3366 23.1651 39.2152 23.1651ZM3.77414 22.8568C3.7964 22.9943 3.89553 23.0859 4.01692 23.0859L4.03108 23.0818C4.03715 23.0818 4.0412 23.0776 4.0412 23.0859L5.49177 22.9026C5.6253 22.8818 5.71432 22.7547 5.7042 22.6068C5.68195 22.4693 5.58282 22.3776 5.46143 22.3776H5.43715L3.98455 22.5609C3.85305 22.5818 3.76201 22.7068 3.77414 22.8568ZM36.0004 21.3839C35.8791 21.3839 35.7678 21.2693 35.7678 21.1193C35.7678 20.9734 35.8791 20.8568 36.0004 20.8568H39.3042C39.4256 20.8568 39.5369 20.9714 39.5369 21.1214C39.5369 21.2672 39.4256 21.3839 39.3042 21.3839H36.0004ZM3.7094 21.0297C3.7094 21.1776 3.82068 21.2922 3.94206 21.2922H7.24582C7.36721 21.2922 7.47848 21.1776 7.47848 21.0297C7.47848 20.8818 7.36721 20.7672 7.24582 20.7672H3.94004C3.81865 20.7672 3.70738 20.8818 3.70738 21.0297H3.7094ZM37.7869 19.7734C37.6635 19.7734 37.5643 19.6839 37.5421 19.5443C37.5299 19.3984 37.6189 19.2734 37.7525 19.2484L39.2051 19.0672H39.2253C39.3467 19.0672 39.4478 19.1568 39.4701 19.2964C39.4822 19.4422 39.3932 19.5672 39.2597 19.5922L37.8071 19.7734H37.7869ZM3.99669 19.513L5.47154 19.6276C5.59293 19.6276 5.7042 19.5359 5.72646 19.388C5.72646 19.263 5.6253 19.1255 5.50391 19.113L4.03108 18.9984C3.96662 18.9962 3.90384 19.0199 3.8562 19.0647C3.80856 19.1095 3.77983 19.1717 3.77617 19.238C3.77107 19.3047 3.7915 19.3708 3.83308 19.4222C3.87466 19.4736 3.9341 19.5062 3.99871 19.513H3.99669ZM35.7334 18.5068C35.6221 18.5068 35.523 18.4151 35.5007 18.2901C35.4684 18.1422 35.5675 18.0151 35.6889 17.9818L38.9259 17.3318C38.9335 17.3308 38.941 17.3287 38.9481 17.3255L38.9623 17.3214H38.9704C39.0817 17.3214 39.1808 17.4109 39.203 17.5359C39.203 17.5484 39.2071 17.5568 39.2091 17.5651C39.2111 17.5734 39.2152 17.5818 39.2152 17.5943C39.2195 17.6389 39.2101 17.6838 39.1883 17.7227C39.1665 17.7616 39.1335 17.7924 39.0938 17.8109C39.0805 17.8171 39.067 17.8226 39.0533 17.8276C39.0403 17.8326 39.0275 17.8382 39.0149 17.8443L35.7779 18.4964C35.7678 18.5068 35.7577 18.5068 35.7334 18.5068ZM7.47848 18.4047H7.51085C7.62212 18.4047 7.73339 18.3234 7.76576 18.188C7.77723 18.1217 7.76431 18.0534 7.72952 17.9964C7.69474 17.9394 7.64058 17.8978 7.57761 17.8797L4.34062 17.2172H4.30825C4.18686 17.2172 4.08571 17.2964 4.05334 17.4339C4.01894 17.5818 4.1201 17.7089 4.24149 17.7422L7.47848 18.4047ZM38.4828 15.5734C38.5051 15.563 38.5273 15.563 38.5496 15.563H38.5617C38.6629 15.563 38.76 15.6297 38.8045 15.7443C38.816 15.7765 38.8211 15.8108 38.8196 15.8452C38.8181 15.8795 38.8099 15.9132 38.7956 15.9442C38.7813 15.9752 38.7611 16.003 38.7362 16.0259C38.7114 16.0488 38.6823 16.0664 38.6507 16.0776L37.2649 16.5443C37.2533 16.5442 37.2418 16.5456 37.2305 16.5484C37.2204 16.5526 37.2103 16.5547 37.1981 16.5547C37.1442 16.5546 37.0913 16.5385 37.0461 16.5082C37.0009 16.4778 36.9651 16.4347 36.9432 16.3839C36.932 16.3517 36.9271 16.3176 36.9288 16.2835C36.9305 16.2494 36.9387 16.216 36.953 16.1852C36.9673 16.1544 36.9874 16.1268 37.0121 16.1041C37.0368 16.0813 37.0657 16.0638 37.097 16.0526L38.4828 15.5734ZM4.45189 15.7005C4.42964 15.7901 4.45189 15.8922 4.51865 15.9505C4.53888 15.9839 4.57328 16.0068 4.62993 16.0068L6.04611 16.4193C6.06784 16.4286 6.09148 16.4322 6.1149 16.4297C6.17564 16.4297 6.23427 16.4067 6.27956 16.3651C6.32486 16.3234 6.35365 16.266 6.36041 16.2038C6.36717 16.1417 6.35144 16.0791 6.31622 16.0281C6.281 15.9772 6.22877 15.9414 6.16952 15.9276L4.75131 15.5172C4.72906 15.5047 4.7068 15.5047 4.68455 15.5047C4.63061 15.5066 4.57875 15.5266 4.53678 15.5615C4.49482 15.5965 4.46502 15.6445 4.45189 15.6984V15.7005ZM34.9343 15.7214C34.885 15.7212 34.8368 15.7061 34.7958 15.678C34.7548 15.6498 34.7227 15.6098 34.7036 15.563C34.6803 15.5003 34.6797 15.431 34.702 15.3678C34.7243 15.3047 34.768 15.2519 34.825 15.2193L37.8739 13.9193C37.9062 13.9068 37.9285 13.9068 37.9629 13.9068C38.064 13.9068 38.151 13.963 38.1955 14.0672C38.2056 14.1005 38.2158 14.1359 38.2158 14.1714C38.2158 14.2714 38.1733 14.363 38.0741 14.4089L35.0253 15.7109C35.0071 15.7109 34.995 15.713 34.9808 15.7172C34.9661 15.7202 34.9512 15.7216 34.9363 15.7214H34.9343ZM5.30565 13.8151C5.20449 13.8151 5.10536 13.8734 5.07299 13.9755C5.06775 13.9861 5.06368 13.9973 5.06085 14.0089C5.05883 14.0214 5.0568 14.0318 5.05073 14.0443C5.0386 14.1693 5.0831 14.2734 5.19438 14.3172L8.24322 15.6193C8.27559 15.6297 8.29784 15.6297 8.33224 15.6297C8.43339 15.6297 8.5305 15.5734 8.5649 15.4714C8.59053 15.4089 8.59227 15.3387 8.56975 15.2749C8.54724 15.2112 8.50214 15.1585 8.44351 15.1276L5.39466 13.8276C5.36027 13.8151 5.33802 13.8151 5.30565 13.8151ZM37.2406 12.2734C37.3317 12.2734 37.4085 12.3193 37.453 12.3984C37.4727 12.4371 37.4837 12.4798 37.4854 12.5234C37.4854 12.6172 37.453 12.6964 37.3741 12.7422L36.0996 13.4964C36.0668 13.5175 36.029 13.529 35.9903 13.5297C35.9459 13.5306 35.9019 13.5196 35.8629 13.4977C35.8239 13.4758 35.7911 13.4437 35.7678 13.4047C35.701 13.2797 35.7334 13.1297 35.8447 13.0609L37.1192 12.3089C37.1561 12.2867 37.1979 12.2745 37.2406 12.2734ZM7.21143 13.3943C7.24484 13.4157 7.28334 13.4272 7.3227 13.4276C7.36809 13.4261 7.41234 13.4126 7.45128 13.3886C7.49022 13.3645 7.52256 13.3306 7.54524 13.2901C7.60998 13.1651 7.55536 12.9943 7.43397 12.9484L6.12501 12.263C6.09159 12.2416 6.0531 12.2301 6.01374 12.2297C5.96781 12.2286 5.92252 12.2409 5.88313 12.2652C5.84373 12.2896 5.81186 12.3249 5.7912 12.3672C5.72646 12.4922 5.78108 12.6401 5.90247 12.7089L7.21143 13.3943ZM33.6273 13.1651C33.5848 13.1643 33.5433 13.1524 33.5065 13.1306C33.4697 13.1087 33.4388 13.0776 33.4169 13.0401C33.3805 12.9839 33.367 12.9152 33.3795 12.8489C33.392 12.7825 33.4295 12.724 33.4837 12.6859L36.2331 10.8026C36.2713 10.7721 36.3184 10.756 36.3666 10.7568C36.4435 10.7568 36.5325 10.8026 36.577 10.8818C36.6135 10.9379 36.6269 11.0067 36.6144 11.073C36.6019 11.1393 36.5645 11.1979 36.5103 11.2359L33.7588 13.1193C33.7163 13.1422 33.6718 13.1651 33.6273 13.1651ZM9.51779 13.0505C9.5543 13.0734 9.59644 13.085 9.63917 13.0839C9.72819 13.0839 9.81721 13.0505 9.86172 12.9693C9.88086 12.9418 9.89436 12.9107 9.90138 12.8777C9.90841 12.8446 9.9088 12.8105 9.90255 12.7773C9.8963 12.7442 9.88353 12.7127 9.86503 12.6848C9.84652 12.6569 9.82268 12.6332 9.79495 12.6151L7.05565 10.7339C7.01913 10.711 6.97699 10.6994 6.93426 10.7005C6.89081 10.6988 6.84764 10.7085 6.80875 10.7285C6.76986 10.7485 6.73649 10.7783 6.71172 10.8151C6.6934 10.8428 6.68059 10.874 6.67403 10.9069C6.66747 10.9397 6.66729 10.9736 6.67349 11.0065C6.6797 11.0394 6.69217 11.0708 6.71019 11.0987C6.72821 11.1266 6.75142 11.1506 6.77848 11.1693L9.51779 13.0526V13.0505ZM34.2383 10.8026C34.1626 10.7994 34.091 10.7666 34.038 10.7109C34.016 10.687 33.9989 10.6589 33.9875 10.6281C33.9761 10.5974 33.9707 10.5646 33.9716 10.5317C33.9726 10.4988 33.9798 10.4664 33.9929 10.4364C34.0061 10.4064 34.0248 10.3793 34.0481 10.3568L35.1689 9.37552C35.1892 9.35405 35.2134 9.33692 35.2402 9.32512C35.2669 9.31332 35.2956 9.30708 35.3247 9.30677C35.3895 9.30677 35.4663 9.34219 35.523 9.39844C35.545 9.42234 35.5622 9.45048 35.5735 9.48124C35.5849 9.512 35.5903 9.54478 35.5894 9.57768C35.5884 9.61059 35.5812 9.64298 35.5681 9.673C35.5549 9.70302 35.5362 9.73007 35.5129 9.7526L34.3921 10.7339C34.3721 10.7552 34.3482 10.7722 34.3218 10.784C34.2955 10.7958 34.2671 10.8021 34.2383 10.8026ZM8.93108 10.6651C8.97559 10.6984 9.03224 10.7109 9.08686 10.7109C9.12426 10.7116 9.1612 10.7024 9.19414 10.6841C9.22709 10.6659 9.25493 10.6393 9.27501 10.6068C9.35189 10.4943 9.34177 10.3339 9.2305 10.2526L8.07732 9.32969C8.03162 9.29737 7.97693 9.28128 7.92154 9.28385C7.88438 9.28448 7.84791 9.29426 7.81517 9.31238C7.78244 9.33051 7.7544 9.35644 7.73339 9.38802C7.65651 9.50052 7.66663 9.65885 7.7779 9.7401L8.93108 10.6651ZM27.1999 7.66302C27.1655 7.66302 27.1331 7.65052 27.0987 7.6401C26.9773 7.59427 26.9106 7.44635 26.9571 7.30885L28.2195 4.16927C28.2374 4.12406 28.2683 4.0856 28.3081 4.05913C28.3479 4.03267 28.3947 4.01948 28.4421 4.02135C28.4663 4.02135 28.4926 4.0276 28.525 4.03802L28.5513 4.04427C28.6727 4.0901 28.7395 4.23802 28.695 4.37552L27.4325 7.5151C27.3759 7.59427 27.2889 7.66094 27.1999 7.66094V7.66302ZM24.4606 6.80885H24.4262C24.3611 6.79567 24.3032 6.75765 24.2642 6.7024C24.2252 6.64716 24.2079 6.57877 24.2158 6.51094L24.8591 3.1776C24.8707 3.12007 24.9012 3.06838 24.9454 3.03121C24.9896 2.99404 25.0448 2.97364 25.1019 2.97344C25.1262 2.97344 25.1363 2.97344 25.1585 2.98385C25.3022 3.01719 25.3811 3.14427 25.3689 3.27969L24.7256 6.61302C24.7072 6.67032 24.6716 6.72015 24.624 6.75534C24.5764 6.79052 24.5192 6.80926 24.4606 6.80885Z" fill="#E9E9E9"/>
  </g>
  <defs>
    <clipPath id="clip0_6717_37762">
      <rect width="42" height="42" fill="white"/>
    </clipPath>
  </defs>
</svg>