<svg width="520" height="430" viewBox="0 0 520 430" fill="none" xmlns="http://www.w3.org/2000/svg">
  <g clip-path="url(#clip0_6843_67359)">
    <path opacity="0.8" d="M253.011 236.283C326.314 236.283 392.404 244.791 438.533 258.341C483.712 258.893 520 278.036 520 301.67C520 320.734 496.237 336.963 463.303 342.714C456.034 345.707 447.983 348.464 439.148 351.064C439.372 352.719 439.428 354.373 439.428 355.948C439.428 396.835 376.357 430.001 298.525 430.001C228.856 430.001 170.929 403.373 159.634 368.474C66.0903 358.469 0 333.733 0 304.821C0 267.007 113.17 236.283 253.011 236.283Z" fill="url(#paint0_linear_6843_67359)"/>
    <path fill-rule="evenodd" clip-rule="evenodd" d="M476.377 41.1091L476.195 43.3257L475.685 45.4056L474.848 47.3925L473.721 49.2427L472.33 50.944L470.655 52.5024L468.792 53.8497L466.715 54.9922L464.405 55.9421L462 56.6189L459.432 57.0411L456.694 57.1963H395.807L393.069 56.8859L390.475 56.3457L388.027 55.5758L385.666 54.57L383.539 53.3841L381.612 52.0119L379.881 50.4286L378.44 48.7088L377.269 46.8399L376.394 44.8282L375.859 42.6924L375.664 40.3951L375.815 38.3834L376.249 36.471L376.954 34.6208L377.899 32.8823L379.076 31.2494L380.479 29.722L382.053 28.3622L383.803 27.1515L385.735 26.096L385.106 24.4879L384.898 23.6807L384.823 22.8798L385.043 20.8805L385.647 18.9992L386.648 17.2111L387.97 15.6216L389.588 14.237L391.533 13.0573L393.648 12.1881L395.97 11.6479L398.551 11.4368L400.899 11.6355L403.014 12.157L405.003 12.9518L406.791 13.939L408.786 11.3064L411.084 8.88493L413.708 6.67456L416.572 4.75602L419.682 3.12307L423.068 1.78816L425.687 1.02446L428.419 0.471873L431.27 0.124176L434.26 0L437.37 0.136596L440.328 0.515339L443.154 1.1176L445.861 1.94339L448.511 3.01132L450.96 4.24688L453.226 5.6563L455.322 7.23957L457.267 9.02152L458.966 10.9152L460.439 12.9331L461.686 15.0814L462.686 17.3477L463.41 19.6884L463.851 22.1223L464.015 24.6679V26.096L466.407 27.0646L468.553 28.2318L470.479 29.5916L472.21 31.1749L473.639 32.8885L474.797 34.7574L475.666 36.7629L476.188 38.8677L476.377 41.1091Z" fill="url(#paint1_linear_6843_67359)"/>
    <path fill-rule="evenodd" clip-rule="evenodd" d="M70.6611 20.5371L74.5322 20.742L78.2334 21.3256L81.7836 22.2818L85.2141 23.5919L88.4369 25.2062L91.4709 27.1434L94.2909 29.36L96.8528 31.8311L99.1629 34.563L101.19 37.506L102.896 40.6415L104.299 43.9943H127.488L129.496 44.1806L131.341 44.6711L133.047 45.4782L134.595 46.5586L135.904 47.85L137 49.3774L137.812 51.06L138.315 52.873L138.504 54.8599V81.4215L138.315 83.4022L137.812 85.2214L137 86.904L135.904 88.4251L134.595 89.7228L133.047 90.8032L131.341 91.6041L129.496 92.1008L127.488 92.2871H15.2374L13.2231 92.1008L11.3851 91.6041L9.67301 90.8032L8.13084 89.7228L6.82157 88.4251L5.72631 86.904L4.90802 85.2214L4.40446 83.4022L4.22191 81.4215V73.7163L2.98818 71.5432L1.95587 69.2645L1.12499 66.8617L0.520709 64.3905L0.155623 61.8325L0.0234375 59.1688L0.180802 56.3065L0.602537 53.5684L1.28235 50.9483L2.22024 48.4275L3.41621 45.9998L4.80731 43.7335L6.40613 41.6225L8.21896 39.6605L10.208 37.8723L12.3482 36.2953L14.6457 34.9169L17.1069 33.7434L19.6625 32.8183L22.3188 32.1415L25.0947 31.7255L27.9965 31.5765L30.4891 31.6821L32.8937 31.9925L35.2227 32.5016L37.495 33.2032L39.6666 34.0787L41.7375 35.128L44.0539 32.2905L46.6221 29.7263L49.4736 27.4166L52.5453 25.4049L55.8185 23.7223L59.312 22.3563L62.0123 21.574L64.8008 21.009L67.6775 20.6613L70.6611 20.5371Z" fill="url(#paint2_linear_6843_67359)"/>
    <path d="M322.292 68.8507V68.7885C318.93 59.4559 307.974 55.0323 298.677 56.3886C305.571 52.1641 316.969 51.0379 322.292 57.521V57.577C327.628 51.1499 339.064 52.2201 345.902 56.4446C336.617 55.1505 325.661 59.5555 322.292 68.8445V68.8507Z" fill="url(#paint3_linear_6843_67359)"/>
    <path d="M374.892 61.0497V60.9813C372.558 54.4983 364.97 51.4558 358.53 52.3891C363.305 49.4587 371.19 48.6561 374.892 53.173V53.2104C378.595 48.7556 386.523 49.4773 391.292 52.4264C384.852 51.5305 377.264 54.5791 374.892 61.0248V61.0497Z" fill="url(#paint4_linear_6843_67359)"/>
    <path d="M352.965 39.5971V39.5598C350.631 33.0705 343.043 30.0281 336.565 30.9614C341.347 28.0309 349.231 27.2283 352.965 31.7453V31.7826C356.668 27.3341 364.59 28.0496 369.365 31.0049C362.918 30.1028 355.337 33.1514 352.965 39.5971Z" fill="url(#paint5_linear_6843_67359)"/>
    <path d="M419.498 64.7579C417.883 60.2596 412.623 58.1443 408.145 58.7975C411.456 56.7693 416.918 56.2217 419.498 59.3388C422.072 56.228 427.559 56.7693 430.852 58.7975C426.38 58.1754 421.119 60.2908 419.498 64.7579Z" fill="url(#paint6_linear_6843_67359)"/>
    <path d="M499.17 269.852C508.966 265.829 513.362 267.809 512.363 275.787C511.797 278.263 510.771 279.81 509.293 280.427C505.443 284.716 503.407 288.155 503.185 290.741C502.852 294.619 499.554 299.015 491.293 296.501C485.785 294.825 482.001 297.628 479.947 304.915C473.746 312.443 462.844 315.451 447.236 313.94C431.629 312.429 432.625 305.847 450.217 294.194C455 292.469 458.649 291.402 461.17 290.994C463.692 290.585 464.928 288.07 464.877 283.449C464.877 280.556 467.167 278.444 471.749 277.111C476.331 275.778 478.256 273.661 477.521 270.762C480.565 266.662 484.196 266.078 488.415 269.007C492.633 271.936 496.22 272.219 499.17 269.852Z" fill="url(#paint7_linear_6843_67359)"/>
    <path d="M499.627 273.996L485.151 282.832C485.888 279.292 486.77 276.42 487.795 274.221C489.316 270.966 484.62 279.648 484.557 283.194L472.491 290.561L472.524 290.52C472.191 285.778 472.323 282.468 472.926 280.589C472.119 281.576 471.262 288.646 471.726 291.01L460.632 297.787L460.734 297.672C460.734 297.672 460.164 293.758 460.668 291.784C460.167 292.332 459.835 296.446 459.978 298.185L450.83 303.793L451.99 304.855L461.448 298.731C464.002 300.102 467.508 300.318 469.202 300.176C466.071 299.913 463.783 299.254 462.338 298.201C462.107 298.374 461.855 298.519 461.589 298.64L488.221 281.393C488.161 281.453 488.107 281.513 488.053 281.579C491.999 282.089 495.54 281.872 498.68 280.926C498.428 280.468 494.257 282.254 488.749 281.05L499.627 273.996ZM487.232 295.075C484.071 295.157 479.957 293.487 474.887 290.064C474.68 290.281 474.458 290.481 474.221 290.67C479.016 294.131 484.152 295.494 487.232 295.075Z" fill="url(#paint8_linear_6843_67359)"/>
    <path d="M488.552 250.896C498.198 244.893 502.675 246.404 501.982 255.424C500.126 261.888 498.909 266.21 499.517 270.17C500.126 274.131 498.222 281.62 488.552 284.706C482.105 286.754 480.294 289.661 483.122 293.424C484.54 299.205 476.72 303.355 459.665 305.87C434.082 309.646 440.175 300.969 446.753 291.565C451.512 287.21 452.151 284.549 452.151 281.22C452.151 277.891 448.666 272.444 458.675 270.184C463.074 269.271 465.377 265.248 465.587 258.117C466.279 254.536 470.477 253.639 478.18 255.43C481.602 256.03 485.059 254.519 488.552 250.896Z" fill="url(#paint9_linear_6843_67359)"/>
    <path d="M492.944 255.686L482.317 268.027L482.296 267.98C481.145 265.534 480.899 262.811 481.592 260.224L481.616 260.139C480.917 262.133 479.574 264.511 481.799 268.622L472.803 279.093L472.743 279.019C470.944 276.693 470.045 273.635 470.045 269.845C469.631 271.022 469.622 276.427 472.191 279.789L464.212 289.092C463.709 288.376 462.449 286.349 462.449 284.111C462.182 285.661 462.15 287.737 463.619 289.783L451.844 303.473H453.712L465.106 289.61C470.617 291.763 473.709 290.861 475.241 290.23C472.254 290.899 469.085 290.441 465.733 288.859L474.386 278.317C474.341 278.399 474.29 278.481 474.236 278.569C479.996 280.415 485.978 280.631 488.74 279.318C485.781 280.338 481.085 279.83 474.647 277.796L474.779 277.837L484.416 266.074L484.362 266.214C488.599 266.453 491.981 265.221 494.509 262.517C494.11 262.161 491.406 265.753 484.872 265.534L492.944 255.686Z" fill="url(#paint10_linear_6843_67359)"/>
    <path d="M455.68 251.299C451.956 246.566 448.622 247.046 445.68 252.742C444.253 257.662 446.508 260.791 439.137 263.026C434.226 264.518 433.482 267.639 436.907 272.392C438.34 275.381 437.284 277.293 433.737 278.126C430.19 278.96 430.616 282.27 435.015 288.06C436.541 291.233 436.541 293.355 435.015 294.422C432.73 296.024 428.334 300.826 433.737 310.161C439.14 319.497 451.866 312.246 453.773 307.858C455.68 303.47 451.866 297.423 453.773 294.419C455.68 291.416 466.804 290.385 463.833 281.387C461.359 277.707 457.917 276.643 461.374 270.373C464.831 264.104 465.71 266.624 461.374 260.448C459.482 258.677 457.584 255.627 455.68 251.299Z" fill="url(#paint11_linear_6843_67359)"/>
    <path d="M450.613 259.461L447.209 275.068C444.991 272.09 443.392 269.49 442.412 267.272C440.97 263.981 444.364 273.162 447.06 275.71L444.235 288.723V288.671C440.334 285.534 437.872 283.107 436.844 281.39C437.036 282.61 441.893 288.164 444.067 289.535L441.458 301.506L441.443 301.358C441.443 301.358 438.01 298.961 436.844 297.244C436.919 297.96 439.842 301.07 441.302 302.216L439.15 312.089H440.79L442.736 301.643C445.611 300.966 448.25 298.846 449.332 297.647C446.916 299.488 444.79 300.502 442.955 300.694C442.925 300.963 442.859 301.229 442.763 301.487L448.259 272.068C448.259 272.148 448.274 272.23 448.286 272.31C451.47 270.116 453.806 267.669 455.293 264.973C454.763 264.814 453.194 268.772 448.37 271.481L450.613 259.461ZM458.145 282.38C455.974 284.483 451.776 285.964 445.551 286.82C445.572 287.108 445.572 287.393 445.551 287.681C451.602 287.031 456.292 284.67 458.145 282.38Z" fill="url(#paint12_linear_6843_67359)"/>
    <path d="M49.4343 339.641C51.1174 325.866 46.7822 318.441 36.4346 317.381C50.4441 315.954 59.7181 325.065 59.869 339.641C56.9672 339.746 53.491 339.746 49.4343 339.641Z" fill="url(#paint13_linear_6843_67359)"/>
    <path d="M56.2368 339.722C58.9702 325.81 55.61 315.546 46.1445 308.928C58.2274 313.003 66.9093 319.124 69.7298 339.722C65.2379 340.013 60.7287 340.013 56.2368 339.722Z" fill="url(#paint14_linear_6843_67359)"/>
    <path d="M71.8755 339.937C70.6626 326.726 75.1022 319.16 85.1828 317.231C75.8335 316.983 65.3988 316.313 57.9355 339.937C64.2613 339.72 68.9099 339.72 71.8755 339.937Z" fill="url(#paint15_linear_6843_67359)"/>
    <path d="M75.1053 338.364C74.1142 334.42 71.2237 331.669 66.4277 330.105C60.9533 328.556 57.9507 326.734 61.3781 325.407C64.2686 325.206 70.4391 323.234 75.1053 335.014C75.4238 336.114 75.4238 337.265 75.1053 338.364Z" fill="url(#paint16_linear_6843_67359)"/>
    <path d="M75.3495 338.987C72.4648 329.571 69.1908 322.689 65.5216 318.337C62.8316 315.379 63.0203 311.141 65.5216 310.181C68.0818 309.954 72.8011 309.567 76.3405 325.797C76.5706 326.912 77.8212 333.447 76.3405 337.67C76.1694 338.186 75.8273 338.646 75.3495 338.987Z" fill="url(#paint17_linear_6843_67359)"/>
    <path d="M76.0145 336.86C77.3182 332.647 77.1472 327.139 75.5131 320.34C73.0119 313.763 68.7468 305.674 76.5278 305.488C79.6838 305.865 83.4946 308.761 82.0552 323.19C81.1762 329.013 79.6484 332.482 78.0497 336.834C77.4126 337.118 76.6634 337.128 76.0145 336.86Z" fill="url(#paint18_linear_6843_67359)"/>
    <path d="M77.5158 338.495C76.9908 326.581 79.4802 318.027 84.99 312.839C86.4766 311.109 92.1338 309.483 92.1161 314.904C91.5262 317.237 90.2579 322.229 82.9725 329.838C80.5716 332.585 78.9965 336.596 78.9788 337.54C78.9847 338.18 78.501 338.495 77.5158 338.495Z" fill="url(#paint19_linear_6843_67359)"/>
    <path d="M49.2031 340.068C54.6539 339.18 57.6624 338.426 58.2228 337.801C59.0664 336.872 66.4816 332.877 71.1124 336.253C72.1211 335.117 75.3479 334.239 77.2003 336.253C78.0438 333.073 83.3176 331.034 85.6124 331.364C88.1962 331.188 95.8237 331.261 96.3959 340.078C94.3135 340.114 78.5865 340.109 49.2031 340.068Z" fill="url(#paint20_linear_6843_67359)"/>
    <path d="M155.196 330.755V291.07H168.389V270.602H155.196V172.215H133.483V270.602H103.147L101.325 270.481L99.7597 270.132L98.4026 269.585L97.2249 268.833L96.0907 267.753L95.2523 266.638L94.6707 265.489L94.3265 264.292L94.2102 263.017L94.3072 261.558L94.7288 258.137L107.82 172.215H86.315L71.7701 265.509L71.5375 267.593L71.4551 269.667L71.5811 272.483L71.9349 274.969L72.4923 277.155L73.2338 279.084L74.1595 280.785L75.7541 283.054L77.4262 284.992L79.171 286.626L80.9982 287.987L82.9126 289.088L84.9288 289.945L87.0517 290.561L89.3102 290.939L91.719 291.07H133.483V330.755H155.196Z" fill="url(#paint21_linear_6843_67359)"/>
    <path d="M311.852 298.514H332.649L333.351 300.336L334.185 301.844L335.145 303.07L336.235 304.059L337.461 304.829L338.848 305.391L340.418 305.74L342.206 305.862H376.443L378.954 305.736L380.989 305.377L382.628 304.839L383.936 304.136L384.969 303.288L385.763 302.285L386.345 301.112L386.709 299.73L386.839 298.092V263.225L386.699 261.175L386.311 259.464L385.705 258.044L384.891 256.866L383.864 255.892L382.599 255.102L381.048 254.506L379.157 254.123L376.86 253.983H332.542V233.297H375.707L378.396 233.161L380.568 232.793L382.313 232.236L383.694 231.518L384.784 230.651L385.618 229.633L386.219 228.446L386.597 227.059L386.733 225.416V197.378L386.612 195.265L386.272 193.482L385.739 191.979L385.036 190.719L384.159 189.658L383.103 188.785L381.838 188.078L380.34 187.549L378.556 187.21L376.443 187.084H342.836L341.038 187.225L339.468 187.617L338.087 188.252L336.865 189.129L335.789 190.268L334.839 191.708L334.035 193.496L333.385 195.697H312.38L312.22 193.36L312.167 191.499L312.302 189.023L312.695 186.628L313.344 184.302L314.26 182.024L315.453 179.785L316.936 177.575L318.739 175.389L320.886 173.223L322.747 171.662L324.744 170.305L326.876 169.146L329.169 168.182L331.631 167.421L334.277 166.864L337.132 166.515L340.209 166.398H379.594L383.277 166.529L386.631 166.917L389.684 167.537L392.466 168.376L395.001 169.418L397.308 170.659L399.417 172.103L401.331 173.751L403.037 175.583L404.51 177.541L405.756 179.625L406.788 181.845L407.598 184.22L408.194 186.764L408.557 189.498L408.683 192.444V228.358L408.562 230.69L408.204 233.074L407.593 235.522L406.711 238.047L405.543 240.664L404.06 243.378L405.644 246.286L406.856 248.937L407.743 251.356L408.339 253.566L408.678 255.587L408.785 257.448V300.613L408.669 303.414L408.315 306.022L407.738 308.459L406.953 310.737L405.955 312.875L404.743 314.891L403.313 316.786L401.646 318.57L399.426 320.542L397.221 322.2L395.021 323.562L392.815 324.652L390.6 325.491L388.366 326.082L386.103 326.436L383.791 326.552H341.678L338.222 326.426L335.048 326.058L332.13 325.466L329.445 324.667L326.968 323.663L324.69 322.461L322.587 321.061L320.648 319.461L318.865 317.644L317.227 315.603L315.739 313.321L314.769 311.508L313.911 309.467L313.18 307.175L312.583 304.606L312.138 301.727L311.852 298.514Z" fill="url(#paint22_linear_6843_67359)"/>
    <path d="M286.155 226.039H232.018L230.622 226.155L229.527 226.47L228.674 226.955L228.015 227.605L227.53 228.443L227.215 229.519L227.099 230.886L227.215 232.253L227.53 233.328L228.015 234.167L228.674 234.816L229.527 235.301L230.622 235.616L232.018 235.732H286.155L287.551 235.616L288.647 235.301L289.5 234.816L290.159 234.167L290.643 233.328L290.958 232.253L291.075 230.886L290.958 229.519L290.643 228.443L290.159 227.605L289.5 226.95L288.647 226.47L287.551 226.155L286.155 226.039Z" fill="white"/>
    <path d="M286.13 250.756H246.581L245.176 250.872L244.076 251.187L243.218 251.672L242.559 252.321L242.069 253.165L241.754 254.236L241.638 255.603L241.754 256.969L242.069 258.04L242.559 258.884L243.218 259.533L244.076 260.018L245.176 260.333L246.581 260.449H286.13L287.536 260.333L288.636 260.018L289.494 259.533L290.153 258.884L290.642 258.04L290.957 256.969L291.074 255.603L290.957 254.236L290.642 253.165L290.153 252.321L289.494 251.672L288.636 251.187L287.536 250.872L286.13 250.756Z" fill="white"/>
    <path d="M173.784 245.667L173.896 249.53L174.201 253.301L174.7 256.994L175.388 260.609L176.271 264.157L177.637 268.538L179.261 272.76L181.141 276.836L183.279 280.771L185.673 284.566L188.281 288.172L191.106 291.599L194.155 294.846L197.402 297.895L200.829 300.72L204.435 303.328L208.23 305.722L212.165 307.86L216.241 309.74L220.463 311.364L224.844 312.73L228.392 313.613L232.007 314.301L235.7 314.8L239.471 315.105L243.334 315.217L247.197 315.105L250.968 314.8L254.661 314.301L258.276 313.613L261.824 312.73L266.205 311.364L270.427 309.74L274.503 307.86L278.438 305.722L282.233 303.328L285.839 300.72L289.266 297.895L292.513 294.846L295.562 291.599L298.387 288.172L300.995 284.566L303.389 280.771L305.527 276.836L307.407 272.76L309.031 268.538L310.397 264.157L311.28 260.609L311.968 256.994L312.467 253.301L312.772 249.53L312.884 245.667L312.772 241.804L312.467 238.033L311.968 234.34L311.28 230.725L310.397 227.177L309.031 222.796L307.407 218.574L305.527 214.498L303.389 210.563L300.995 206.768L298.387 203.162L295.562 199.735L292.513 196.488L289.266 193.439L285.839 190.614L282.233 188.006L278.438 185.612L274.503 183.474L270.427 181.594L266.205 179.97L261.824 178.604L258.276 177.721L254.661 177.033L250.968 176.534L247.197 176.229L243.334 176.117L239.471 176.229L235.7 176.534L232.007 177.033L228.392 177.721L224.844 178.604L220.463 179.97L216.241 181.594L212.165 183.474L208.23 185.612L204.435 188.006L200.829 190.614L197.402 193.439L194.155 196.488L191.106 199.735L188.281 203.162L185.673 206.768L183.279 210.563L181.141 214.498L179.261 218.574L177.637 222.796L176.271 227.177L175.388 230.725L174.7 234.34L174.201 238.033L173.896 241.804L173.784 245.667Z" fill="url(#paint23_linear_6843_67359)"/>
    <path d="M192.991 221.57L193.408 222.481L194.043 223.29L194.925 224.008L195.933 224.565L197.135 225.021L198.565 225.365L200.023 225.559L201.633 225.627L203.402 225.549L205.161 225.341L206.998 224.982L208.927 224.468L210.807 223.814L212.533 223.077L214.103 222.263L215.61 221.332L216.904 220.378L218.005 219.399L218.993 218.308L219.735 217.256L220.258 216.229L220.583 215.143L220.656 214.121L220.486 213.127L220.069 212.216L219.434 211.406L218.552 210.689L217.549 210.132L216.342 209.676L214.912 209.332L213.454 209.138L211.845 209.07L210.075 209.148L208.316 209.356L206.479 209.715L204.555 210.229L202.67 210.883L200.949 211.62L199.374 212.434L197.867 213.364L196.573 214.319L195.472 215.298L194.484 216.389L193.742 217.441L193.224 218.468L192.894 219.554L192.826 220.576L192.991 221.57Z" fill="#AFBFFF"/>
    <path d="M241.638 248.091L241.783 250.19L242.185 252.162L242.84 254.033L243.727 255.807L244.817 257.421L246.111 258.885L247.575 260.179L249.189 261.269L250.963 262.156L252.834 262.811L254.806 263.213L256.905 263.358L259.003 263.213L260.976 262.811L262.847 262.156L264.621 261.269L266.235 260.179L267.698 258.885L268.992 257.421L270.083 255.807L270.97 254.033L271.624 252.162L272.026 250.19L272.172 248.091L272.026 245.993L271.624 244.02L270.97 242.149L270.083 240.375L268.992 238.761L267.698 237.298L266.235 236.004L264.621 234.913L262.847 234.026L260.976 233.372L259.003 232.97L256.905 232.824L254.806 232.97L252.834 233.372L250.963 234.026L249.189 234.913L247.575 236.004L246.111 237.298L244.817 238.761L243.727 240.375L242.84 242.149L242.185 244.02L241.783 245.993L241.638 248.091Z" fill="#B2C1FF"/>
    <path d="M283.864 209.952L283.477 210.446L283.225 211.028L283.108 211.711L283.186 212.792L283.564 214.004L284.204 215.172L285.139 216.335L286.259 217.319L287.398 218.007L288.59 218.439L289.666 218.56L290.359 218.477L290.95 218.249L291.459 217.881L291.847 217.387L292.099 216.805L292.215 216.122L292.138 215.041L291.76 213.829L291.12 212.661L290.185 211.498L289.065 210.514L287.926 209.826L286.729 209.395L285.658 209.273L284.965 209.361L284.373 209.584L283.864 209.952Z" fill="#B2C1FF"/>
    <path d="M184.447 262.63L184.593 264.176L184.98 265.596L185.606 266.91L186.449 268.102L187.457 269.11L188.649 269.953L189.963 270.579L191.383 270.966L192.929 271.112L194.475 270.966L195.895 270.579L197.209 269.953L198.401 269.11L199.409 268.102L200.252 266.91L200.877 265.596L201.265 264.176L201.411 262.63L201.265 261.084L200.877 259.664L200.252 258.35L199.409 257.158L198.401 256.15L197.209 255.307L195.895 254.682L194.475 254.294L192.929 254.148L191.383 254.294L189.963 254.682L188.649 255.307L187.457 256.15L186.449 257.158L185.606 258.35L184.98 259.664L184.593 261.084L184.447 262.63Z" fill="#B2C1FF"/>
    <path d="M240.185 282.743L240.277 283.718L240.519 284.609L240.912 285.433L241.445 286.185L242.075 286.815L242.826 287.348L243.65 287.74L244.542 287.983L245.516 288.075L246.49 287.983L247.382 287.74L248.206 287.348L248.957 286.815L249.587 286.185L250.12 285.433L250.513 284.609L250.755 283.718L250.847 282.743L250.755 281.769L250.513 280.877L250.12 280.054L249.587 279.302L248.957 278.672L248.206 278.139L247.382 277.747L246.49 277.504L245.516 277.412L244.542 277.504L243.65 277.747L242.826 278.139L242.075 278.672L241.445 279.302L240.912 280.054L240.519 280.877L240.277 281.769L240.185 282.743Z" fill="#B2C1FF"/>
    <path d="M195.633 338.232L198.628 339.279L200.436 340.113L201.468 340.757L202.069 341.286L202.37 341.732L202.505 342.226L202.447 342.686L202.195 343.147L201.585 343.772L200.669 344.431L198.551 345.643L196.961 346.641L195.899 347.523L195.245 348.304L194.785 349.191L194.605 350.015L194.668 350.809L194.93 351.585L195.357 352.375L195.967 353.179L197.034 354.309L198.269 355.438L199.2 356.102L200.795 356.945L203.305 358.007L205.845 358.908L209.01 359.868L212.897 360.891L216.803 361.768L221.233 362.601L226.24 363.377L231.246 363.988L236.67 364.448L242.524 364.758L248.37 364.855L254.505 364.715L260.942 364.322L265.73 363.857L270.616 363.212L275.598 362.383L280.687 361.361L285.471 360.202L289.581 359.034L293.085 357.871L296.051 356.718L299.109 355.317L301.63 353.96L303.67 352.646L305.299 351.381L306.869 349.879L308.066 348.449L308.934 347.082L309.52 345.764L309.918 344.329L310.087 342.943L310.053 341.596L309.806 340.273L309.22 338.552L308.371 336.909L307.252 335.319L305.948 333.861L304.513 332.528L302.938 331.316L300.685 329.94L296.972 328.117L292.736 326.353L287.24 324.376L281.317 322.544L274.343 320.702L269.55 319.621L264.398 318.618L258.858 317.707L253.308 316.97L247.487 316.398L241.386 315.996L235.279 315.816L228.988 315.875L222.513 316.18L216.687 316.655L211.69 317.193L207.435 317.779L203.194 318.506L199.699 319.238L196.854 319.97L194.038 320.847L191.886 321.671L190.287 322.437L188.76 323.368L187.791 324.172L187.234 324.87L186.463 326.179L185.891 327.41L185.494 328.583L185.295 329.775L185.368 330.919L185.707 332.048L186.303 333.071L187.292 334.137L188.785 335.271L190.418 336.197L192.657 337.185L195.633 338.232Z" fill="url(#paint24_linear_6843_67359)" fill-opacity="0.4"/>
    <path fill-rule="evenodd" clip-rule="evenodd" d="M283.806 190.929L283.675 191.874L283.311 192.815L282.671 193.774L281.707 194.763L280.253 195.858L278.334 196.968L275.857 198.088L273.313 199.009L270.356 199.886L266.939 200.71L263.503 201.379L259.742 201.955L255.632 202.43L251.517 202.765L247.179 202.973L242.609 203.046L238.038 202.973L233.701 202.765L229.586 202.43L225.476 201.955L221.715 201.379L218.279 200.71L214.862 199.886L211.905 199.009L209.361 198.088L206.884 196.968L204.965 195.858L203.511 194.763L202.546 193.774L201.906 192.815L201.543 191.874L201.412 190.929L201.543 189.984L201.906 189.044L202.546 188.089L203.511 187.1L204.965 186.005L206.884 184.89L209.361 183.775L211.905 182.855L214.862 181.977L218.279 181.153L221.715 180.485L225.476 179.908L229.586 179.433L233.701 179.098L238.038 178.89L242.609 178.812L247.179 178.89L251.517 179.098L255.632 179.433L259.742 179.908L263.503 180.485L266.939 181.153L270.356 181.977L273.313 182.855L275.857 183.775L278.334 184.89L280.253 186.005L281.707 187.1L282.671 188.089L283.311 189.044L283.675 189.984L283.806 190.929Z" fill="#6785F6"/>
    <path d="M242.966 94.2037L244.309 94.4218L245.588 94.795L246.814 95.333L247.963 96.0212L249.01 96.8451L249.969 97.8193L250.74 98.8032L251.365 99.884L251.39 99.9373L251.317 99.5641L251.676 99.7725L251.991 100.151L252.247 100.761L252.47 101.808L252.567 103.16V103.291L252.97 103.267L253.338 103.393L253.692 103.674L254.109 104.27L254.419 105.089L254.55 105.981L254.487 106.902L254.191 107.765L253.634 108.492L253.139 108.85L252.48 109.098L251.612 109.228L251.084 110.285L249.252 112.965L248.176 114.264L246.95 115.359L246.965 120.007L237.78 120.138L237.819 114.676L236.791 113.673L235.924 112.461L235.008 110.886L234.266 109.228L234.45 109.219L233.399 109.18L232.618 108.976L232.037 108.642L231.557 108.162L231.223 107.619L231.024 106.989L230.941 106.001L231.087 105.041L231.431 104.173L231.901 103.577L232.294 103.325L232.696 103.262L233.147 103.378L233.156 102.632L233.428 101.115L233.927 99.6707L234.63 98.3185L235.541 97.0778L236.554 96.0891L237.669 95.3039L238.9 94.7126L240.213 94.32L241.56 94.1504L242.966 94.2037ZM251.593 100.989L251.598 101.067L251.646 101.609L251.816 102.128L251.593 100.989ZM251.39 99.9373L251.593 100.989V100.926L251.511 100.243L251.472 100.107L251.39 99.9373Z" fill="#EBB0B0"/>
    <path d="M252.64 104.197L253.222 103.523L253.765 102.675L254.259 101.619L254.802 99.9321L255.141 98.0274L255.238 96.0742L255.054 94.1403L254.763 92.8802L254.327 91.7267L253.745 90.6653L253.004 89.725L252.088 88.9398L250.968 88.3146L250.357 87.8203L249.432 87.4858L248.356 87.3162L246.965 87.2484L246.33 87.2774L245.923 87.355L245.302 87.5731L245.036 87.6312L244.711 87.6215L244.362 87.4616L243.843 87.0836L243.262 86.6474L242.457 86.153L241.522 85.7604L240.257 85.4793L239.641 85.4551L238.711 85.5472L236.656 86.0028L235.609 86.342L234.698 86.7298L233.898 87.1902L233.428 87.6215L232.497 88.4455L231.45 89.6668L230.51 91.0821L229.643 92.8075L228.983 94.6832L228.557 96.7866L228.47 98.2067L228.562 99.4377L228.804 100.509L229.405 102.055L230.21 103.514L232.066 106.543L232.822 105.894L233.423 105.07L234.383 103.165L234.862 102.2L235.405 101.333L236.743 99.9321L238.231 98.701L239.845 97.6493L241.58 96.7866L244.037 96.4861L245.913 96.4328L247.076 96.5734L248.104 96.9078L249.024 97.4409L249.819 98.1534L250.634 99.2051L251.477 100.678L252.64 104.197Z" fill="#131322"/>
    <path d="M237.99 116.26L239.517 117.297L241.14 118.276L241.979 118.601L242.793 118.727L243.418 118.63L244.14 118.286L245.556 117.248L246.801 116.26L248.754 116.449L251.202 116.885L253.751 117.534L256.611 118.47L259.495 119.638L262.519 121.111L265.48 122.842L268.417 124.897L268.369 130.349L268.238 134.789L268.01 138.928L267.724 142.335L267.351 145.543L266.929 148.306L266.43 150.957L265.887 153.448L264.647 158.523L263.256 164.295L262.601 165.604L260.997 168.473L258.86 172.132L256.596 175.816L254.619 178.748L253.776 179.79L253.339 180.168L251.26 181.113L249.317 181.787L247.489 182.213L245.628 182.47L243.738 182.582L241.819 182.543L238.882 182.315L235.576 181.942L235.101 181.758L234.137 181.162L231.82 179.417L229.237 177.279L226.998 175.336L225.718 174.168L225.447 173.795L224.914 172.854L223.649 170.324L222.219 167.266L220.93 164.348L220.072 162.269L219.083 159.361L218.162 155.978L217.842 154.311L217.702 152.939L217.469 146.983L217.217 139.96L216.999 132.608L216.868 125.657L218.085 124.068L219.35 122.73L220.658 121.635L222.073 120.675L223.513 119.875L224.986 119.231L227.259 118.465L229.533 117.903L233.972 117.098L236.09 116.711L237.99 116.26Z" fill="url(#paint25_linear_6843_67359)"/>
    <path d="M236.312 121.402H247.503L248.264 121.557L248.874 121.974L249.286 122.585L249.441 123.341V141.671L249.286 142.432L248.874 143.043L248.264 143.455L247.503 143.61H236.312L235.551 143.455L234.94 143.043L234.528 142.432L234.373 141.671V123.341L234.528 122.585L234.94 121.974L235.551 121.557L236.312 121.402Z" fill="url(#paint26_linear_6843_67359)"/>
    <path d="M229.729 141.143L230.578 138.904L231.518 136.995L232.541 135.371L233.641 134.009L234.397 133.617L234.751 133.529L234.964 133.602L234.983 133.815L234.857 134.106L234.557 134.494L235.788 134.208L236.655 134.169L237.649 134.339L238.274 134.6L238.899 135.056L239.534 135.749L240.024 136.549L240.465 137.702L240.838 139.302L240.484 140.252L239.908 141.391L239.19 142.51L238.279 143.639L237.227 144.652L236.011 145.515L235.129 145.966L234.179 146.286L233.161 146.484L232.09 146.305L231.251 145.893L230.602 145.234L230.108 144.294L229.802 142.966L229.729 141.143Z" fill="#EFBA9E"/>
    <path d="M215.318 125.871L216.646 124.437L217.872 123.438L219.016 122.794L220.092 122.44L221.139 122.348L222.171 122.498L223.228 122.905L224.323 123.608L225.481 124.669L225.995 125.348L226.485 126.399L226.921 127.95L227.338 130.432L227.614 133.689L227.716 137.154L227.687 141.109L227.532 145.166L227.27 149.411L226.916 153.672L226.489 157.825L226 161.887L225.481 165.551L224.449 166.656L223.455 167.485L222.496 168.076L221.556 168.459L220.213 168.74L218.938 168.735L217.707 168.454L216.539 167.94L215.473 167.238L214.489 166.336L213.646 165.289L212.967 164.15L212.444 162.9L211.387 157.743L210.689 152.988L210.331 148.597L210.277 144.545L210.505 140.804L210.99 137.348L211.726 134.149L212.696 131.183L213.893 128.43L215.318 125.871Z" fill="url(#paint27_linear_6843_67359)"/>
    <path d="M216.301 160.448L216.955 158.02L217.852 155.631L219.006 153.275L220.431 150.939L222.141 148.618L224.158 146.311L226.508 144.004L229.222 141.701L230.109 141.449L230.972 141.348L231.82 141.396L232.639 141.595L233.386 141.963L234.074 142.501L234.631 143.17L235.082 144.047L235.416 145.177L235.504 145.87L235.407 147.362L235.135 149.054L234.631 151.269L233.972 153.576L233.085 156.13L232.024 158.67L230.749 161.18L229.271 163.55L227.613 165.649L226.373 166.899L225.054 167.937L223.663 168.77L221.691 169.051L220.13 169.037L218.899 168.79L217.934 168.348L217.174 167.723L216.592 166.899L216.18 165.828L215.957 164.457L215.976 162.692L216.301 160.448Z" fill="url(#paint28_linear_6843_67359)"/>
    <path d="M254.783 141.143L253.935 138.904L252.995 136.995L251.972 135.371L250.877 134.009L250.121 133.617L249.762 133.529L249.549 133.602L249.53 133.815L249.66 134.106L249.961 134.494L248.73 134.208L247.862 134.169L246.869 134.339L246.239 134.6L245.613 135.056L244.979 135.749L244.494 136.549L244.048 137.702L243.675 139.302L244.033 140.252L244.605 141.391L245.328 142.51L246.234 143.639L247.29 144.652L248.502 145.515L249.389 145.966L250.334 146.286L251.357 146.484L252.428 146.305L253.262 145.893L253.916 145.234L254.405 144.294L254.716 142.966L254.783 141.143Z" fill="#EFBA9E"/>
    <path d="M269.203 125.871L267.875 124.437L266.644 123.438L265.505 122.794L264.425 122.44L263.383 122.348L262.345 122.498L261.294 122.905L260.193 123.608L259.035 124.669L258.521 125.348L258.037 126.399L257.596 127.95L257.184 130.432L256.907 133.689L256.801 137.154L256.835 141.109L256.985 145.166L257.252 149.411L257.605 153.672L258.027 157.825L258.521 161.887L259.035 165.551L260.067 166.656L261.061 167.485L262.025 168.076L262.961 168.459L264.308 168.74L265.578 168.735L266.809 168.454L267.977 167.94L269.048 167.238L270.032 166.336L270.871 165.289L271.549 164.15L272.073 162.9L273.134 157.743L273.827 152.988L274.191 148.597L274.244 144.545L274.016 140.804L273.527 137.348L272.79 134.149L271.821 131.183L270.623 128.43L269.203 125.871Z" fill="url(#paint29_linear_6843_67359)"/>
    <path d="M268.212 160.448L267.563 158.02L266.661 155.631L265.508 153.275L264.088 150.939L262.377 148.618L260.356 146.311L258.005 144.004L255.291 141.701L254.409 141.449L253.546 141.348L252.693 141.396L251.874 141.595L251.128 141.963L250.44 142.501L249.882 143.17L249.436 144.047L249.102 145.177L249.01 145.87L249.112 147.362L249.383 149.054L249.882 151.269L250.541 153.576L251.428 156.13L252.495 158.67L253.764 161.18L255.243 163.55L256.9 165.649L258.146 166.899L259.459 167.937L260.85 168.77L262.828 169.051L264.388 169.037L265.614 168.79L266.579 168.348L267.34 167.723L267.926 166.899L268.338 165.828L268.556 164.457L268.537 162.692L268.212 160.448Z" fill="url(#paint30_linear_6843_67359)"/>
    <path d="M268.899 167.257L269.99 166.889L271.124 166.598L272.704 166.346L274.381 166.283L276.193 166.501L277.371 166.841L278.51 167.398L279.62 168.198L280.56 169.186L281.404 170.529L282.145 172.308L282.533 173.965L282.64 175.346L282.514 176.5L282.179 177.62L281.709 178.57L281.113 179.364L280.037 180.387L278.912 181.129L277.764 181.691L276.882 182.02L275.99 182.263L269.35 183.489L266.461 192.698L242.979 188.36L219.482 192.698L216.584 183.479L210.017 182.268L209.125 182.02L208.248 181.696L207.099 181.133L205.98 180.392L204.899 179.374L204.303 178.574L203.837 177.629L203.503 176.51L203.377 175.351L203.484 173.975L203.871 172.317L204.613 170.539L205.456 169.196L206.392 168.212L207.501 167.412L208.64 166.85L209.813 166.511L211.626 166.293L213.303 166.361L214.878 166.613L216.012 166.899L217.103 167.267L242.969 174.174L268.899 167.257Z" fill="url(#paint31_linear_6843_67359)"/>
    <path d="M217.243 185.807L214.413 185.991H211.776L209.348 185.923L208.282 185.913L207.744 185.908L206.508 185.971L205.141 186.214L204.56 186.451L204.206 186.752L203.799 187.518L203.542 188.414L203.411 189.354L203.382 190.261L203.474 191.758L203.566 192.379L203.707 192.81L204.119 193.746L204.424 194.235L204.792 194.642L205.165 194.86L205.587 194.947L206.358 194.884L206.707 194.792L207.371 194.623L209.062 194.211L211.316 193.702L214.83 192.989L215.92 192.791L219.313 191.87L217.243 185.807ZM268.701 185.807L271.541 185.991H274.197L276.635 185.923L277.71 185.913L278.248 185.908L279.494 185.971L280.866 186.219L281.447 186.456L281.806 186.757L282.218 187.527L282.475 188.424L282.606 189.369L282.635 190.28L282.538 191.787L282.451 192.408L282.31 192.839L281.898 193.779L281.588 194.274L281.219 194.681L280.841 194.904L280.42 194.986L279.639 194.928L279.295 194.831L278.622 194.662L276.92 194.25L274.657 193.741L271.124 193.023L270.024 192.82L266.612 191.899L268.701 185.807Z" fill="#333333"/>
    <path d="M289.253 101.718L292.01 99.5438L293.091 100.912L293.77 101.628L294.5 102.176L295.299 102.576L296.157 102.831L297.029 102.931L297.924 102.875L298.797 102.668L299.645 102.3L300.472 101.757L301.85 100.665L302.573 99.9875L303.127 99.248L303.534 98.4511L303.793 97.5901L303.9 96.7201L303.85 95.826L303.649 94.9552L303.282 94.1177L302.747 93.292L302.07 92.5801L301.337 92.0273L300.539 91.6278L299.68 91.3724L298.809 91.2726L297.913 91.3291L297.04 91.536L296.195 91.9081L295.367 92.4506L293.987 93.5389L291.823 90.7988L293.203 89.7105L294.571 88.8168L295.972 88.2096L297.435 87.8648L298.934 87.7824L300.393 87.9447L301.827 88.3722L303.169 89.0313L304.39 89.9397L305.503 91.1179L306.389 92.4736L306.99 93.8725L307.319 95.3286L307.399 96.8227L307.223 98.2791L306.787 99.7179L306.115 101.057L305.198 102.283L304.014 103.405L302.634 104.493L301.467 105.27L300.261 105.833L298.997 106.198L297.693 106.367L296.397 106.343L295.102 106.126L293.853 105.723L292.674 105.135L291.55 104.349L288.657 106.635L286.495 103.899L289.253 101.718ZM285.115 104.987L287.276 107.723L284.518 109.904L282.358 107.161L285.115 104.987Z" fill="url(#paint32_linear_6843_67359)"/>
    <path d="M270.544 94.178L271.151 91.7051L272.376 92.0041L273.429 92.1129L274.375 91.9697L275.253 91.5774L275.997 90.9723L276.561 90.1928L276.953 89.1948L277.255 87.9562L277.368 86.89L277.226 85.9382L276.844 85.0584L276.245 84.3054L275.472 83.7428L274.488 83.3544L273.432 83.2414L272.483 83.3872L271.611 83.7811L270.86 84.3846L270.298 85.1682L269.907 86.1662L269.606 87.3981L267.158 86.8042L267.46 85.5657L267.842 84.4489L268.373 83.4742L269.049 82.6267L269.866 81.909L270.771 81.3536L271.775 80.9532L272.834 80.7353L273.93 80.7101L275.088 80.8798L276.198 81.2601L277.158 81.7942L277.997 82.4752L278.704 83.2933L279.248 84.1988L279.643 85.2123L279.855 86.2801L279.879 87.383L279.702 88.5568L279.401 89.7887L279.081 90.7547L278.645 91.6149L278.087 92.3853L277.416 93.0648L276.669 93.6267L275.834 94.0827L274.943 94.4086L274.011 94.6008L273.025 94.6495L272.392 97.2465L269.941 96.6484L270.544 94.178ZM269.643 97.8844L272.089 98.485L271.486 100.955L269.036 100.357L269.643 97.8844Z" fill="url(#paint33_linear_6843_67359)"/>
  </g>
  <defs>
    <linearGradient id="paint0_linear_6843_67359" x1="0" y1="333.142" x2="520" y2="333.142" gradientUnits="userSpaceOnUse">
      <stop stop-color="#FAFBFF"/>
      <stop offset="1" stop-color="#DDE6FF"/>
    </linearGradient>
    <linearGradient id="paint1_linear_6843_67359" x1="415.914" y1="-19.1889" x2="417.509" y2="41.006" gradientUnits="userSpaceOnUse">
      <stop stop-color="#98BEFA" stop-opacity="0.57"/>
      <stop offset="1" stop-color="#98BEFA" stop-opacity="0"/>
    </linearGradient>
    <linearGradient id="paint2_linear_6843_67359" x1="60.9283" y1="-11.2719" x2="60.8463" y2="68.2354" gradientUnits="userSpaceOnUse">
      <stop stop-color="#98BEFA" stop-opacity="0.79"/>
      <stop offset="1" stop-color="#98BEFA" stop-opacity="0"/>
    </linearGradient>
    <linearGradient id="paint3_linear_6843_67359" x1="9854.11" y1="-14935.2" x2="9883.86" y2="-14935.5" gradientUnits="userSpaceOnUse">
      <stop stop-color="#98D6FA"/>
      <stop offset="1" stop-color="#47B0F1"/>
    </linearGradient>
    <linearGradient id="paint4_linear_6843_67359" x1="6753.99" y1="-10385.4" x2="6774.94" y2="-10385.6" gradientUnits="userSpaceOnUse">
      <stop stop-color="#98D6FA"/>
      <stop offset="1" stop-color="#47B0F1"/>
    </linearGradient>
    <linearGradient id="paint5_linear_6843_67359" x1="6753.99" y1="-10385.4" x2="6774.94" y2="-10385.6" gradientUnits="userSpaceOnUse">
      <stop stop-color="#98D6FA"/>
      <stop offset="1" stop-color="#47B0F1"/>
    </linearGradient>
    <linearGradient id="paint6_linear_6843_67359" x1="4606.56" y1="-7242.28" x2="4620.86" y2="-7242.44" gradientUnits="userSpaceOnUse">
      <stop stop-color="#98D6FA"/>
      <stop offset="1" stop-color="#47B0F1"/>
    </linearGradient>
    <linearGradient id="paint7_linear_6843_67359" x1="524.598" y1="285.603" x2="472.472" y2="284.726" gradientUnits="userSpaceOnUse">
      <stop stop-color="#98D6FA"/>
      <stop offset="1" stop-color="#47B0F1"/>
    </linearGradient>
    <linearGradient id="paint8_linear_6843_67359" x1="486.202" y1="288.732" x2="483.044" y2="286.193" gradientUnits="userSpaceOnUse">
      <stop offset="0.03" stop-color="#AFDEF9"/>
      <stop offset="1" stop-color="#7CC9F9"/>
    </linearGradient>
    <linearGradient id="paint9_linear_6843_67359" x1="496.474" y1="286.931" x2="463.801" y2="272.024" gradientUnits="userSpaceOnUse">
      <stop stop-color="#98D6FA"/>
      <stop offset="1" stop-color="#47B0F1"/>
    </linearGradient>
    <linearGradient id="paint10_linear_6843_67359" x1="486.538" y1="273.846" x2="483.232" y2="272.679" gradientUnits="userSpaceOnUse">
      <stop offset="0.03" stop-color="#AFDEF9"/>
      <stop offset="1" stop-color="#7CC9F9"/>
    </linearGradient>
    <linearGradient id="paint11_linear_6843_67359" x1="452.286" y1="307.285" x2="431.664" y2="279.409" gradientUnits="userSpaceOnUse">
      <stop stop-color="#98D6FA"/>
      <stop offset="1" stop-color="#47B0F1"/>
    </linearGradient>
    <linearGradient id="paint12_linear_6843_67359" x1="452.438" y1="278.348" x2="448.315" y2="279.036" gradientUnits="userSpaceOnUse">
      <stop offset="0.03" stop-color="#AFDEF9"/>
      <stop offset="1" stop-color="#7CC9F9"/>
    </linearGradient>
    <linearGradient id="paint13_linear_6843_67359" x1="4912.62" y1="-21128.1" x2="4902.28" y2="-21144.8" gradientUnits="userSpaceOnUse">
      <stop stop-color="#98D6FA"/>
      <stop offset="1" stop-color="#47B0F1"/>
    </linearGradient>
    <linearGradient id="paint14_linear_6843_67359" x1="4931.72" y1="-29060.6" x2="4945.91" y2="-29075.5" gradientUnits="userSpaceOnUse">
      <stop stop-color="#98D6FA"/>
      <stop offset="1" stop-color="#47B0F1"/>
    </linearGradient>
    <linearGradient id="paint15_linear_6843_67359" x1="5711.73" y1="-21395.7" x2="5735.1" y2="-21401.8" gradientUnits="userSpaceOnUse">
      <stop stop-color="#98D6FA"/>
      <stop offset="1" stop-color="#47B0F1"/>
    </linearGradient>
    <linearGradient id="paint16_linear_6843_67359" x1="3129.3" y1="-12413.2" x2="3132.69" y2="-12401.5" gradientUnits="userSpaceOnUse">
      <stop stop-color="#98D6FA"/>
      <stop offset="1" stop-color="#47B0F1"/>
    </linearGradient>
    <linearGradient id="paint17_linear_6843_67359" x1="2719.25" y1="-26971.1" x2="2719.77" y2="-26945.1" gradientUnits="userSpaceOnUse">
      <stop stop-color="#98D6FA"/>
      <stop offset="1" stop-color="#47B0F1"/>
    </linearGradient>
    <linearGradient id="paint18_linear_6843_67359" x1="2031.25" y1="-29484.6" x2="2031.41" y2="-29456.2" gradientUnits="userSpaceOnUse">
      <stop stop-color="#98D6FA"/>
      <stop offset="1" stop-color="#47B0F1"/>
    </linearGradient>
    <linearGradient id="paint19_linear_6843_67359" x1="2968.33" y1="-25534" x2="2969" y2="-25509.4" gradientUnits="userSpaceOnUse">
      <stop stop-color="#98D6FA"/>
      <stop offset="1" stop-color="#47B0F1"/>
    </linearGradient>
    <linearGradient id="paint20_linear_6843_67359" x1="9922.76" y1="-8279.34" x2="9976.09" y2="-8279.34" gradientUnits="userSpaceOnUse">
      <stop stop-color="#98D6FA"/>
      <stop offset="1" stop-color="#47B0F1"/>
    </linearGradient>
    <linearGradient id="paint21_linear_6843_67359" x1="110.529" y1="215.25" x2="110.529" y2="330.45" gradientUnits="userSpaceOnUse">
      <stop offset="0.05" stop-color="#9BA3FF"/>
      <stop offset="1" stop-color="#7698FF"/>
    </linearGradient>
    <linearGradient id="paint22_linear_6843_67359" x1="350.925" y1="209.872" x2="350.925" y2="326.245" gradientUnits="userSpaceOnUse">
      <stop offset="0.05" stop-color="#9BA3FF"/>
      <stop offset="1" stop-color="#7698FF"/>
    </linearGradient>
    <linearGradient id="paint23_linear_6843_67359" x1="388.11" y1="297.146" x2="243.334" y2="218.516" gradientUnits="userSpaceOnUse">
      <stop stop-color="#B9C6FF"/>
      <stop offset="1" stop-color="#809BFF"/>
    </linearGradient>
    <linearGradient id="paint24_linear_6843_67359" x1="310.087" y1="310.047" x2="185.295" y2="310.047" gradientUnits="userSpaceOnUse">
      <stop stop-color="#B5CDFD"/>
      <stop offset="1" stop-color="#C7D5FE"/>
    </linearGradient>
    <linearGradient id="paint25_linear_6843_67359" x1="217.319" y1="149.444" x2="268.392" y2="149.444" gradientUnits="userSpaceOnUse">
      <stop stop-color="#81D9FF"/>
      <stop offset="1" stop-color="#27A6DD"/>
    </linearGradient>
    <linearGradient id="paint26_linear_6843_67359" x1="234.686" y1="140.725" x2="245.212" y2="132.301" gradientUnits="userSpaceOnUse">
      <stop stop-color="#4168CF"/>
      <stop offset="1" stop-color="#6E96FF"/>
    </linearGradient>
    <linearGradient id="paint27_linear_6843_67359" x1="210.43" y1="145.56" x2="227.707" y2="145.56" gradientUnits="userSpaceOnUse">
      <stop stop-color="#81D9FF"/>
      <stop offset="1" stop-color="#27A6DD"/>
    </linearGradient>
    <linearGradient id="paint28_linear_6843_67359" x1="216.128" y1="155.209" x2="235.494" y2="155.209" gradientUnits="userSpaceOnUse">
      <stop stop-color="#81D9FF"/>
      <stop offset="1" stop-color="#27A6DD"/>
    </linearGradient>
    <linearGradient id="paint29_linear_6843_67359" x1="256.953" y1="145.56" x2="274.235" y2="145.56" gradientUnits="userSpaceOnUse">
      <stop stop-color="#81D9FF"/>
      <stop offset="1" stop-color="#27A6DD"/>
    </linearGradient>
    <linearGradient id="paint30_linear_6843_67359" x1="249.181" y1="155.209" x2="268.547" y2="155.209" gradientUnits="userSpaceOnUse">
      <stop stop-color="#81D9FF"/>
      <stop offset="1" stop-color="#27A6DD"/>
    </linearGradient>
    <linearGradient id="paint31_linear_6843_67359" x1="237.569" y1="199.734" x2="237.569" y2="131.35" gradientUnits="userSpaceOnUse">
      <stop stop-color="#00415D"/>
      <stop offset="0.3" stop-color="#001A25"/>
      <stop offset="0.5" stop-color="#001A25"/>
      <stop offset="0.7" stop-color="#001A25"/>
      <stop offset="1" stop-color="#001A25"/>
    </linearGradient>
    <linearGradient id="paint32_linear_6843_67359" x1="287.865" y1="110.853" x2="286.118" y2="97.2663" gradientUnits="userSpaceOnUse">
      <stop stop-color="#98D6FA"/>
      <stop offset="1" stop-color="#47B0F1"/>
    </linearGradient>
    <linearGradient id="paint33_linear_6843_67359" x1="270.287" y1="99.0811" x2="271.097" y2="87.2626" gradientUnits="userSpaceOnUse">
      <stop stop-color="#98D6FA"/>
      <stop offset="1" stop-color="#47B0F1"/>
    </linearGradient>
    <clipPath id="clip0_6843_67359">
      <rect width="520" height="430" fill="white"/>
    </clipPath>
  </defs>
</svg>