<svg width="520" height="430" viewBox="0 0 520 430" fill="none" xmlns="http://www.w3.org/2000/svg">
  <g clip-path="url(#clip0_6717_37732)">
    <g clip-path="url(#clip1_6717_37732)">
      <path opacity="0.8" d="M264.012 256.645C328.129 256.645 385.938 264.092 426.286 275.952C465.803 276.435 497.543 293.191 497.543 313.877C497.543 330.564 476.758 344.769 447.952 349.802C441.594 352.423 434.551 354.836 426.824 357.112C427.019 358.56 427.068 360.008 427.068 361.387C427.068 397.174 371.901 426.204 303.823 426.204C242.884 426.204 192.217 402.898 182.338 372.351C100.516 363.593 42.708 341.942 42.708 316.635C42.708 283.537 141.696 256.645 264.012 256.645Z" fill="url(#paint0_linear_6717_37732)"/>
      <path fill-rule="evenodd" clip-rule="evenodd" d="M459.386 35.7794L459.226 37.7196L458.78 39.5402L458.048 41.2793L457.063 42.8988L455.846 44.3879L454.381 45.752L452.752 46.9313L450.935 47.9312L448.914 48.7627L446.811 49.3551L444.565 49.7247L442.17 49.8605H388.912L386.517 49.5888L384.249 49.116L382.107 48.4421L380.043 47.5617L378.182 46.5237L376.497 45.3226L374.983 43.9368L373.722 42.4314L372.698 40.7956L371.933 39.0348L371.465 37.1653L371.294 35.1545L371.426 33.3937L371.806 31.7198L372.423 30.1003L373.248 28.5786L374.278 27.1493L375.506 25.8124L376.882 24.6222L378.413 23.5624L380.103 22.6386L379.553 21.231L379.371 20.5245L379.305 19.8234L379.498 18.0735L380.026 16.4268L380.901 14.8616L382.058 13.4704L383.473 12.2584L385.174 11.2259L387.024 10.465L389.056 9.99221L391.313 9.80743L393.367 9.98134L395.216 10.4378L396.956 11.1335L398.52 11.9976L400.265 9.69331L402.275 7.57381L404.571 5.63908L407.076 3.95979L409.796 2.53048L412.758 1.36205L415.048 0.693583L417.438 0.209903L419.932 -0.0944344L422.547 -0.203125L425.267 -0.0835628L427.855 0.247949L430.327 0.775107L432.694 1.49791L435.012 2.43267L437.154 3.51415L439.136 4.74781L440.969 6.13364L442.671 7.69337L444.157 9.35093L445.445 11.1172L446.536 12.9975L447.411 14.9812L448.044 17.03L448.43 19.1604L448.573 21.3886V22.6386L450.665 23.4864L452.542 24.5081L454.227 25.6982L455.741 27.0841L456.991 28.584L458.004 30.2198L458.764 31.9752L459.221 33.8176L459.386 35.7794Z" fill="url(#paint1_linear_6717_37732)"/>
      <path fill-rule="evenodd" clip-rule="evenodd" d="M104.513 13.8438L107.899 14.0231L111.137 14.5339L114.242 15.3709L117.242 16.5176L120.061 17.9306L122.715 19.6262L125.182 21.5663L127.423 23.7293L129.443 26.1205L131.216 28.6965L132.708 31.441L133.936 34.3757H154.219L155.975 34.5388L157.589 34.9681L159.081 35.6746L160.435 36.6202L161.58 37.7506L162.538 39.0875L163.248 40.5603L163.689 42.1472L163.854 43.8863V67.1356L163.689 68.8692L163.248 70.4615L162.538 71.9343L161.58 73.2658L160.435 74.4016L159.081 75.3473L157.589 76.0483L155.975 76.4831L154.219 76.6461H56.0349L54.2731 76.4831L52.6654 76.0483L51.1679 75.3473L49.8189 74.4016L48.6738 73.2658L47.7158 71.9343L47 70.4615L46.5595 68.8692L46.3999 67.1356V60.3912L45.3207 58.4891L44.4178 56.4946L43.691 54.3914L43.1625 52.2284L42.8432 49.9894L42.7275 47.6579L42.8652 45.1526L43.2341 42.7559L43.8287 40.4625L44.649 38.256L45.6951 36.1311L46.9119 34.1475L48.3104 32.2997L49.896 30.5824L51.6358 29.0172L53.5078 27.6368L55.5174 26.4303L57.6702 25.4032L59.9055 24.5934L62.2289 24.001L64.657 23.6369L67.1951 23.5065L69.3754 23.5989L71.4786 23.8706L73.5157 24.3163L75.5033 24.9304L77.4028 25.6966L79.2142 26.6151L81.2403 24.1315L83.4866 21.887L85.9807 19.8653L88.6675 18.1045L91.5305 16.6317L94.5862 15.4361L96.9482 14.7513L99.3873 14.2568L101.903 13.9524L104.513 13.8438Z" fill="url(#paint2_linear_6717_37732)"/>
      <path d="M334.17 55.525V55.4846C331.986 49.4178 324.869 46.5421 318.829 47.4238C323.308 44.6776 330.712 43.9455 334.17 48.1599V48.1963C337.637 44.0183 345.065 44.714 349.507 47.4602C343.475 46.619 336.358 49.4825 334.17 55.521V55.525Z" fill="url(#paint3_linear_6717_37732)"/>
      <path d="M368.34 50.4543V50.4099C366.824 46.1955 361.894 44.2177 357.711 44.8244C360.813 42.9194 365.935 42.3976 368.34 45.334V45.3582C370.745 42.4624 375.896 42.9315 378.993 44.8486C374.81 44.2662 369.88 46.248 368.34 50.4382V50.4543Z" fill="url(#paint4_linear_6717_37732)"/>
      <path d="M354.097 36.5085V36.4842C352.581 32.2658 347.651 30.288 343.443 30.8947C346.549 28.9897 351.671 28.468 354.097 31.4043V31.4286C356.502 28.5367 361.648 29.0018 364.75 30.923C360.563 30.3365 355.637 32.3183 354.097 36.5085Z" fill="url(#paint5_linear_6717_37732)"/>
      <path d="M397.316 52.8651C396.267 49.9409 392.85 48.5658 389.94 48.9905C392.092 47.672 395.64 47.316 397.316 49.3424C398.988 47.3201 402.552 47.672 404.691 48.9905C401.786 48.586 398.369 49.9612 397.316 52.8651Z" fill="url(#paint6_linear_6717_37732)"/>
      <path d="M479.319 258.327C487.888 254.805 491.732 256.538 490.859 263.521C490.363 265.689 489.466 267.043 488.173 267.583C484.806 271.337 483.025 274.347 482.831 276.611C482.54 280.005 479.655 283.853 472.429 281.652C467.611 280.185 464.301 282.639 462.505 289.017C457.081 295.606 447.545 298.24 433.894 296.917C420.242 295.594 421.113 289.833 436.501 279.633C440.684 278.123 443.876 277.19 446.081 276.832C448.287 276.474 449.368 274.273 449.323 270.228C449.323 267.696 451.327 265.847 455.334 264.681C459.342 263.514 461.026 261.661 460.383 259.124C463.045 255.535 466.221 255.024 469.911 257.587C473.602 260.151 476.738 260.398 479.319 258.327Z" fill="url(#paint7_linear_6717_37732)"/>
      <path d="M479.722 261.954L467.06 269.689C467.705 266.59 468.476 264.076 469.373 262.151C470.703 259.302 466.595 266.902 466.54 270.005L455.987 276.453L456.015 276.417C455.724 272.267 455.84 269.369 456.367 267.725C455.661 268.589 454.911 274.778 455.318 276.847L445.614 282.778L445.703 282.678C445.703 282.678 445.205 279.252 445.645 277.524C445.207 278.004 444.916 281.605 445.042 283.126L437.04 288.035L438.055 288.964L446.327 283.604C448.562 284.804 451.628 284.994 453.109 284.869C450.371 284.639 448.37 284.063 447.106 283.141C446.904 283.292 446.684 283.419 446.45 283.525L469.745 268.428C469.693 268.481 469.646 268.534 469.598 268.592C473.05 269.038 476.147 268.848 478.893 268.02C478.673 267.619 475.025 269.182 470.207 268.128L479.722 261.954ZM468.88 280.404C466.115 280.476 462.517 279.014 458.082 276.019C457.901 276.208 457.707 276.384 457.5 276.549C461.694 279.579 466.186 280.772 468.88 280.404Z" fill="url(#paint8_linear_6717_37732)"/>
      <path d="M470.034 241.735C478.472 236.48 482.387 237.803 481.782 245.698C480.158 251.356 479.093 255.139 479.626 258.605C480.158 262.072 478.493 268.627 470.034 271.328C464.396 273.121 462.811 275.666 465.285 278.959C466.525 284.019 459.685 287.651 444.767 289.853C422.39 293.158 427.719 285.563 433.474 277.332C437.636 273.52 438.195 271.191 438.195 268.277C438.195 265.363 435.147 260.595 443.902 258.617C447.749 257.818 449.763 254.296 449.947 248.055C450.553 244.92 454.225 244.135 460.962 245.703C463.955 246.228 466.979 244.906 470.034 241.735Z" fill="url(#paint9_linear_6717_37732)"/>
      <path d="M473.874 245.928L464.579 256.73L464.561 256.689C463.554 254.548 463.339 252.164 463.945 249.901L463.966 249.826C463.355 251.571 462.18 253.653 464.126 257.251L456.258 266.416L456.205 266.351C454.632 264.315 453.845 261.639 453.845 258.321C453.483 259.351 453.475 264.083 455.723 267.026L448.744 275.168C448.303 274.542 447.201 272.768 447.201 270.809C446.968 272.165 446.939 273.982 448.224 275.773L437.925 287.756H439.559L449.525 275.622C454.346 277.506 457.05 276.716 458.39 276.164C455.778 276.75 453.005 276.349 450.073 274.964L457.642 265.737C457.603 265.809 457.558 265.881 457.511 265.957C462.549 267.573 467.782 267.763 470.197 266.613C467.609 267.506 463.502 267.062 457.871 265.28L457.986 265.316L466.415 255.021L466.368 255.143C470.074 255.352 473.032 254.274 475.243 251.907C474.895 251.595 472.529 254.74 466.814 254.548L473.874 245.928Z" fill="url(#paint10_linear_6717_37732)"/>
      <path d="M441.281 242.087C438.024 237.944 435.108 238.364 432.535 243.349C431.286 247.656 433.258 250.395 426.812 252.351C422.516 253.657 421.865 256.389 424.861 260.549C426.114 263.165 425.191 264.839 422.088 265.568C418.986 266.298 419.358 269.196 423.206 274.263C424.541 277.04 424.541 278.898 423.206 279.832C421.207 281.234 417.362 285.437 422.088 293.608C426.814 301.78 437.945 295.433 439.613 291.592C441.281 287.751 437.945 282.458 439.613 279.83C441.281 277.201 451.012 276.299 448.413 268.423C446.249 265.201 443.238 264.27 446.262 258.782C449.286 253.295 450.054 255.501 446.262 250.095C444.607 248.544 442.947 245.875 441.281 242.087Z" fill="url(#paint11_linear_6717_37732)"/>
      <path d="M436.848 249.232L433.871 262.894C431.931 260.287 430.533 258.011 429.675 256.069C428.414 253.188 431.382 261.225 433.74 263.455L431.27 274.846V274.8C427.858 272.054 425.704 269.929 424.805 268.427C424.973 269.495 429.221 274.356 431.123 275.556L428.841 286.034L428.828 285.905C428.828 285.905 425.825 283.807 424.805 282.304C424.87 282.931 427.427 285.653 428.705 286.656L426.822 295.298H428.256L429.958 286.154C432.474 285.561 434.782 283.706 435.728 282.657C433.614 284.268 431.755 285.156 430.15 285.324C430.124 285.559 430.066 285.792 429.982 286.018L434.789 260.267C434.789 260.337 434.802 260.409 434.813 260.479C437.598 258.558 439.641 256.417 440.942 254.057C440.478 253.918 439.106 257.382 434.886 259.754L436.848 249.232ZM443.436 269.293C441.538 271.134 437.866 272.431 432.421 273.18C432.439 273.432 432.439 273.681 432.421 273.933C437.714 273.365 441.816 271.298 443.436 269.293Z" fill="url(#paint12_linear_6717_37732)"/>
      <path d="M59.7061 324.663C61.1782 312.606 57.3863 306.107 48.3354 305.179C60.5894 303.93 68.7012 311.905 68.8331 324.663C66.295 324.755 63.2544 324.755 59.7061 324.663Z" fill="url(#paint13_linear_6717_37732)"/>
      <path d="M65.6556 324.735C68.0465 312.558 65.1074 303.574 56.8281 297.781C67.3968 301.348 74.9908 306.706 77.4578 324.735C73.5288 324.99 69.5846 324.99 65.6556 324.735Z" fill="url(#paint14_linear_6717_37732)"/>
      <path d="M79.3356 324.924C78.2747 313.36 82.158 306.737 90.9753 305.049C82.7976 304.832 73.6706 304.245 67.1426 324.924C72.6756 324.734 76.7417 324.734 79.3356 324.924Z" fill="url(#paint15_linear_6717_37732)"/>
      <path d="M82.1606 323.548C81.2937 320.096 78.7654 317.688 74.5704 316.318C69.7821 314.963 67.1557 313.368 70.1536 312.207C72.6819 312.03 78.0791 310.304 82.1606 320.616C82.4392 321.578 82.4392 322.586 82.1606 323.548Z" fill="url(#paint16_linear_6717_37732)"/>
      <path d="M82.3719 324.094C79.8487 315.852 76.985 309.829 73.7756 306.02C71.4227 303.431 71.5878 299.721 73.7756 298.881C76.0149 298.682 80.1428 298.343 83.2387 312.549C83.44 313.525 84.5338 319.246 83.2387 322.942C83.0891 323.394 82.7898 323.796 82.3719 324.094Z" fill="url(#paint17_linear_6717_37732)"/>
      <path d="M82.9553 322.231C84.0956 318.543 83.946 313.722 82.5167 307.771C80.329 302.015 76.5984 294.934 83.4042 294.771C86.1647 295.101 89.498 297.636 88.239 310.266C87.4702 315.362 86.1338 318.399 84.7355 322.208C84.1782 322.456 83.5229 322.466 82.9553 322.231Z" fill="url(#paint18_linear_6717_37732)"/>
      <path d="M84.269 323.664C83.8097 313.235 85.9872 305.748 90.8065 301.207C92.1068 299.693 97.0551 298.27 97.0396 303.014C96.5236 305.057 95.4142 309.426 89.0418 316.087C86.9418 318.49 85.5641 322.001 85.5486 322.828C85.5538 323.389 85.1307 323.664 84.269 323.664Z" fill="url(#paint19_linear_6717_37732)"/>
      <path d="M59.5034 325.038C64.2711 324.261 66.9026 323.601 67.3928 323.054C68.1307 322.241 74.6166 318.744 78.6671 321.699C79.5494 320.705 82.3718 319.937 83.992 321.699C84.7299 318.915 89.3428 317.131 91.35 317.42C93.61 317.266 100.282 317.329 100.782 325.047C98.9607 325.079 85.2046 325.074 59.5034 325.038Z" fill="url(#paint20_linear_6717_37732)"/>
      <path d="M352 135.133C352 135.133 346.216 152.551 295.807 136.854C245.399 121.157 258.881 109 258.881 109L68 321.192L341.737 362L352 135.133Z" fill="url(#paint21_linear_6717_37732)" fill-opacity="0.3"/>
      <path d="M185.739 285.527L186.878 306.036L155.231 304.519L185.739 285.527ZM178.841 312.492L178.826 320.367L197.049 320.161L197.033 335.662L176.203 335.889V329.212L142.697 329.25V312.54L178.841 312.492ZM198.569 312.085L208.157 312.02V327.749L198.569 327.814V312.085Z" fill="url(#paint22_linear_6717_37732)"/>
      <path d="M197.048 320.156V334.936L198.552 329.099L198.568 312.086L197.048 320.156Z" fill="#6B75EF"/>
      <path d="M208.157 312.021L209.72 303.875L209.731 321.983L208.157 327.799V312.021Z" fill="#6B75EF"/>
      <path d="M197.049 320.156L198.57 312.086L208.158 312.021L209.721 303.788L200.127 303.804L204.238 281.934L183.8 281.68L144.356 303.246L142.677 312.487H177.854L176.193 320.416L197.049 320.156ZM179.271 303.842L161.339 303.874L181.47 292.005L179.271 303.842Z" fill="url(#paint23_linear_6717_37732)"/>
      <path d="M243.287 304.506L246.354 305.672L248.452 306.306L252.266 307.135L255.216 307.677L257.113 307.915L258.861 307.98L260.747 307.899L262.643 307.661L264.498 307.26L266.256 306.728L267.612 306.176L268.894 305.428L270.478 304.197L271.464 303.222L272.523 301.867L273.673 300.073L275.119 297.401L275.977 295.455L276.682 293.336L277.693 289.721L284.866 262.334L285.285 260.513L285.618 258.545L285.83 256.594L285.883 254.984L285.793 253.385L285.539 251.499L285.247 250.247L284.76 248.833L284.034 247.234L282.795 245.012L281.571 243.283L280.204 241.743L278.652 240.35L276.909 239.131L274.774 238.025L272.375 237.104L269.17 236.161L265.054 235.142L261.033 234.269L258.58 233.863L257.113 233.76L255.529 233.809L253.807 234.031L252.112 234.399L250.555 234.903L249.114 235.532L247.122 236.659L245.644 237.749L244.32 238.952L243.017 240.253L241.803 241.711L240.622 243.559L239.557 245.76L238.249 249.169L230.954 277.016L230.377 279.504L229.985 281.835L229.757 284.257L229.678 287.298L229.8 289.374L230.154 291.238L230.716 292.918L231.818 295.254L232.877 297.005L234.117 298.566L235.674 300.094L237.338 301.449L238.715 302.376L240.326 303.216L243.287 304.506ZM253.882 291.282L253.283 291.119L251.217 290.431L249.728 289.71L248.69 288.962L247.811 288.03L247.058 286.929L246.439 285.634L246.031 284.263L245.867 282.783L245.951 281.157L246.375 278.653L247.048 275.743L251.731 257.678L252.589 254.724L253.336 252.93L253.977 251.949L255.116 250.751L255.969 250.063L256.933 249.597L258.517 249.207L260.148 249.055L261.319 249.207L263.502 249.862L264.98 250.421L266.23 251.06L267.273 251.77L268.243 252.61L268.916 253.358L269.355 254.036L269.62 254.795L269.784 256.063L269.774 258.03L269.493 260.881L268.974 263.439L264.429 280.783L263.067 284.864L262.225 287.049L261.531 288.463L260.969 289.32L260.265 290.013L259.295 290.637L257.992 291.184L256.641 291.493L255.275 291.531L253.882 291.282Z" fill="url(#paint24_linear_6717_37732)"/>
      <path d="M238.481 308.438L241.548 309.609L243.646 310.237L247.46 311.067L250.411 311.609L252.307 311.847L254.055 311.918L255.941 311.836L257.838 311.592L259.692 311.197L261.451 310.66L262.807 310.107L264.094 309.359L265.678 308.134L266.658 307.153L267.723 305.804L268.867 304.004L270.313 301.332L271.171 299.392L271.876 297.267L272.888 293.658L280.06 266.265L280.479 264.45L280.813 262.482L281.024 260.531L281.077 258.921L280.987 257.317L280.733 255.436L280.442 254.179L279.954 252.764L279.229 251.171L277.989 248.949L276.765 247.214L275.399 245.68L273.847 244.282L272.104 243.068L269.969 241.962L267.569 241.036L264.364 240.098L260.253 239.079L256.227 238.201L253.775 237.794L252.307 237.691L250.723 237.746L249.002 237.962L247.307 238.336L245.749 238.835L244.308 239.464L242.316 240.591L240.844 241.686L239.519 242.884L238.211 244.19L236.998 245.648L235.822 247.496L234.752 249.697L233.443 253.106L226.149 280.953L225.571 283.436L225.179 285.772L224.952 288.194L224.872 291.235L224.994 293.311L225.349 295.175L225.91 296.85L227.012 299.192L228.072 300.942L229.311 302.498L230.869 304.032L232.532 305.387L233.909 306.313L235.52 307.148L238.481 308.438ZM249.076 295.219L248.477 295.056L246.411 294.368L244.923 293.642L243.884 292.894L243.005 291.961L242.253 290.861L241.633 289.571L241.225 288.2L241.061 286.715L241.146 285.094L241.569 282.59L242.242 279.68L246.925 261.61L247.783 258.656L248.53 256.867L249.171 255.886L250.31 254.683L251.163 254L252.127 253.534L253.711 253.138L255.343 252.992L256.513 253.144L258.696 253.794L260.174 254.358L261.424 254.992L262.468 255.702L263.437 256.542L264.11 257.295L264.55 257.967L264.814 258.732L264.979 259.994L264.968 261.967L264.687 264.813L264.168 267.376L259.628 284.72L258.262 288.802L257.419 290.98L256.725 292.4L256.164 293.251L255.459 293.95L254.49 294.574L253.187 295.116L251.836 295.43L250.469 295.463L249.076 295.219Z" fill="url(#paint25_linear_6717_37732)"/>
      <path d="M336.596 275.469L337.735 295.978L306.088 294.466L336.596 275.469ZM329.699 302.438L329.683 310.308L347.906 310.108L347.885 325.603L327.061 325.836V319.159L293.555 319.197V302.482L329.699 302.438ZM349.426 302.032L359.015 301.967V317.696L349.426 317.761V302.032Z" fill="url(#paint26_linear_6717_37732)"/>
      <path d="M347.907 310.098V324.878L349.412 319.046L349.422 302.033L347.907 310.098Z" fill="#6B75EF"/>
      <path d="M359.015 301.961L360.573 293.82L360.588 311.928L359.01 317.738L359.015 301.961Z" fill="#6B75EF"/>
      <path d="M347.909 310.098L349.424 302.033L359.017 301.962L360.575 293.735L350.986 293.751L355.097 271.882L334.66 271.627L295.215 293.193L293.536 302.434H328.354L327.053 310.358L347.909 310.098ZM330.131 293.789L312.194 293.822L332.329 281.952L330.131 293.789Z" fill="url(#paint27_linear_6717_37732)"/>
      <path d="M136.961 208.862L144.144 221.35L102.999 233.035L123.473 184.9L130.339 195.995L108.386 227.637L133.586 201.279L145.442 199.48L136.961 208.862Z" fill="url(#paint28_linear_6717_37732)"/>
      <path d="M149.585 193.836L151.889 188.508L154.331 183.63L156.911 179.18L159.618 175.121L162.452 171.435L165.408 168.102L168.497 165.099L171.717 162.411L175.076 160.021L178.578 157.918L182.238 156.097L186.068 154.557L190.078 153.3L194.279 152.319L198.702 151.631L203.348 151.235L208.248 151.154L211.988 152.091L215.04 153.094L217.503 154.135L219.876 155.408L221.757 156.666L223.224 157.912L224.543 159.327L225.555 160.682L226.297 161.994L227.134 164.048L227.616 165.896L228.077 169.143L227.33 171.012L226.434 172.893L225.348 174.671L224.024 176.286L223.012 177.229L221.841 178.037L220.501 178.72L219.082 179.202L217.423 179.495L215.485 179.587L213.556 179.446L211.289 179.029L208.624 178.286L207.607 177.397L206.691 176.34L205.886 175.094L205.186 173.641L204.487 171.614L203.973 169.359L203.666 166.855L203.571 164.324L203.671 161.706L203.979 158.986L204.482 156.292L205.171 153.658L206.05 151.078L207.131 148.585L208.375 146.297L209.79 144.195L211.623 141.55L213.164 139.571L215.448 137.035L217.143 135.393L219.193 133.658L221.651 131.843L224.209 130.217L227.192 128.656L230.635 127.165L233.241 126.244L236.123 125.436L239.302 124.753L242.803 124.2L246.215 123.87L249.96 123.734L254.06 123.821L258.552 124.146L262.865 124.683L267.569 125.512L272.691 126.672L278.275 128.189L280.844 129.225L284.679 131.198L294.029 136.439L299.549 139.441L305.895 142.655L310.271 144.704L314.917 146.682L319.854 148.59L324.855 150.281L330.057 151.745L335.465 152.98L339.555 153.69L343.719 154.194L347.967 154.482L352.311 154.557L356.613 154.379L360.983 153.907L365.422 153.137L369.946 152.064L373.453 151.002L377.002 149.701L380.599 148.146L384.249 146.33L387.952 144.238L391.438 142.016L394.966 139.485L398.552 136.623L402.197 133.403L405.9 129.815L409.47 125.81L412.913 121.545L416.229 117.008L419.424 112.19L422.491 107.068L425.426 101.643" stroke="url(#paint29_linear_6717_37732)" stroke-width="0.52974" stroke-dasharray="2.12 2.12"/>
      <path d="M334.199 67.2581L329.029 65.334L314.376 98.2981L324.712 102.152L334.199 67.2581Z" fill="url(#paint30_linear_6717_37732)"/>
      <path d="M323.568 88.9169L320.517 87.9251L317.487 87.2096L314.473 86.7489L311.458 86.543L308.428 86.5863L305.456 86.8573L302.532 87.3614L299.656 88.1039L296.838 89.0633L294.125 90.234L291.503 91.6106L288.971 93.1987L286.571 94.9818L284.315 96.9438L282.201 99.0956L280.22 101.448L278.434 103.941L276.84 106.602L275.436 109.437L274.212 112.461L272.39 117.588L271.426 120.71L270.721 123.805L270.271 126.894L270.07 129.973L270.112 133.079L270.377 136.119L270.87 139.106L271.595 142.049L272.533 144.932L273.677 147.712L275.023 150.39L276.575 152.981L278.318 155.441L280.236 157.75L282.339 159.913L284.638 161.934L287.074 163.761L289.675 165.392L292.446 166.834L295.407 168.081L298.459 169.072L301.483 169.793L304.503 170.249L307.512 170.455L310.547 170.417L313.519 170.14L316.438 169.636L319.314 168.899L322.133 167.934L324.85 166.769L327.467 165.392L329.999 163.799L332.404 162.021L334.656 160.054L336.775 157.902L338.751 155.55L340.536 153.057L342.13 150.401L343.539 147.561L344.758 144.536L346.58 139.415L347.55 136.293L348.254 133.192L348.699 130.108L348.9 127.025L348.863 123.924L348.593 120.884L348.1 117.892L347.38 114.949L346.437 112.065L345.298 109.29L343.953 106.608L342.395 104.017L340.658 101.562L338.735 99.2527L336.632 97.0902L334.333 95.0631L331.896 93.2366L329.3 91.6052L326.524 90.1635L323.568 88.9169Z" fill="url(#paint31_linear_6717_37732)"/>
      <path d="M225.911 112.254L225.376 114.14L225.058 116.075L224.968 118.07L225.101 120.14L225.472 122.308L226.197 124.888L227.236 127.576L228.629 130.378L230.409 133.321L232.332 136.053L234.567 138.855L237.147 141.739L240.087 144.703L244.15 148.383L248.738 152.096L253.892 155.852L259.205 159.353L264.964 162.79L271.199 166.172L277.556 169.288L284.278 172.253L291.382 175.06L298.586 177.581L305.6 179.727L312.423 181.521L319.326 183.039L325.9 184.188L332.166 185.001L338.47 185.51L344.324 185.684L349.743 185.537L353.865 185.201L357.647 184.692L361.122 184.014L364.311 183.185L367.521 182.101L370.35 180.871L372.835 179.494L375.012 177.993L376.659 176.583L378.063 175.082L379.244 173.494L380.219 171.803L380.993 170.004L381.528 168.117L381.845 166.183L381.936 164.188L381.803 162.118L381.427 159.955L380.707 157.37L379.663 154.687L378.275 151.879L376.495 148.936L374.572 146.205L372.337 143.403L369.757 140.519L366.817 137.554L362.748 133.88L358.161 130.162L353.006 126.406L347.698 122.91L341.94 119.468L335.705 116.091L329.343 112.975L322.626 110.01L315.522 107.203L308.318 104.682L301.304 102.531L294.476 100.737L287.578 99.2246L281.004 98.0701L274.737 97.2625L268.428 96.7477L262.58 96.5742L257.155 96.7206L253.039 97.0566L249.257 97.5715L245.782 98.2436L242.593 99.0728L239.383 100.157L236.554 101.393L234.064 102.764L231.892 104.265L230.245 105.68L228.841 107.176L227.659 108.769L226.685 110.455L225.911 112.254Z" fill="url(#paint32_linear_6717_37732)"/>
      <path d="M225.911 116.59L225.376 118.476L225.058 120.406L224.968 122.406L225.101 124.476L225.472 126.639L226.197 129.224L227.241 131.907L228.629 134.714L230.409 137.657L232.332 140.384L234.567 143.191L237.147 146.069L240.087 149.039L244.15 152.714L248.743 156.432L253.892 160.188L259.205 163.684L264.964 167.126L271.199 170.502L277.556 173.619L284.278 176.583L291.382 179.391L298.586 181.911L305.6 184.063L312.428 185.857L319.326 187.369L325.9 188.524L332.166 189.331L338.47 189.846L344.324 190.014L349.743 189.873L353.865 189.537L357.647 189.022L361.122 188.345L364.311 187.521L367.521 186.437L370.35 185.201L372.84 183.83L375.012 182.329L376.659 180.914L378.063 179.413L379.244 177.825L380.219 176.134L380.993 174.34L381.528 172.453L381.845 170.518L381.936 168.524L381.803 166.448L381.432 164.286L380.707 161.706L379.663 159.017L378.275 156.215L376.495 153.272L374.572 150.541L372.337 147.738L369.757 144.855L366.817 141.89L362.754 138.21L358.161 134.498L353.012 130.742L347.698 127.24L341.94 123.799L335.705 120.422L329.348 117.305L322.626 114.341L315.522 111.533L308.318 109.013L301.304 106.867L294.476 105.073L287.578 103.555L281.004 102.406L274.737 101.593L268.434 101.078L262.58 100.91L257.161 101.056L253.039 101.393L249.257 101.902L245.782 102.58L242.593 103.409L239.383 104.493L236.554 105.723L234.064 107.1L231.892 108.601L230.245 110.01L228.841 111.512L227.659 113.1L226.685 114.791L225.911 116.59Z" fill="url(#paint33_linear_6717_37732)"/>
      <path d="M255.918 130.964L255.589 132.374L255.542 133.859L255.796 135.458L256.384 137.214L257.173 138.829L258.233 140.542L259.605 142.373L261.332 144.33L263.753 146.699L266.656 149.17L270.094 151.75L273.654 154.135L277.611 156.52L282.013 158.915L286.494 161.116L291.283 163.229L296.406 165.256L301.603 167.072L306.603 168.606L311.419 169.869L316.292 170.926L320.827 171.701L325.049 172.216L329.303 172.498L333.08 172.514L336.428 172.292L338.976 171.928L341.179 171.43L343.071 170.812L344.686 170.096L346.238 169.143L347.436 168.08L348.336 166.91L348.967 165.614L349.295 164.21L349.343 162.725L349.088 161.121L348.5 159.37L347.716 157.755L346.652 156.043L345.28 154.211L343.553 152.254L341.132 149.886L338.229 147.414L334.791 144.834L331.236 142.449L327.274 140.059L322.877 137.669L318.395 135.468L313.601 133.355L308.479 131.328L303.282 129.512L298.281 127.978L293.466 126.715L288.592 125.658L284.058 124.883L279.836 124.368L275.582 124.081L271.805 124.07L268.462 124.293L265.909 124.656L263.705 125.154L261.814 125.767L260.198 126.488L258.646 127.442L257.449 128.504L256.548 129.675L255.918 130.964Z" fill="#E0E3FF"/>
      <path d="M327.891 64.9105L327.636 66.0541L327.668 67.1544L327.96 68.2004L328.484 69.111L329.22 69.8481L330.163 70.3684L331.212 70.5906L332.24 70.5093L333.22 70.157L334.099 69.55L334.809 68.7262L335.334 67.6801L335.588 66.5365L335.561 65.4362L335.27 64.3956L334.746 63.4796L334.004 62.7425L333.061 62.2222L332.017 62L330.984 62.0813L330.01 62.4336L329.13 63.046L328.415 63.8699L327.891 64.9105Z" fill="#737DEB"/>
      <path d="M331.57 373.82L333.226 374.397L334.225 374.856L334.796 375.211L335.128 375.502L335.295 375.747L335.37 376.019L335.337 376.273L335.198 376.526L334.86 376.87L334.354 377.233L333.183 377.901L332.304 378.45L331.717 378.936L331.355 379.366L331.101 379.854L331.001 380.308L331.036 380.745L331.181 381.172L331.417 381.607L331.754 382.05L332.344 382.672L333.027 383.294L333.542 383.659L334.424 384.124L335.812 384.708L337.216 385.204L338.966 385.733L341.115 386.296L343.275 386.779L345.724 387.238L348.493 387.665L351.261 388.001L354.26 388.254L357.497 388.425L360.729 388.479L364.121 388.401L367.68 388.185L370.328 387.929L373.029 387.574L375.784 387.118L378.598 386.555L381.243 385.917L383.515 385.274L385.453 384.633L387.093 383.998L388.784 383.227L390.177 382.48L391.305 381.757L392.206 381.06L393.074 380.233L393.736 379.446L394.216 378.693L394.54 377.967L394.76 377.177L394.854 376.414L394.835 375.672L394.698 374.944L394.374 373.996L393.905 373.092L393.286 372.217L392.565 371.413L391.772 370.68L390.901 370.012L389.655 369.255L387.602 368.251L385.26 367.28L382.224 366.191L378.946 365.182L375.09 364.168L372.44 363.573L369.591 363.021L366.528 362.519L363.459 362.114L360.241 361.799L356.867 361.577L353.491 361.479L350.012 361.511L346.432 361.679L343.211 361.94L340.448 362.236L338.095 362.559L335.75 362.96L333.818 363.362L332.245 363.765L330.688 364.248L329.498 364.702L328.614 365.124L327.77 365.636L327.234 366.079L326.925 366.463L326.499 367.184L326.183 367.862L325.963 368.507L325.854 369.164L325.894 369.796L326.081 370.415L326.411 370.978L326.958 371.565L327.783 372.19L328.686 372.7L329.924 373.244L331.57 373.82Z" fill="#C5D2F2"/>
      <path d="M383.946 331.452L384.068 330.751L384.349 329.979L384.742 329.219L385.223 328.475L385.758 327.774L386.285 327.182L386.825 326.668L387.251 326.343L387.634 326.061L388.27 325.508L388.923 324.844L389.634 323.975L390.267 323.012L390.787 321.926L391.029 321.159L391.156 320.363L391.166 319.531L391.084 318.921L390.905 318.295L390.621 317.647L390.218 316.97L389.595 316.197L388.949 315.579L388.28 315.096L387.58 314.737L386.825 314.478L386.073 314.334L385.316 314.295L384.546 314.367L383.794 314.54L383.067 314.809L382.365 315.174L381.68 315.644L381.059 316.187L380.499 316.812L379.995 317.53L379.545 318.35L378.54 320.502L377.803 322.174L377.225 323.707L376.958 324.761L376.914 325.27L376.958 325.663L377.077 325.963L377.261 326.195L377.573 326.573L377.785 327.043L377.894 327.63L377.891 328.568L377.728 329.645L377.454 330.733L377.113 331.801L376.403 333.656L375.945 334.775L375.953 334.912L376.116 334.977L376.625 334.92L377.84 334.566L380.245 333.651L384.466 331.847L383.946 331.452Z" fill="#EBB0B0"/>
      <path d="M388.528 312.856L387.774 312.251L387.097 311.848L386.487 311.61L385.843 311.484L385.254 311.479L384.704 311.587L384.179 311.789L383.688 312.07L383.231 312.427L382.623 313.06L382.109 313.776L381.688 314.538L381.38 315.27L381.109 316.107L380.982 316.631L380.938 317.091L380.969 317.43L381.174 318.169L381.295 318.632L381.427 319.347L381.476 319.373L381.489 319.43L381.432 319.609L381.003 320.288L379.894 321.642L380.241 322.48L380.321 322.547L380.434 322.482L380.757 322.19L380.977 322.076L381.254 322.058L381.45 322.162L381.613 322.405L381.701 322.717L381.711 323.102L381.626 323.487L381.429 323.862L381.119 324.167L380.641 324.394L379.708 324.632L379.507 324.645L379.481 324.624L379.504 324.575L379.473 324.87L379.447 325.544L379.476 325.93L379.545 326.291L379.68 326.604L379.876 326.806L380.491 327.291L381.437 328.082L382.525 328.894L383.083 329.224L383.572 329.434L383.897 329.506L384.163 329.496L384.388 329.413L384.812 329.199L385.342 329.002L386.585 328.571L387.277 328.266L388.073 327.824L388.867 327.266L389.771 326.472L390.314 325.842L390.769 325.126L391.141 324.32L391.42 323.472L391.627 322.601L391.756 321.702L391.826 320.358L391.756 319.128L391.552 317.975L391.268 317.115L390.549 315.629L389.89 314.51L389.179 313.541L388.528 312.856Z" fill="#131322"/>
      <path d="M400.981 365.049L401 365.703L401.129 366.22L401.354 366.628L401.674 366.951L402.106 367.199L402.677 367.364L403.429 367.432L404.406 367.375L405.661 367.15L406.488 366.855L407.122 366.535L407.602 366.196L408.013 365.783L408.264 365.393L408.385 365.013L408.39 364.62L408.274 364.256L408.018 363.901L407.675 363.62L407.184 363.372L406.509 363.168L404.687 362.829L404.509 362.842L404.806 362.992L405.589 362.219L405.912 361.764L405.979 361.508L405.907 361.359L405.685 361.263L405.176 361.258L404.509 361.428L403.84 361.749L403.16 362.235L402.46 362.922L401.733 363.845L400.981 365.049Z" fill="#EFBA9E"/>
      <path d="M379.822 383.955L380.282 383.36L380.747 382.97L381.23 382.743L381.742 382.66L382.308 382.722L382.946 382.952L383.688 383.394L384.551 384.105L385.564 385.154L386.127 385.983L386.499 386.707L386.717 387.34L386.817 387.997L386.786 388.529L386.644 388.961L386.386 389.327L386.032 389.586L385.559 389.744L385.052 389.772L384.432 389.671L383.672 389.405L381.962 388.606L381.61 388.395L381.618 388.358L381.98 388.426L382.184 389.666L382.176 390.302L382.067 390.583L381.899 390.676L381.628 390.614L381.155 390.276L380.719 389.764L380.354 389.154L380.065 388.431L379.853 387.57L379.731 386.555L379.716 385.358L379.822 383.955Z" fill="#EFBA9E"/>
      <path d="M376.052 354.372L368.416 338.342L368.025 337.745L367.47 337.156L366.819 336.621L366.077 336.13L365.289 335.701L364.495 335.347L363.699 335.065L362.994 334.887L362.495 334.838L361.981 334.869L361.443 334.988L360.655 335.277L359.859 335.693L359.1 336.192L358.386 336.74L357.722 337.324L357.164 337.867L355.35 339.74L353.892 341.329L352.554 342.96L351.094 344.963L349.274 347.666L346.855 351.398L347.269 352.506L347.46 352.876L347.646 353.155L348.145 353.744L348.925 354.664L349.233 354.997L349.634 355.215L349.972 355.209L350.285 355.129L350.582 354.977L360.278 348.855L361.35 352.982L361.924 355.165L362.537 357.334L363.216 359.448L363.942 361.349L364.175 361.82L364.524 362.218L364.911 362.391L365.322 362.404L365.738 362.295L366.165 362.086L366.563 361.815L366.919 361.52L375.533 353.855" fill="url(#paint34_linear_6717_37732)"/>
      <path d="M338.663 372.108L338.968 373.258L339.188 374.106L339.201 374.475L339.113 374.85L338.878 375.225L338.431 375.646L337.883 376.005L337.276 376.279L336.844 376.401L336.462 376.439L336.118 376.408L334.642 376.015L333.118 375.571L332.081 375.266L331.347 375.036L330.11 374.586L328.722 373.971L328.066 373.607L327.533 373.243L327.109 372.832L326.897 372.454L326.854 372.023L326.965 371.646L327.241 371.297L327.621 371.025L328.138 370.793L328.823 370.614L329.526 370.527L330.329 370.514L331.252 370.589L333.433 370.93L335.573 371.328L337.203 371.658L337.852 371.798L338.663 372.108Z" fill="#333333"/>
      <path d="M367.811 362.722L365.8 360.626L364.022 358.567L362.34 356.476L360.74 354.427L359.133 352.398L357.463 350.416L356.3 349.139L355.044 347.884L353.69 346.648L351.941 345.206L351.062 344.537L350.078 343.932L349.377 343.604L348.553 343.328L347.589 343.105L346.938 342.994L346.274 343.015L345.609 343.141L344.948 343.348L343.682 343.883L343.167 344.204L342.537 344.767L341.927 345.439L341.278 346.255L340.661 347.126L340.079 348.023L339.544 348.928L339.11 349.739L338.751 350.519L338.549 351.08L337.593 354.295L336.774 357.07L336.415 358.417L336.076 359.841L335.776 361.324L335.484 363.045L335.231 364.88L334.983 367.115L334.769 369.521L334.557 372.491L334.59 372.997L334.745 373.496L335.006 373.961L335.358 374.377L335.782 374.721L336.26 374.969L336.831 375.101L337.368 375.077L337.893 374.902L338.381 374.615L338.841 374.237L339.278 373.765L339.834 372.982L340.263 372.18L340.743 371.263L341.436 370.131L343.085 367.689L344.842 365.097L345.661 363.8L346.338 362.608L346.894 361.433L347.209 360.469L348.855 363.404L350.085 365.542L351.124 367.281L352.199 369.015L353.538 371.149L355.365 374.08L355.721 374.604L356.396 375.457L357.205 376.349L358.282 377.377L359.068 378.034L359.944 378.669L360.921 379.287L361.942 379.822L363.035 380.269L364.211 380.628L365.415 380.853L366.689 380.925L368.048 380.84L369.041 380.667L370.079 380.372L371.173 379.943L372.328 379.37L373.754 378.633L374.788 378.026L375.687 377.39L376.364 376.786L376.946 376.119L377.465 375.359L377.946 374.517L378.501 373.447L378.543 373.116L378.411 372.457L378.166 371.731L377.801 370.844L376.941 369.059L376.111 367.555L375.757 366.994L375.589 366.785L374.796 366.082L373.695 365.327L372.217 364.516L370.284 363.647L367.811 362.722Z" fill="url(#paint35_linear_6717_37732)"/>
      <path d="M380.252 334.224L380.73 333.583L381.296 333.045L381.952 332.604L382.673 332.262L383.433 332.022L384.239 331.88L385.056 331.844L385.857 331.911L386.651 332.081L387.387 332.371L388.038 332.753L388.62 333.234L389.392 334.084L390.085 335.064L391.338 337.154L392.661 339.397L393.969 341.824L394.543 343.054L394.998 344.212L395.905 346.651L396.84 348.928L397.838 351.156L398.9 353.352L400.021 355.546L401.244 357.846L402.36 359.996L402.841 361.108L403.208 362.237L403.373 363.004L403.448 363.782L403.438 364.576L403.296 365.341L403.05 365.894L402.719 366.286L402.288 366.571L401.776 366.739L401.166 366.785L400.546 366.723L399.864 366.563L399.112 366.289L398.479 365.917L397.91 365.467L397.398 364.937L395.15 362.531L393.067 360.182L391.139 357.885L389.305 355.518L387.627 353.125L386.105 350.706L385.056 348.84L384.097 346.912L383.224 344.92L382.438 342.86L381.766 340.783L381.182 338.586L380.689 336.265L380.291 333.813" fill="url(#paint36_linear_6717_37732)"/>
      <path d="M373.876 333.449L375.088 332.384L376.272 331.539L377.435 330.895L378.582 330.43L379.724 330.133L380.869 329.996L382.029 330.014L383.213 330.192L384.43 330.539L385.694 331.066L387.012 331.795L387.606 332.247L388.175 332.841L388.717 333.596L389.237 334.542L389.78 335.839L390.263 337.369L390.674 339.162L390.968 340.971L391.183 342.941L391.307 345.078L391.338 347.217L391.276 349.427L391.118 351.711L390.87 353.986L390.529 356.242L390.09 358.479L389.552 360.694L388.922 362.8L388.203 364.806L387.363 366.757L386.441 368.522L385.441 370.109L384.588 371.24L383.694 372.228L382.761 373.08L381.781 373.812L380.357 374.657L379.001 375.318L377.703 375.807L376.458 376.143L375.158 376.36L373.918 376.453L372.731 376.424L371.592 376.28L370.457 376.029L369.385 375.693L368.367 375.274L367.403 374.773L366.178 373.99L365.079 373.124L364.097 372.176L363.214 371.137L362.482 370.093L361.896 369.036L361.431 367.925L361.141 366.886L361.012 365.907L360.991 363.353L361.115 360.852L361.379 358.399L361.782 355.991L362.325 353.621L363.007 351.285L363.829 348.98L364.795 346.703L365.912 344.45L367.178 342.217L368.599 340.002L370.186 337.803L371.943 335.619L373.876 333.449Z" fill="url(#paint37_linear_6717_37732)"/>
      <path d="M371.713 342.615L372.377 340.987L373.031 339.728L373.674 338.777L374.305 338.077L374.922 337.589L375.538 337.273L376.158 337.111L376.801 337.09L377.483 337.216L378.223 337.508L379.037 337.999L379.938 338.733L380.944 339.757L382.065 341.134L382.437 342.328L382.815 344.176L383.171 346.876L383.481 350.665L383.719 355.802L383.854 362.57L383.846 371.29L383.66 382.301L383.083 383.585L382.536 384.495L382.014 385.11L381.515 385.498L381.032 385.704L380.543 385.761L380.032 385.671L379.471 385.407L378.845 384.934L378.135 384.182L377.323 383.079L375.972 378.947L374.804 374.92L373.816 370.992L373 367.16L372.351 363.418L371.865 359.761L371.537 356.185L371.359 352.688L371.333 349.262L371.452 345.905L371.713 342.615Z" fill="url(#paint38_linear_6717_37732)"/>
    </g>
  </g>
  <defs>
    <linearGradient id="paint0_linear_6717_37732" x1="42.708" y1="341.424" x2="497.543" y2="341.424" gradientUnits="userSpaceOnUse">
      <stop stop-color="#FAFBFF"/>
      <stop offset="1" stop-color="#DDE6FF"/>
    </linearGradient>
    <linearGradient id="paint1_linear_6717_37732" x1="406.5" y1="-16.9991" x2="407.897" y2="35.6892" gradientUnits="userSpaceOnUse">
      <stop stop-color="#98BEFA" stop-opacity="0.57"/>
      <stop offset="1" stop-color="#98BEFA" stop-opacity="0"/>
    </linearGradient>
    <linearGradient id="paint2_linear_6717_37732" x1="96" y1="-13.9985" x2="95.9282" y2="55.5938" gradientUnits="userSpaceOnUse">
      <stop stop-color="#98BEFA" stop-opacity="0.79"/>
      <stop offset="1" stop-color="#98BEFA" stop-opacity="0"/>
    </linearGradient>
    <linearGradient id="paint3_linear_6717_37732" x1="6526.15" y1="-9698.08" x2="6545.48" y2="-9698.29" gradientUnits="userSpaceOnUse">
      <stop stop-color="#98D6FA"/>
      <stop offset="1" stop-color="#47B0F1"/>
    </linearGradient>
    <linearGradient id="paint4_linear_6717_37732" x1="4512.28" y1="-6740.42" x2="4525.89" y2="-6740.57" gradientUnits="userSpaceOnUse">
      <stop stop-color="#98D6FA"/>
      <stop offset="1" stop-color="#47B0F1"/>
    </linearGradient>
    <linearGradient id="paint5_linear_6717_37732" x1="4512.28" y1="-6740.43" x2="4525.89" y2="-6740.57" gradientUnits="userSpaceOnUse">
      <stop stop-color="#98D6FA"/>
      <stop offset="1" stop-color="#47B0F1"/>
    </linearGradient>
    <linearGradient id="paint6_linear_6717_37732" x1="3117.28" y1="-4697.19" x2="3126.57" y2="-4697.3" gradientUnits="userSpaceOnUse">
      <stop stop-color="#98D6FA"/>
      <stop offset="1" stop-color="#47B0F1"/>
    </linearGradient>
    <linearGradient id="paint7_linear_6717_37732" x1="501.56" y1="272.113" x2="455.967" y2="271.347" gradientUnits="userSpaceOnUse">
      <stop stop-color="#98D6FA"/>
      <stop offset="1" stop-color="#47B0F1"/>
    </linearGradient>
    <linearGradient id="paint8_linear_6717_37732" x1="467.979" y1="274.853" x2="465.215" y2="272.632" gradientUnits="userSpaceOnUse">
      <stop offset="0.03" stop-color="#AFDEF9"/>
      <stop offset="1" stop-color="#7CC9F9"/>
    </linearGradient>
    <linearGradient id="paint9_linear_6717_37732" x1="476.963" y1="273.276" x2="448.378" y2="260.242" gradientUnits="userSpaceOnUse">
      <stop stop-color="#98D6FA"/>
      <stop offset="1" stop-color="#47B0F1"/>
    </linearGradient>
    <linearGradient id="paint10_linear_6717_37732" x1="468.271" y1="261.824" x2="465.38" y2="260.803" gradientUnits="userSpaceOnUse">
      <stop offset="0.03" stop-color="#AFDEF9"/>
      <stop offset="1" stop-color="#7CC9F9"/>
    </linearGradient>
    <linearGradient id="paint11_linear_6717_37732" x1="438.313" y1="291.091" x2="420.259" y2="266.703" gradientUnits="userSpaceOnUse">
      <stop stop-color="#98D6FA"/>
      <stop offset="1" stop-color="#47B0F1"/>
    </linearGradient>
    <linearGradient id="paint12_linear_6717_37732" x1="438.445" y1="265.764" x2="434.838" y2="266.365" gradientUnits="userSpaceOnUse">
      <stop offset="0.03" stop-color="#AFDEF9"/>
      <stop offset="1" stop-color="#7CC9F9"/>
    </linearGradient>
    <linearGradient id="paint13_linear_6717_37732" x1="4313.45" y1="-18465.9" x2="4304.4" y2="-18480.6" gradientUnits="userSpaceOnUse">
      <stop stop-color="#98D6FA"/>
      <stop offset="1" stop-color="#47B0F1"/>
    </linearGradient>
    <linearGradient id="paint14_linear_6717_37732" x1="4330.16" y1="-25409.2" x2="4342.58" y2="-25422.2" gradientUnits="userSpaceOnUse">
      <stop stop-color="#98D6FA"/>
      <stop offset="1" stop-color="#47B0F1"/>
    </linearGradient>
    <linearGradient id="paint15_linear_6717_37732" x1="5012.42" y1="-18700.2" x2="5032.86" y2="-18705.5" gradientUnits="userSpaceOnUse">
      <stop stop-color="#98D6FA"/>
      <stop offset="1" stop-color="#47B0F1"/>
    </linearGradient>
    <linearGradient id="paint16_linear_6717_37732" x1="2753.61" y1="-10837.8" x2="2756.58" y2="-10827.6" gradientUnits="userSpaceOnUse">
      <stop stop-color="#98D6FA"/>
      <stop offset="1" stop-color="#47B0F1"/>
    </linearGradient>
    <linearGradient id="paint17_linear_6717_37732" x1="2394.95" y1="-23580.3" x2="2395.4" y2="-23557.6" gradientUnits="userSpaceOnUse">
      <stop stop-color="#98D6FA"/>
      <stop offset="1" stop-color="#47B0F1"/>
    </linearGradient>
    <linearGradient id="paint18_linear_6717_37732" x1="1793.17" y1="-25780.3" x2="1793.3" y2="-25755.5" gradientUnits="userSpaceOnUse">
      <stop stop-color="#98D6FA"/>
      <stop offset="1" stop-color="#47B0F1"/>
    </linearGradient>
    <linearGradient id="paint19_linear_6717_37732" x1="2612.81" y1="-22322.4" x2="2613.41" y2="-22300.9" gradientUnits="userSpaceOnUse">
      <stop stop-color="#98D6FA"/>
      <stop offset="1" stop-color="#47B0F1"/>
    </linearGradient>
    <linearGradient id="paint20_linear_6717_37732" x1="8695.74" y1="-7219.48" x2="8742.38" y2="-7219.48" gradientUnits="userSpaceOnUse">
      <stop stop-color="#98D6FA"/>
      <stop offset="1" stop-color="#47B0F1"/>
    </linearGradient>
    <linearGradient id="paint21_linear_6717_37732" x1="246.368" y1="281.117" x2="283.437" y2="116.288" gradientUnits="userSpaceOnUse">
      <stop stop-color="white" stop-opacity="0"/>
      <stop offset="1" stop-color="#9BA3FF"/>
    </linearGradient>
    <linearGradient id="paint22_linear_6717_37732" x1="169.084" y1="299.198" x2="169.084" y2="335.793" gradientUnits="userSpaceOnUse">
      <stop offset="0.05" stop-color="#E0E3FF"/>
      <stop offset="1" stop-color="#8FA7FF"/>
    </linearGradient>
    <linearGradient id="paint23_linear_6717_37732" x1="169.702" y1="292.195" x2="169.702" y2="320.342" gradientUnits="userSpaceOnUse">
      <stop offset="0.05" stop-color="#9BA3FF"/>
      <stop offset="1" stop-color="#7698FF"/>
    </linearGradient>
    <linearGradient id="paint24_linear_6717_37732" x1="252.334" y1="253.907" x2="252.334" y2="307.838" gradientUnits="userSpaceOnUse">
      <stop offset="0.05" stop-color="#858EF8"/>
      <stop offset="1" stop-color="#5D80FF"/>
    </linearGradient>
    <linearGradient id="paint25_linear_6717_37732" x1="247.528" y1="257.84" x2="247.528" y2="311.775" gradientUnits="userSpaceOnUse">
      <stop offset="0.05" stop-color="#9BA3FF"/>
      <stop offset="1" stop-color="#7698FF"/>
    </linearGradient>
    <linearGradient id="paint26_linear_6717_37732" x1="319.941" y1="289.141" x2="319.941" y2="325.74" gradientUnits="userSpaceOnUse">
      <stop offset="0.05" stop-color="#E0E3FF"/>
      <stop offset="1" stop-color="#8FA7FF"/>
    </linearGradient>
    <linearGradient id="paint27_linear_6717_37732" x1="320.559" y1="282.14" x2="320.559" y2="310.284" gradientUnits="userSpaceOnUse">
      <stop offset="0.05" stop-color="#9BA3FF"/>
      <stop offset="1" stop-color="#7698FF"/>
    </linearGradient>
    <linearGradient id="paint28_linear_6717_37732" x1="120.108" y1="197.966" x2="120.108" y2="232.943" gradientUnits="userSpaceOnUse">
      <stop offset="0.05" stop-color="#9BA3FF"/>
      <stop offset="1" stop-color="#6D96FF"/>
    </linearGradient>
    <linearGradient id="paint29_linear_6717_37732" x1="508.354" y1="71.9784" x2="170.354" y2="177.478" gradientUnits="userSpaceOnUse">
      <stop stop-color="white"/>
      <stop offset="1" stop-color="#9BA3FF"/>
    </linearGradient>
    <linearGradient id="paint30_linear_6717_37732" x1="324.975" y1="53.9165" x2="319.891" y2="135.699" gradientUnits="userSpaceOnUse">
      <stop stop-color="#737DEB"/>
      <stop offset="1" stop-color="#F5F8FF"/>
    </linearGradient>
    <linearGradient id="paint31_linear_6717_37732" x1="309.485" y1="115.464" x2="233.911" y2="372.111" gradientUnits="userSpaceOnUse">
      <stop stop-color="#737DEB"/>
      <stop offset="1" stop-color="#BDCEFF" stop-opacity="0.988235"/>
    </linearGradient>
    <linearGradient id="paint32_linear_6717_37732" x1="318.662" y1="120.763" x2="318.662" y2="185.512" gradientUnits="userSpaceOnUse">
      <stop offset="0.05" stop-color="#818AF8"/>
      <stop offset="1" stop-color="#7588FE"/>
    </linearGradient>
    <linearGradient id="paint33_linear_6717_37732" x1="318.662" y1="125.097" x2="318.662" y2="189.843" gradientUnits="userSpaceOnUse">
      <stop offset="0.05" stop-color="#9BA3FF"/>
      <stop offset="1" stop-color="#7096FF"/>
    </linearGradient>
    <linearGradient id="paint34_linear_6717_37732" x1="372.045" y1="334.065" x2="346.855" y2="334.065" gradientUnits="userSpaceOnUse">
      <stop stop-color="#00415D"/>
      <stop offset="0.3" stop-color="#001A25"/>
      <stop offset="0.5" stop-color="#001A25"/>
      <stop offset="0.7" stop-color="#001A25"/>
      <stop offset="1" stop-color="#001A25"/>
    </linearGradient>
    <linearGradient id="paint35_linear_6717_37732" x1="372.506" y1="341.93" x2="334.557" y2="341.93" gradientUnits="userSpaceOnUse">
      <stop stop-color="#00415D"/>
      <stop offset="0.3" stop-color="#001A25"/>
      <stop offset="0.5" stop-color="#001A25"/>
      <stop offset="0.7" stop-color="#001A25"/>
      <stop offset="1" stop-color="#001A25"/>
    </linearGradient>
    <linearGradient id="paint36_linear_6717_37732" x1="380.455" y1="349.327" x2="403.436" y2="349.327" gradientUnits="userSpaceOnUse">
      <stop stop-color="#81D9FF"/>
      <stop offset="1" stop-color="#27A6DD"/>
    </linearGradient>
    <linearGradient id="paint37_linear_6717_37732" x1="361.257" y1="353.24" x2="391.323" y2="353.24" gradientUnits="userSpaceOnUse">
      <stop stop-color="#81D9FF"/>
      <stop offset="1" stop-color="#27A6DD"/>
    </linearGradient>
    <linearGradient id="paint38_linear_6717_37732" x1="371.443" y1="361.442" x2="383.847" y2="361.442" gradientUnits="userSpaceOnUse">
      <stop stop-color="#81D9FF"/>
      <stop offset="1" stop-color="#27A6DD"/>
    </linearGradient>
    <clipPath id="clip0_6717_37732">
      <rect width="520" height="430" fill="white"/>
    </clipPath>
    <clipPath id="clip1_6717_37732">
      <rect width="520" height="430" fill="white"/>
    </clipPath>
  </defs>
</svg>