<svg width="520" height="430" viewBox="0 0 520 430" fill="none" xmlns="http://www.w3.org/2000/svg">
  <g clip-path="url(#clip0_6717_37750)">
    <path opacity="0.8" d="M253.011 236.283C326.314 236.283 392.404 244.791 438.533 258.341C483.712 258.893 520 278.036 520 301.67C520 320.734 496.237 336.963 463.303 342.714C456.034 345.707 447.983 348.464 439.148 351.064C439.372 352.719 439.428 354.373 439.428 355.948C439.428 396.835 376.357 430.001 298.525 430.001C228.856 430.001 170.929 403.373 159.634 368.474C66.0903 358.469 0 333.733 0 304.821C0 267.007 113.17 236.283 253.011 236.283Z" fill="url(#paint0_linear_6717_37750)"/>
    <path fill-rule="evenodd" clip-rule="evenodd" d="M476.377 41.1091L476.195 43.3257L475.685 45.4056L474.848 47.3925L473.721 49.2427L472.33 50.944L470.655 52.5024L468.792 53.8497L466.715 54.9922L464.405 55.9421L462 56.6189L459.432 57.0411L456.694 57.1963H395.807L393.069 56.8859L390.475 56.3457L388.027 55.5758L385.666 54.57L383.539 53.3841L381.612 52.0119L379.881 50.4286L378.44 48.7088L377.269 46.8399L376.394 44.8282L375.859 42.6924L375.664 40.3951L375.815 38.3834L376.249 36.471L376.954 34.6208L377.899 32.8823L379.076 31.2494L380.479 29.722L382.053 28.3622L383.803 27.1515L385.735 26.096L385.106 24.4879L384.898 23.6807L384.823 22.8798L385.043 20.8805L385.647 18.9992L386.648 17.2111L387.97 15.6216L389.588 14.237L391.533 13.0573L393.648 12.1881L395.97 11.6479L398.551 11.4368L400.899 11.6355L403.014 12.157L405.003 12.9518L406.791 13.939L408.786 11.3064L411.084 8.88493L413.708 6.67456L416.572 4.75602L419.682 3.12307L423.068 1.78816L425.687 1.02446L428.419 0.471873L431.27 0.124176L434.26 0L437.37 0.136596L440.328 0.515339L443.154 1.1176L445.861 1.94339L448.511 3.01132L450.96 4.24688L453.226 5.6563L455.322 7.23957L457.267 9.02152L458.966 10.9152L460.439 12.9331L461.686 15.0814L462.686 17.3477L463.41 19.6884L463.851 22.1223L464.015 24.6679V26.096L466.407 27.0646L468.553 28.2318L470.479 29.5916L472.21 31.1749L473.639 32.8885L474.797 34.7574L475.666 36.7629L476.188 38.8677L476.377 41.1091Z" fill="url(#paint1_linear_6717_37750)"/>
    <path fill-rule="evenodd" clip-rule="evenodd" d="M70.6611 20.5371L74.5322 20.742L78.2334 21.3256L81.7836 22.2818L85.2141 23.5919L88.4369 25.2062L91.4709 27.1434L94.2909 29.36L96.8528 31.8311L99.1629 34.563L101.19 37.506L102.896 40.6415L104.299 43.9943H127.488L129.496 44.1806L131.341 44.6711L133.047 45.4782L134.595 46.5586L135.904 47.85L137 49.3774L137.812 51.06L138.315 52.873L138.504 54.8599V81.4215L138.315 83.4022L137.812 85.2214L137 86.904L135.904 88.4251L134.595 89.7228L133.047 90.8032L131.341 91.6041L129.496 92.1008L127.488 92.2871H15.2374L13.2231 92.1008L11.3851 91.6041L9.67301 90.8032L8.13084 89.7228L6.82157 88.4251L5.72631 86.904L4.90802 85.2214L4.40446 83.4022L4.22191 81.4215V73.7163L2.98818 71.5432L1.95587 69.2645L1.12499 66.8617L0.520709 64.3905L0.155623 61.8325L0.0234375 59.1688L0.180802 56.3065L0.602537 53.5684L1.28235 50.9483L2.22024 48.4275L3.41621 45.9998L4.80731 43.7335L6.40613 41.6225L8.21896 39.6605L10.208 37.8723L12.3482 36.2953L14.6457 34.9169L17.1069 33.7434L19.6625 32.8183L22.3188 32.1415L25.0947 31.7255L27.9965 31.5765L30.4891 31.6821L32.8937 31.9925L35.2227 32.5016L37.495 33.2032L39.6666 34.0787L41.7375 35.128L44.0539 32.2905L46.6221 29.7263L49.4736 27.4166L52.5453 25.4049L55.8185 23.7223L59.312 22.3563L62.0123 21.574L64.8008 21.009L67.6775 20.6613L70.6611 20.5371Z" fill="url(#paint2_linear_6717_37750)"/>
    <path d="M322.292 68.8507V68.7885C318.93 59.4559 307.974 55.0323 298.677 56.3886C305.571 52.1641 316.969 51.0379 322.292 57.521V57.577C327.628 51.1499 339.064 52.2201 345.902 56.4446C336.617 55.1505 325.661 59.5555 322.292 68.8445V68.8507Z" fill="url(#paint3_linear_6717_37750)"/>
    <path d="M374.892 61.0497V60.9813C372.558 54.4983 364.97 51.4558 358.53 52.3891C363.305 49.4587 371.19 48.6561 374.892 53.173V53.2104C378.595 48.7556 386.523 49.4773 391.292 52.4264C384.852 51.5305 377.264 54.5791 374.892 61.0248V61.0497Z" fill="url(#paint4_linear_6717_37750)"/>
    <path d="M352.966 39.5971V39.5598C350.632 33.0705 343.044 30.0281 336.566 30.9614C341.348 28.0309 349.232 27.2283 352.966 31.7453V31.7826C356.669 27.3341 364.591 28.0496 369.366 31.0049C362.919 30.1028 355.338 33.1514 352.966 39.5971Z" fill="url(#paint5_linear_6717_37750)"/>
    <path d="M419.498 64.7579C417.883 60.2596 412.623 58.1443 408.145 58.7975C411.456 56.7693 416.918 56.2217 419.498 59.3388C422.072 56.228 427.559 56.7693 430.852 58.7975C426.38 58.1754 421.119 60.2908 419.498 64.7579Z" fill="url(#paint6_linear_6717_37750)"/>
    <path d="M499.171 269.852C508.967 265.829 513.363 267.809 512.364 275.787C511.798 278.263 510.772 279.81 509.294 280.427C505.444 284.716 503.408 288.155 503.186 290.741C502.853 294.619 499.555 299.015 491.294 296.501C485.786 294.825 482.002 297.628 479.948 304.915C473.747 312.443 462.845 315.451 447.237 313.94C431.63 312.429 432.626 305.847 450.218 294.194C455.001 292.469 458.65 291.402 461.171 290.994C463.693 290.585 464.928 288.07 464.878 283.449C464.878 280.556 467.168 278.444 471.75 277.111C476.332 275.778 478.257 273.661 477.522 270.762C480.566 266.662 484.197 266.078 488.416 269.007C492.634 271.936 496.221 272.219 499.171 269.852Z" fill="url(#paint7_linear_6717_37750)"/>
    <path d="M499.629 273.996L485.153 282.832C485.89 279.292 486.772 276.42 487.797 274.221C489.317 270.966 484.622 279.648 484.559 283.194L472.493 290.561L472.526 290.52C472.193 285.778 472.325 282.468 472.928 280.589C472.121 281.576 471.264 288.646 471.728 291.01L460.634 297.787L460.736 297.672C460.736 297.672 460.166 293.758 460.67 291.784C460.169 292.332 459.836 296.446 459.98 298.185L450.832 303.793L451.992 304.855L461.45 298.731C464.004 300.102 467.51 300.318 469.204 300.176C466.073 299.913 463.785 299.254 462.34 298.201C462.109 298.374 461.857 298.519 461.591 298.64L488.223 281.393C488.163 281.453 488.109 281.513 488.055 281.579C492.001 282.089 495.542 281.872 498.682 280.926C498.43 280.468 494.259 282.254 488.751 281.05L499.629 273.996ZM487.234 295.075C484.073 295.157 479.959 293.487 474.889 290.064C474.682 290.281 474.46 290.481 474.223 290.67C479.018 294.131 484.154 295.494 487.234 295.075Z" fill="url(#paint8_linear_6717_37750)"/>
    <path d="M488.552 250.896C498.198 244.893 502.675 246.404 501.982 255.424C500.126 261.888 498.909 266.21 499.517 270.17C500.126 274.131 498.222 281.62 488.552 284.706C482.105 286.754 480.294 289.661 483.122 293.424C484.54 299.205 476.72 303.355 459.665 305.87C434.082 309.646 440.175 300.969 446.753 291.565C451.512 287.21 452.151 284.549 452.151 281.22C452.151 277.891 448.666 272.444 458.675 270.184C463.074 269.271 465.377 265.248 465.587 258.117C466.279 254.536 470.477 253.639 478.18 255.43C481.602 256.03 485.059 254.519 488.552 250.896Z" fill="url(#paint9_linear_6717_37750)"/>
    <path d="M492.944 255.686L482.317 268.027L482.296 267.98C481.145 265.534 480.899 262.811 481.592 260.224L481.616 260.139C480.917 262.133 479.574 264.511 481.799 268.622L472.803 279.093L472.743 279.019C470.944 276.693 470.045 273.635 470.045 269.845C469.631 271.022 469.622 276.427 472.191 279.789L464.212 289.092C463.709 288.376 462.449 286.349 462.449 284.111C462.182 285.661 462.15 287.737 463.619 289.783L451.844 303.473H453.712L465.106 289.61C470.617 291.763 473.709 290.861 475.241 290.23C472.254 290.899 469.085 290.441 465.733 288.859L474.386 278.317C474.341 278.399 474.29 278.481 474.236 278.569C479.996 280.415 485.978 280.631 488.74 279.318C485.781 280.338 481.085 279.83 474.647 277.796L474.779 277.837L484.416 266.074L484.362 266.214C488.599 266.453 491.981 265.221 494.509 262.517C494.11 262.161 491.406 265.753 484.872 265.534L492.944 255.686Z" fill="url(#paint10_linear_6717_37750)"/>
    <path d="M455.681 251.299C451.957 246.566 448.623 247.046 445.681 252.742C444.254 257.662 446.509 260.791 439.138 263.026C434.227 264.518 433.483 267.639 436.908 272.392C438.341 275.381 437.285 277.293 433.738 278.126C430.191 278.96 430.617 282.27 435.016 288.06C436.542 291.233 436.542 293.355 435.016 294.422C432.731 296.024 428.335 300.826 433.738 310.161C439.141 319.497 451.867 312.246 453.774 307.858C455.681 303.47 451.867 297.423 453.774 294.419C455.681 291.416 466.805 290.385 463.834 281.387C461.36 277.707 457.918 276.643 461.375 270.373C464.832 264.104 465.711 266.624 461.375 260.448C459.483 258.677 457.585 255.627 455.681 251.299Z" fill="url(#paint11_linear_6717_37750)"/>
    <path d="M450.613 259.461L447.209 275.068C444.991 272.09 443.392 269.49 442.412 267.272C440.97 263.981 444.364 273.162 447.06 275.71L444.235 288.723V288.671C440.334 285.534 437.872 283.107 436.844 281.39C437.036 282.61 441.893 288.164 444.067 289.535L441.458 301.506L441.443 301.358C441.443 301.358 438.01 298.961 436.844 297.244C436.919 297.96 439.842 301.07 441.302 302.216L439.15 312.089H440.79L442.736 301.643C445.611 300.966 448.25 298.846 449.332 297.647C446.916 299.488 444.79 300.502 442.955 300.694C442.925 300.963 442.859 301.229 442.763 301.487L448.259 272.068C448.259 272.148 448.274 272.23 448.286 272.31C451.47 270.116 453.806 267.669 455.293 264.973C454.763 264.814 453.194 268.772 448.37 271.481L450.613 259.461ZM458.145 282.38C455.974 284.483 451.776 285.964 445.551 286.82C445.572 287.108 445.572 287.393 445.551 287.681C451.602 287.031 456.292 284.67 458.145 282.38Z" fill="url(#paint12_linear_6717_37750)"/>
    <path d="M49.4343 332.641C51.1174 318.866 46.7822 311.441 36.4346 310.381C50.4441 308.954 59.7181 318.065 59.869 332.641C56.9672 332.746 53.491 332.746 49.4343 332.641Z" fill="url(#paint13_linear_6717_37750)"/>
    <path d="M56.2368 332.722C58.9702 318.81 55.61 308.546 46.1445 301.928C58.2274 306.003 66.9093 312.124 69.7298 332.722C65.2379 333.013 60.7287 333.013 56.2368 332.722Z" fill="url(#paint14_linear_6717_37750)"/>
    <path d="M71.8755 332.937C70.6626 319.726 75.1022 312.16 85.1828 310.231C75.8335 309.983 65.3988 309.313 57.9355 332.937C64.2613 332.72 68.9099 332.72 71.8755 332.937Z" fill="url(#paint15_linear_6717_37750)"/>
    <path d="M75.1053 331.364C74.1142 327.42 71.2237 324.669 66.4277 323.105C60.9533 321.556 57.9507 319.734 61.3781 318.407C64.2686 318.206 70.4391 316.234 75.1053 328.014C75.4238 329.114 75.4238 330.265 75.1053 331.364Z" fill="url(#paint16_linear_6717_37750)"/>
    <path d="M75.3485 331.987C72.4638 322.571 69.1898 315.689 65.5206 311.337C62.8306 308.379 63.0194 304.141 65.5206 303.181C68.0808 302.954 72.8001 302.567 76.3395 318.797C76.5696 319.912 77.8202 326.447 76.3395 330.67C76.1685 331.186 75.8263 331.646 75.3485 331.987Z" fill="url(#paint17_linear_6717_37750)"/>
    <path d="M76.0135 329.86C77.3173 325.647 77.1462 320.139 75.5121 313.34C73.0109 306.763 68.7459 298.674 76.5268 298.488C79.6828 298.865 83.4936 301.761 82.0542 316.19C81.1753 322.013 79.6474 325.482 78.0487 329.834C77.4116 330.118 76.6625 330.128 76.0135 329.86Z" fill="url(#paint18_linear_6717_37750)"/>
    <path d="M77.5149 331.497C76.9898 319.583 79.4793 311.029 84.989 305.841C86.4756 304.111 92.1328 302.485 92.1151 307.906C91.5252 310.239 90.2569 315.231 82.9715 322.84C80.5706 325.586 78.9955 329.598 78.9778 330.542C78.9837 331.182 78.5 331.497 77.5149 331.497Z" fill="url(#paint19_linear_6717_37750)"/>
    <path d="M49.2021 333.068C54.6529 332.18 57.6615 331.426 58.2219 330.801C59.0654 329.872 66.4806 325.877 71.1114 329.253C72.1201 328.117 75.347 327.239 77.1993 329.253C78.0428 326.073 83.3166 324.034 85.6114 324.364C88.1952 324.188 95.8227 324.261 96.3949 333.078C94.3126 333.114 78.5856 333.109 49.2021 333.068Z" fill="url(#paint20_linear_6717_37750)"/>
    <path d="M308.99 348.91H219.506C217.504 348.91 216.716 346.341 218.339 345.23C236.789 332.321 238.222 319.418 237.215 308.47C237.079 307.223 238.11 306.264 239.241 306.264H289.242C290.468 306.264 291.41 307.335 291.292 308.47C290.267 319.412 291.724 332.321 310.168 345.23C311.785 346.341 311.021 348.91 308.984 348.91H308.99Z" fill="url(#paint21_linear_6717_37750)"/>
    <path d="M368.533 132.816H159.986C150.248 132.816 142.354 140.616 142.354 150.237V293.379C142.354 303 150.248 310.8 159.986 310.8H368.533C378.272 310.8 386.166 303 386.166 293.379V150.237C386.166 140.616 378.272 132.816 368.533 132.816Z" fill="url(#paint22_linear_6717_37750)"/>
    <path d="M375.927 267.14V152.08C375.927 147.03 371.781 142.934 366.669 142.934H161.847C156.736 142.934 152.59 147.03 152.59 152.08V267.14H375.927Z" fill="white"/>
    <path d="M386.166 275.01V293.378C386.166 302.986 378.265 310.798 368.533 310.798H159.986C150.261 310.798 142.354 302.992 142.354 293.378V275.01H386.166Z" fill="url(#paint23_linear_6717_37750)"/>
    <path d="M405.131 142.921C405.131 156.345 394.073 167.27 380.462 167.27H303.819C288.413 167.27 275.916 154.894 275.916 139.703C275.916 124.512 288.141 112.405 303.304 112.136C308.978 95.1369 325.231 83.4629 343.538 83.4629C364.731 83.4629 382.393 98.6303 385.491 119.058C396.821 121.364 405.137 131.271 405.137 142.921H405.131Z" fill="#E0E3FF"/>
    <path d="M335.76 143.781L325.41 139.181V136.881L335.76 131.994V135.156L330.01 138.031L335.76 140.619V143.781ZM345.535 130.844H342.66L336.91 145.219H339.785L345.535 130.844ZM357.897 138.031V136.881L347.547 131.994V135.444L353.297 138.031L347.547 140.619V143.781L357.897 139.181V138.031ZM364.51 115.031V149.531C364.51 151.256 363.36 152.406 361.635 152.406H321.385C319.66 152.406 318.51 151.256 318.51 149.531V115.031C318.51 113.306 319.66 112.156 321.385 112.156H361.635C363.36 112.156 364.51 113.306 364.51 115.031ZM361.635 126.531H321.385V148.669C321.385 149.244 321.672 149.531 322.247 149.531H360.772C361.347 149.531 361.635 149.244 361.635 148.669V126.531ZM361.635 115.894C361.635 115.319 361.347 115.031 360.772 115.031H322.247C321.672 115.031 321.385 115.319 321.385 115.894V123.656H361.635V115.894ZM327.135 117.906H325.697C324.835 117.906 324.26 118.481 324.26 119.344C324.26 120.206 324.835 120.781 325.697 120.781H327.135C327.997 120.781 328.572 120.206 328.572 119.344C328.572 118.481 327.997 117.906 327.135 117.906ZM334.61 117.906H333.172C332.31 117.906 331.735 118.481 331.735 119.344C331.735 120.206 332.31 120.781 333.172 120.781H334.61C335.472 120.781 336.047 120.206 336.047 119.344C336.047 118.481 335.185 117.906 334.61 117.906Z" fill="#7497FF"/>
    <path d="M270.519 291.916C270.519 295.31 267.694 298.077 264.259 298.077C260.823 298.077 257.998 295.31 257.998 291.916C257.998 288.522 260.8 285.73 264.259 285.73C267.718 285.73 270.519 288.498 270.519 291.916Z" fill="#6C95FF"/>
    <path d="M199.959 247.888C199.959 249.837 198.36 251.411 196.394 251.411C194.427 251.411 192.822 249.837 192.822 247.888C192.822 245.939 194.421 244.365 196.394 244.365C198.366 244.365 199.959 245.945 199.959 247.888Z" fill="#7497FF"/>
    <path d="M212.717 247.888C212.717 249.837 211.118 251.411 209.152 251.411C207.185 251.411 205.58 249.837 205.58 247.888C205.58 245.939 207.179 244.365 209.152 244.365C211.124 244.365 212.717 245.945 212.717 247.888Z" fill="#7497FF"/>
    <path d="M225.475 247.888C225.475 249.837 223.876 251.411 221.909 251.411C219.943 251.411 218.338 249.837 218.338 247.888C218.338 245.939 219.937 244.365 221.909 244.365C223.882 244.365 225.475 245.945 225.475 247.888Z" fill="#7497FF"/>
    <path d="M242.866 190.05L237.216 188.453C236.481 185.088 235.149 181.975 233.324 179.172L236.173 174.081C236.499 173.502 236.392 172.794 235.924 172.326L231.595 168.048C231.127 167.586 230.392 167.48 229.806 167.802L224.671 170.599C221.852 168.803 218.671 167.48 215.283 166.755L213.654 161.172C213.465 160.546 212.878 160.113 212.215 160.113H206.097C205.439 160.113 204.847 160.546 204.657 161.172L203.028 166.755C199.623 167.48 196.454 168.797 193.623 170.599L188.488 167.802C187.913 167.48 187.185 167.586 186.711 168.048L182.381 172.326C181.913 172.788 181.806 173.502 182.132 174.081L184.981 179.172C183.163 181.969 181.812 185.088 181.096 188.453L175.445 190.05C174.8 190.237 174.361 190.817 174.361 191.484V197.517C174.361 198.184 174.8 198.763 175.445 198.939L181.096 200.548C181.812 203.913 183.163 207.026 184.981 209.823L182.132 214.914C181.806 215.481 181.913 216.201 182.381 216.669L186.711 220.947C187.179 221.409 187.913 221.514 188.488 221.193L193.623 218.396C196.454 220.192 199.623 221.514 203.028 222.234L204.657 227.817C204.847 228.443 205.433 228.876 206.097 228.876H212.215C212.872 228.876 213.465 228.443 213.654 227.817L215.283 222.234C218.671 221.509 221.857 220.192 224.671 218.396L229.806 221.193C230.392 221.514 231.127 221.409 231.595 220.947L235.924 216.669C236.392 216.207 236.499 215.481 236.173 214.914L233.324 209.823C235.143 207.026 236.481 203.907 237.216 200.548L242.866 198.939C243.512 198.763 243.95 198.184 243.95 197.517V191.484C243.95 190.817 243.512 190.237 242.866 190.05ZM209.147 203.386C204.189 203.386 200.15 199.401 200.15 194.486C200.15 189.57 204.183 185.597 209.147 185.597C214.11 185.597 218.144 189.582 218.144 194.486C218.144 199.389 214.122 203.386 209.147 203.386Z" fill="url(#paint24_linear_6717_37750)"/>
    <path d="M209.147 177.381C199.593 177.381 191.834 185.052 191.834 194.485C191.834 203.918 199.599 211.607 209.147 211.607C218.695 211.607 226.46 203.936 226.46 194.485C226.46 185.035 218.712 177.381 209.147 177.381ZM209.147 203.386C204.189 203.386 200.15 199.401 200.15 194.485C200.15 189.57 204.183 185.597 209.147 185.597C214.11 185.597 218.144 189.582 218.144 194.485C218.144 199.389 214.122 203.386 209.147 203.386Z" fill="#7497FF"/>
    <path d="M352.901 179.471H317.073C315.907 179.471 314.959 178.535 314.959 177.382C314.959 176.229 315.907 175.293 317.073 175.293H352.901C354.068 175.293 355.016 176.229 355.016 177.382C355.016 178.535 354.068 179.471 352.901 179.471Z" fill="#CCD4FF"/>
    <path d="M297.221 179.471H264.515C263.348 179.471 262.4 178.535 262.4 177.382C262.4 176.229 263.348 175.293 264.515 175.293H297.221C298.388 175.293 299.336 176.229 299.336 177.382C299.336 178.535 298.388 179.471 297.221 179.471Z" fill="#CCD4FF"/>
    <path d="M324.628 193.188H282.077C280.911 193.188 279.963 192.252 279.963 191.099C279.963 189.946 280.911 189.01 282.077 189.01H324.628C325.795 189.01 326.742 189.946 326.742 191.099C326.742 192.252 325.795 193.188 324.628 193.188Z" fill="#CCD4FF"/>
    <path d="M271.024 193.188H264.515C263.348 193.188 262.4 192.252 262.4 191.099C262.4 189.946 263.348 189.01 264.515 189.01H271.024C272.191 189.01 273.139 189.946 273.139 191.099C273.139 192.252 272.191 193.188 271.024 193.188Z" fill="#CCD4FF"/>
    <path d="M352.901 207.864H317.073C315.907 207.864 314.959 206.927 314.959 205.775C314.959 204.622 315.907 203.686 317.073 203.686H352.901C354.068 203.686 355.016 204.622 355.016 205.775C355.016 206.927 354.068 207.864 352.901 207.864Z" fill="#CCD4FF"/>
    <path d="M297.221 207.864H264.515C263.348 207.864 262.4 206.927 262.4 205.775C262.4 204.622 263.348 203.686 264.515 203.686H297.221C298.388 203.686 299.336 204.622 299.336 205.775C299.336 206.927 298.388 207.864 297.221 207.864Z" fill="#CCD4FF"/>
    <path d="M324.628 221.578H282.077C280.911 221.578 279.963 220.642 279.963 219.489C279.963 218.337 280.911 217.4 282.077 217.4H324.628C325.795 217.4 326.742 218.337 326.742 219.489C326.742 220.642 325.795 221.578 324.628 221.578Z" fill="#CCD4FF"/>
    <path d="M271.024 221.578H264.515C263.348 221.578 262.4 220.642 262.4 219.489C262.4 218.337 263.348 217.4 264.515 217.4H271.024C272.191 217.4 273.139 218.337 273.139 219.489C273.139 220.642 272.191 221.578 271.024 221.578Z" fill="#CCD4FF"/>
    <path d="M352.901 236.256H317.073C315.907 236.256 314.959 235.32 314.959 234.167C314.959 233.014 315.907 232.078 317.073 232.078H352.901C354.068 232.078 355.016 233.014 355.016 234.167C355.016 235.32 354.068 236.256 352.901 236.256Z" fill="#CCD4FF"/>
    <path d="M297.221 236.256H264.515C263.348 236.256 262.4 235.32 262.4 234.167C262.4 233.014 263.348 232.078 264.515 232.078H297.221C298.388 232.078 299.336 233.014 299.336 234.167C299.336 235.32 298.388 236.256 297.221 236.256Z" fill="#CCD4FF"/>
    <path d="M324.628 249.971H282.077C280.911 249.971 279.963 249.035 279.963 247.882C279.963 246.729 280.911 245.793 282.077 245.793H324.628C325.795 245.793 326.742 246.729 326.742 247.882C326.742 249.035 325.795 249.971 324.628 249.971Z" fill="#CCD4FF"/>
    <path d="M271.024 249.971H264.515C263.348 249.971 262.4 249.035 262.4 247.882C262.4 246.729 263.348 245.793 264.515 245.793H271.024C272.191 245.793 273.139 246.729 273.139 247.882C273.139 249.035 272.191 249.971 271.024 249.971Z" fill="#CCD4FF"/>
    <circle cx="149.51" cy="290.281" r="28" fill="url(#paint25_linear_6717_37750)"/>
    <path d="M147.276 294.531C147.593 295.481 148.226 296.114 149.176 296.114C150.126 296.114 150.76 295.481 151.076 294.531L152.343 277.114C152.343 275.214 150.76 273.947 149.176 273.947C147.276 273.947 146.01 275.531 146.01 277.431L147.276 294.531ZM149.176 299.281C147.276 299.281 146.01 300.547 146.01 302.447C146.01 304.347 147.276 305.614 149.176 305.614C151.076 305.614 152.343 304.347 152.343 302.447C152.343 300.547 151.076 299.281 149.176 299.281Z" fill="white"/>
    <path fill-rule="evenodd" clip-rule="evenodd" d="M393.776 364.432L393.667 365.124L393.358 365.811L392.816 366.507L391.987 367.23L390.767 368.002L389.165 368.77L387.112 369.51L385.014 370.099L382.615 370.615L379.874 371.051L377.129 371.356L374.18 371.545L371.016 371.616L367.852 371.545L364.903 371.356L362.158 371.051L359.417 370.615L357.019 370.099L354.92 369.51L352.867 368.77L351.265 368.006L350.045 367.23L349.216 366.507L348.675 365.811L348.365 365.124L348.256 364.432L348.365 363.741L348.675 363.054L349.216 362.358L350.045 361.635L351.265 360.863L352.867 360.095L354.92 359.354L357.019 358.766L359.417 358.249L362.158 357.814L364.903 357.508L367.852 357.32L371.016 357.248L374.18 357.32L377.129 357.508L379.874 357.814L382.615 358.249L385.014 358.766L387.112 359.354L389.165 360.095L390.767 360.863L391.987 361.635L392.816 362.358L393.358 363.054L393.667 363.741L393.776 364.432Z" fill="#C5D2F2"/>
    <path d="M366.335 360.259L366.592 361.215L366.777 361.92L366.788 362.227L366.714 362.539L366.515 362.85L366.139 363.2L365.677 363.499L365.165 363.727L364.801 363.828L364.479 363.86L364.189 363.834L362.946 363.508L361.661 363.138L360.787 362.885L360.169 362.693L359.125 362.32L357.956 361.808L357.402 361.505L356.954 361.202L356.597 360.861L356.418 360.547L356.381 360.188L356.475 359.875L356.708 359.585L357.028 359.359L357.463 359.166L358.041 359.017L358.633 358.942L359.31 358.934L360.088 358.996L361.926 359.279L363.73 359.61L365.104 359.885L365.651 360.001L366.335 360.259Z" fill="#333333"/>
    <path d="M385.445 355.131L385.859 356.684L386 357.228L386.055 357.61L386.013 357.967L385.845 358.347L385.724 358.474L385.527 358.573L385.229 358.639L384.746 358.672L384.147 358.646L382.914 358.487L381.847 358.276L381.256 358.132L380.666 357.946L379.592 357.563L378.359 357.062L377.767 356.779L377.288 356.508L376.887 356.212L376.693 355.973L376.619 355.692L376.654 355.432L376.802 355.176L377.024 354.959L377.329 354.766L377.736 354.598L378.163 354.493L378.643 354.439L379.176 354.448L380.328 354.493L381.474 354.478L382.354 354.439L382.705 354.42L385.445 355.131Z" fill="#333333"/>
    <path d="M379.083 303.77L379.268 304.191L379.446 304.691L379.71 305.596L379.958 306.657L380.239 308.2L380.472 309.927L380.686 312.219L380.738 313.659L380.71 315.438L380.62 317.305L380.479 319.376L380.13 323.686L379.799 328.017L379.682 330.114L379.625 332.021L379.64 333.846L379.743 335.349L379.882 336.316L380.069 337.072L380.291 337.653L380.699 338.561L381.176 339.764L382.147 342.514L383.127 345.55L384.031 348.524L384.78 351.08L385.29 352.872L385.477 353.547L385.517 354.006L385.53 354.471L385.506 355.076L385.419 355.695L385.244 356.29L385.066 356.655L384.831 356.95L384.537 357.184L384.197 357.326L383.759 357.371L383.188 357.291L382.633 357.107L381.916 356.744L380.997 356.148L380.178 354.241L379.274 352.262L377.386 348.33L375.565 344.588L374.733 342.826L374.04 341.273L373.439 339.79L373.043 338.617L372.84 337.792L372.566 336.374L371.986 332.786L371.355 328.363L370.725 323.608L370.146 319.028L369.669 315.13L369.344 312.419L369.225 311.405L379.083 303.77Z" fill="url(#paint26_linear_6717_37750)"/>
    <path d="M375.16 309.757L374.982 310.646L374.413 313.495L373.402 318.574L373.063 319.972L372.536 321.676L371.908 323.446L371.163 325.404L369.541 329.456L367.916 333.536L367.171 335.523L366.542 337.345L366.012 339.109L365.666 340.589L365.522 341.56L365.487 342.342L365.542 342.965L365.69 343.955L365.827 345.247L366.021 348.162L366.145 351.353L366.213 354.459L366.241 357.121L366.245 358.982V359.682L366.173 360.122L366.078 360.561L365.912 361.117L365.686 361.669L365.385 362.17L365.134 362.458L364.847 362.66L364.52 362.787L364.176 362.814L363.76 362.722L363.244 362.469L362.773 362.125L362.194 361.564L361.48 360.722L361.192 358.668L360.833 356.535L360.003 352.285L359.175 348.248L358.811 346.351L358.531 344.69L358.33 343.115L358.254 341.882L358.28 341.113L358.391 339.742L358.788 336.215L359.371 331.739L360.066 326.751L360.8 321.689L361.499 316.99L362.09 313.091L362.499 310.431L362.651 309.447L375.16 309.757Z" fill="url(#paint27_linear_6717_37750)"/>
    <path d="M351.501 270.675L351.072 270.331L350.795 270.013L350.351 269.313L350.1 268.947L349.721 268.52L349.238 268.103L348.46 267.585L347.953 267.351L347.558 267.276L347.179 267.295L346.844 267.379L346.199 267.583L345.875 267.628L345.511 267.585L345.132 267.444L344.709 267.22L343.875 266.726L343.461 266.515L343.102 266.393L342.867 266.367L342.664 266.41L342.481 266.515L342.394 266.625L342.379 266.75L342.444 266.909L342.662 267.169L343.185 267.633L344.895 268.965L345.221 269.184L346.014 269.708L347.003 270.338L347.911 270.877L348.284 271.064L348.46 271.122L348.656 271.197L348.976 271.414L349.656 271.998L350.246 272.572L350.499 272.832L351.501 270.675Z" fill="#EFBA9E"/>
    <path d="M375.243 268.921L374.877 268.229L374.594 267.463L374.408 266.672L374.328 265.924L374.337 265.428L374.398 265.011L374.504 264.659L374.633 264.285L374.805 263.604L374.933 262.841L375.005 261.911L374.977 260.953L374.809 259.964L374.607 259.326L374.31 258.725L373.914 258.153L373.563 257.777L373.136 257.436L372.627 257.131L372.021 256.86L371.218 256.632L370.473 256.518L369.778 256.51L369.122 256.598L368.475 256.783L367.885 257.043L367.345 257.378L366.848 257.795L366.411 258.271L366.04 258.798L365.731 259.382L365.485 260.029L365.322 260.693L365.237 261.389L365.234 262.119L365.319 262.891L365.668 264.837L365.966 266.324L366.306 267.645L366.633 268.492L366.851 268.859L367.07 269.104L367.297 269.252L367.534 269.323L367.876 269.418L368.17 269.581L368.423 269.817L368.732 270.251L368.976 270.752L369.297 271.721L369.386 271.837L369.564 271.897L369.893 271.88L370.42 271.755L371.109 271.514L372.511 270.909L373.67 270.339L374.151 270.088L375.243 269.736V268.921Z" fill="#EBB0B0"/>
    <path d="M350.975 269.053L354.142 271.058L356.612 272.671L360.579 275.307L362.16 276.311L363.366 277L364.155 277.381L364.85 277.636L365.457 277.789L366.078 277.855L366.703 277.83L367.339 277.707L367.96 277.507L368.677 277.209L369.498 276.794L371.218 275.808L372.395 275.03L373.381 274.268L373.974 273.72L374.425 273.202L374.629 272.901L374.76 272.618L378.92 281.54L378.739 281.873L378.498 282.217L378.034 282.743L377.446 283.285L376.548 283.957L375.886 284.376L375.056 284.829L374.03 285.315L372.987 285.745L371.73 286.181L370.232 286.625L369.419 286.787L368.594 286.855L367.749 286.832L366.882 286.711L365.747 286.436L364.591 286.037L363.404 285.502L362.253 284.885L361.103 284.187L359.951 283.401L358.285 282.142L356.688 280.814L355.157 279.445L353.772 278.141L351.359 275.793L350.339 274.818L349.61 274.171L349.146 273.7L348.832 273.23L348.649 272.751L348.566 272.242L348.571 271.745L348.664 271.255L348.928 270.557L349.294 269.958L349.745 269.453L350.185 269.131L350.501 269.002L350.755 268.982L350.975 269.053Z" fill="url(#paint28_linear_6717_37750)"/>
    <path d="M375.121 268.744L373.809 268.877L372.99 269.019L372.002 269.294L371.344 269.541L370.629 269.889L369.85 270.351L369.118 270.875L368.338 271.552L367.504 272.405L366.746 273.316L365.951 274.442L365.117 275.812L364.378 277.226L363.618 278.921L362.841 280.932L362.575 281.888L362.385 283.012L362.283 284.325L362.261 286.342L362.351 288.639L362.666 293.501L362.795 296.023L362.843 298.539L362.806 300.212L362.693 301.824L362.501 303.375L362.287 304.535L362.009 305.629L361.664 306.662L361.257 307.639L361.002 308.331L360.904 308.935L360.933 309.466L361.081 309.977L361.325 310.43L361.669 310.834L362.087 311.176L362.573 311.464L363.137 311.696L363.727 311.859L364.348 311.96L365.006 311.994L366.881 312.014L369.56 311.999L371.069 311.947L372.681 311.844L374.302 311.679L375.89 311.438L377.434 311.101L378.823 310.673L379.706 310.31L380.468 309.897L381.123 309.444L381.568 309.045L381.929 308.613L382.215 308.144L382.43 307.639L382.572 306.976L382.696 305.766L382.768 304.4L382.809 302.674V298.876L382.731 294.884L382.618 291.21L382.504 288.364L382.43 286.858L382.278 285.059L382.051 283.278L381.751 281.508L381.38 279.751L380.964 278.09L380.501 276.524L379.967 274.972L379.418 273.602L378.858 272.401L378.214 271.232L377.595 270.325L377.005 269.64L376.486 269.187L376.005 268.905L375.556 268.763L375.121 268.744Z" fill="url(#paint29_linear_6717_37750)"/>
    <path d="M362.791 295.605L362.815 295.984L362.885 296.867L362.987 297.883L363.116 298.656L363.578 299.247L364.087 299.793L364.647 300.298L365.07 300.59L365.505 300.79L366.35 301.06L366.718 301.194L366.978 301.348L367.1 301.484L367.167 301.66L367.178 301.896L367.121 302.124L367.028 302.263L366.897 302.339L366.631 302.382L366.211 302.356L365.105 302.251L364.423 302.246L363.571 302.328L362.641 302.468L362.068 302.474L361.591 302.399L361.358 302.309L361.18 302.175L361.169 301.842L361.143 301.022L361.112 299.993L361.086 299.03L361.11 298.343L361.19 297.782L361.321 297.326L361.607 296.705L361.911 296.28L362.253 295.941L362.515 295.752L362.791 295.605Z" fill="#EFBA9E"/>
    <path d="M371.115 282.049L370.614 283.199L369.865 284.576L368.996 285.975L367.967 287.485L366.874 288.989L365.728 290.493L363.452 293.32L361.446 295.688L360.02 297.312L359.475 297.918L359.795 297.886L360.579 297.883L361.059 297.937L361.568 298.053L362.056 298.246L362.496 298.537L362.742 298.784L362.945 299.091L363.102 299.473L363.239 300.013L363.298 300.483L363.289 300.896L363.197 301.284L363.004 301.628L362.703 301.935L362.331 302.167L361.793 302.376L361.043 302.548L359.967 302.685L358.837 302.741L357.706 302.715L356.622 302.604L355.583 302.397L354.688 302.114L354.13 301.858L353.679 301.572L353.315 301.256L353.03 300.885L352.86 300.474L352.795 300.015L352.862 298.848L353.05 297.58L353.372 296.201L353.784 294.843L354.285 293.434L354.886 291.969L355.886 289.807L357.005 287.655L358.199 285.554L359.401 283.592L360.629 281.721L361.751 280.118L362.849 278.648L363.72 277.568L364.535 276.67L364.986 276.277L366.24 275.482L367.27 274.942L368.111 274.609L368.789 274.429L369.355 274.352L369.832 274.356L370.235 274.433L370.627 274.588L370.96 274.803L371.241 275.078L371.479 275.419L371.707 275.929L371.871 276.53L371.958 277.237L371.969 277.952L371.918 278.724L371.797 279.557L371.516 280.795L371.115 282.049Z" fill="url(#paint30_linear_6717_37750)"/>
    <path d="M366.796 255.33L365.996 255.489L365.369 255.704L364.883 255.966L364.454 256.308L364.132 256.682L363.903 257.088L363.751 257.533L363.666 257.992L363.648 258.476L363.729 259.202L363.91 259.911L364.176 260.588L364.48 261.174L364.875 261.795L365.145 262.154L365.417 262.429L365.654 262.59L366.24 262.854L366.604 263.024L367.14 263.323L367.183 263.305L367.225 263.329L367.312 263.46L367.517 264.096L367.791 265.527L368.519 265.753L368.606 265.738L368.625 265.63L368.612 265.269L368.658 265.069L368.795 264.882L368.969 264.812L369.213 264.839L369.464 264.951L369.717 265.149L369.921 265.409L370.054 265.735L370.082 266.094L369.971 266.52L369.621 267.241L369.518 267.377L369.492 267.383L369.475 267.342L369.645 267.519L370.067 267.895L370.333 268.084L370.603 268.232L370.877 268.313L371.113 268.296L371.76 268.163L372.785 267.985L373.898 267.725L374.415 267.546L374.813 267.347L375.038 267.179L375.175 267.003L375.242 266.816L375.334 266.431L375.495 265.989L375.889 264.966L376.068 264.365L376.214 263.619L376.284 262.816L376.26 261.817L376.146 261.133L375.933 260.461L375.61 259.795L375.216 259.163L374.765 258.566L374.256 258.003L373.426 257.24L372.594 256.628L371.74 256.143L371.028 255.863L369.682 255.526L368.601 255.348L367.589 255.283L366.796 255.33Z" fill="#131322"/>
  </g>
  <defs>
    <linearGradient id="paint0_linear_6717_37750" x1="0" y1="333.142" x2="520" y2="333.142" gradientUnits="userSpaceOnUse">
      <stop stop-color="#FAFBFF"/>
      <stop offset="1" stop-color="#DDE6FF"/>
    </linearGradient>
    <linearGradient id="paint1_linear_6717_37750" x1="415.914" y1="-19.1889" x2="417.509" y2="41.006" gradientUnits="userSpaceOnUse">
      <stop stop-color="#98BEFA" stop-opacity="0.57"/>
      <stop offset="1" stop-color="#98BEFA" stop-opacity="0"/>
    </linearGradient>
    <linearGradient id="paint2_linear_6717_37750" x1="60.9283" y1="-11.2719" x2="60.8463" y2="68.2354" gradientUnits="userSpaceOnUse">
      <stop stop-color="#98BEFA" stop-opacity="0.79"/>
      <stop offset="1" stop-color="#98BEFA" stop-opacity="0"/>
    </linearGradient>
    <linearGradient id="paint3_linear_6717_37750" x1="9854.11" y1="-14935.2" x2="9883.86" y2="-14935.5" gradientUnits="userSpaceOnUse">
      <stop stop-color="#98D6FA"/>
      <stop offset="1" stop-color="#47B0F1"/>
    </linearGradient>
    <linearGradient id="paint4_linear_6717_37750" x1="6753.99" y1="-10385.4" x2="6774.94" y2="-10385.6" gradientUnits="userSpaceOnUse">
      <stop stop-color="#98D6FA"/>
      <stop offset="1" stop-color="#47B0F1"/>
    </linearGradient>
    <linearGradient id="paint5_linear_6717_37750" x1="6753.99" y1="-10385.4" x2="6774.94" y2="-10385.6" gradientUnits="userSpaceOnUse">
      <stop stop-color="#98D6FA"/>
      <stop offset="1" stop-color="#47B0F1"/>
    </linearGradient>
    <linearGradient id="paint6_linear_6717_37750" x1="4606.56" y1="-7242.28" x2="4620.86" y2="-7242.44" gradientUnits="userSpaceOnUse">
      <stop stop-color="#98D6FA"/>
      <stop offset="1" stop-color="#47B0F1"/>
    </linearGradient>
    <linearGradient id="paint7_linear_6717_37750" x1="524.598" y1="285.603" x2="472.473" y2="284.726" gradientUnits="userSpaceOnUse">
      <stop stop-color="#98D6FA"/>
      <stop offset="1" stop-color="#47B0F1"/>
    </linearGradient>
    <linearGradient id="paint8_linear_6717_37750" x1="486.204" y1="288.732" x2="483.046" y2="286.193" gradientUnits="userSpaceOnUse">
      <stop offset="0.03" stop-color="#AFDEF9"/>
      <stop offset="1" stop-color="#7CC9F9"/>
    </linearGradient>
    <linearGradient id="paint9_linear_6717_37750" x1="496.474" y1="286.931" x2="463.801" y2="272.024" gradientUnits="userSpaceOnUse">
      <stop stop-color="#98D6FA"/>
      <stop offset="1" stop-color="#47B0F1"/>
    </linearGradient>
    <linearGradient id="paint10_linear_6717_37750" x1="486.538" y1="273.846" x2="483.232" y2="272.679" gradientUnits="userSpaceOnUse">
      <stop offset="0.03" stop-color="#AFDEF9"/>
      <stop offset="1" stop-color="#7CC9F9"/>
    </linearGradient>
    <linearGradient id="paint11_linear_6717_37750" x1="452.287" y1="307.285" x2="431.665" y2="279.409" gradientUnits="userSpaceOnUse">
      <stop stop-color="#98D6FA"/>
      <stop offset="1" stop-color="#47B0F1"/>
    </linearGradient>
    <linearGradient id="paint12_linear_6717_37750" x1="452.438" y1="278.348" x2="448.315" y2="279.036" gradientUnits="userSpaceOnUse">
      <stop offset="0.03" stop-color="#AFDEF9"/>
      <stop offset="1" stop-color="#7CC9F9"/>
    </linearGradient>
    <linearGradient id="paint13_linear_6717_37750" x1="4912.62" y1="-21135.1" x2="4902.28" y2="-21151.8" gradientUnits="userSpaceOnUse">
      <stop stop-color="#98D6FA"/>
      <stop offset="1" stop-color="#47B0F1"/>
    </linearGradient>
    <linearGradient id="paint14_linear_6717_37750" x1="4931.72" y1="-29067.6" x2="4945.91" y2="-29082.5" gradientUnits="userSpaceOnUse">
      <stop stop-color="#98D6FA"/>
      <stop offset="1" stop-color="#47B0F1"/>
    </linearGradient>
    <linearGradient id="paint15_linear_6717_37750" x1="5711.73" y1="-21402.7" x2="5735.1" y2="-21408.8" gradientUnits="userSpaceOnUse">
      <stop stop-color="#98D6FA"/>
      <stop offset="1" stop-color="#47B0F1"/>
    </linearGradient>
    <linearGradient id="paint16_linear_6717_37750" x1="3129.3" y1="-12420.2" x2="3132.69" y2="-12408.5" gradientUnits="userSpaceOnUse">
      <stop stop-color="#98D6FA"/>
      <stop offset="1" stop-color="#47B0F1"/>
    </linearGradient>
    <linearGradient id="paint17_linear_6717_37750" x1="2719.25" y1="-26978.1" x2="2719.77" y2="-26952.1" gradientUnits="userSpaceOnUse">
      <stop stop-color="#98D6FA"/>
      <stop offset="1" stop-color="#47B0F1"/>
    </linearGradient>
    <linearGradient id="paint18_linear_6717_37750" x1="2031.25" y1="-29491.6" x2="2031.41" y2="-29463.2" gradientUnits="userSpaceOnUse">
      <stop stop-color="#98D6FA"/>
      <stop offset="1" stop-color="#47B0F1"/>
    </linearGradient>
    <linearGradient id="paint19_linear_6717_37750" x1="2968.33" y1="-25541" x2="2969" y2="-25516.4" gradientUnits="userSpaceOnUse">
      <stop stop-color="#98D6FA"/>
      <stop offset="1" stop-color="#47B0F1"/>
    </linearGradient>
    <linearGradient id="paint20_linear_6717_37750" x1="9922.76" y1="-8286.34" x2="9976.09" y2="-8286.34" gradientUnits="userSpaceOnUse">
      <stop stop-color="#98D6FA"/>
      <stop offset="1" stop-color="#47B0F1"/>
    </linearGradient>
    <linearGradient id="paint21_linear_6717_37750" x1="264.165" y1="343.673" x2="262.581" y2="290.393" gradientUnits="userSpaceOnUse">
      <stop stop-color="#7497FF"/>
      <stop offset="0.5" stop-color="#CEDAFF"/>
    </linearGradient>
    <linearGradient id="paint22_linear_6717_37750" x1="142.354" y1="221.808" x2="386.166" y2="221.808" gradientUnits="userSpaceOnUse">
      <stop stop-color="#6C95FF"/>
      <stop offset="1" stop-color="#96A2FF"/>
    </linearGradient>
    <linearGradient id="paint23_linear_6717_37750" x1="264.094" y1="278.088" x2="264.898" y2="308.821" gradientUnits="userSpaceOnUse">
      <stop stop-color="#DBE0FF"/>
      <stop offset="0.5" stop-color="white"/>
    </linearGradient>
    <linearGradient id="paint24_linear_6717_37750" x1="174.355" y1="194.503" x2="243.95" y2="194.503" gradientUnits="userSpaceOnUse">
      <stop stop-color="#B4BDFF"/>
      <stop offset="1" stop-color="#B4BDFF"/>
    </linearGradient>
    <linearGradient id="paint25_linear_6717_37750" x1="121.51" y1="290.281" x2="177.51" y2="290.281" gradientUnits="userSpaceOnUse">
      <stop stop-color="#AFC6FF"/>
      <stop offset="1" stop-color="#A1ACFF"/>
    </linearGradient>
    <linearGradient id="paint26_linear_6717_37750" x1="371.462" y1="302.266" x2="385.53" y2="302.266" gradientUnits="userSpaceOnUse">
      <stop stop-color="#001A25"/>
      <stop offset="0.3" stop-color="#001A25"/>
      <stop offset="0.5" stop-color="#001A25"/>
      <stop offset="0.7" stop-color="#001A25"/>
      <stop offset="1" stop-color="#00415D"/>
    </linearGradient>
    <linearGradient id="paint27_linear_6717_37750" x1="360.574" y1="307.95" x2="375.16" y2="307.95" gradientUnits="userSpaceOnUse">
      <stop stop-color="#001A25"/>
      <stop offset="0.3" stop-color="#001A25"/>
      <stop offset="0.5" stop-color="#001A25"/>
      <stop offset="0.7" stop-color="#001A25"/>
      <stop offset="1" stop-color="#00415D"/>
    </linearGradient>
    <linearGradient id="paint28_linear_6717_37750" x1="348.832" y1="277.925" x2="378.905" y2="277.925" gradientUnits="userSpaceOnUse">
      <stop stop-color="#81D9FF"/>
      <stop offset="1" stop-color="#27A6DD"/>
    </linearGradient>
    <linearGradient id="paint29_linear_6717_37750" x1="361.096" y1="290.394" x2="382.798" y2="290.394" gradientUnits="userSpaceOnUse">
      <stop stop-color="#81D9FF"/>
      <stop offset="1" stop-color="#27A6DD"/>
    </linearGradient>
    <linearGradient id="paint30_linear_6717_37750" x1="352.795" y1="273.508" x2="371.857" y2="273.508" gradientUnits="userSpaceOnUse">
      <stop stop-color="#70D0F9"/>
      <stop offset="1" stop-color="#3BB1E5"/>
    </linearGradient>
    <clipPath id="clip0_6717_37750">
      <rect width="520" height="430" fill="white"/>
    </clipPath>
  </defs>
</svg>