<svg width="520" height="430" viewBox="0 0 520 430" fill="none" xmlns="http://www.w3.org/2000/svg">
  <g clip-path="url(#clip0_6843_67345)">
    <path opacity="0.8" d="M254.285 260.572C318.397 260.572 376.2 268.014 416.545 279.864C456.058 280.347 487.796 297.09 487.796 317.76C487.796 334.434 467.012 348.627 438.209 353.657C431.851 356.275 424.809 358.687 417.083 360.961C417.278 362.408 417.327 363.854 417.327 365.232C417.327 400.992 362.165 429.999 294.092 429.999C233.159 429.999 182.496 406.711 172.618 376.188C90.8031 367.437 33 345.802 33 320.516C33 287.444 131.979 260.572 254.285 260.572Z" fill="url(#paint0_linear_6843_67345)"/>
    <path fill-rule="evenodd" clip-rule="evenodd" d="M449.642 35.9543L449.482 37.893L449.037 39.7121L448.304 41.4498L447.319 43.0681L446.102 44.556L444.638 45.919L443.008 47.0974L441.192 48.0966L439.171 48.9274L437.068 49.5193L434.822 49.8886L432.427 50.0244H379.175L376.78 49.7528L374.512 49.2804L372.37 48.6071L370.306 47.7273L368.445 46.6901L366.76 45.49L365.246 44.1053L363.985 42.6011L362.961 40.9665L362.196 39.2071L361.728 37.3391L361.558 35.3298L361.69 33.5704L362.07 31.8979L362.686 30.2796L363.512 28.7591L364.541 27.3309L365.769 25.9951L367.145 24.8058L368.676 23.7469L370.366 22.8238L369.816 21.4173L369.634 20.7113L369.568 20.0108L369.76 18.2623L370.289 16.6169L371.164 15.0529L372.32 13.6628L373.735 12.4518L375.436 11.42L377.286 10.6598L379.318 10.1873L381.575 10.0027L383.628 10.1765L385.478 10.6326L387.218 11.3277L388.781 12.1911L390.526 9.88867L392.536 7.77083L394.832 5.83762L397.336 4.15965L400.056 2.73146L403.018 1.56394L405.308 0.896004L407.697 0.412703L410.191 0.108605L412.806 0L415.526 0.119468L418.113 0.45072L420.585 0.977464L422.953 1.6997L425.27 2.63372L427.412 3.71436L429.394 4.94705L431.227 6.33179L432.928 7.8903L434.415 9.54655L435.703 11.3114L436.793 13.1903L437.668 15.1724L438.301 17.2196L438.687 19.3483L438.83 21.5748V22.8238L440.922 23.6709L442.799 24.6918L444.484 25.881L445.998 27.2658L447.247 28.7646L448.26 30.3991L449.02 32.1531L449.477 33.994L449.642 35.9543Z" fill="url(#paint1_linear_6843_67345)"/>
    <path fill-rule="evenodd" clip-rule="evenodd" d="M94.7998 17.9609L98.1855 18.1401L101.423 18.6506L104.528 19.4869L107.528 20.6327L110.347 22.0446L113 23.7388L115.467 25.6775L117.707 27.8387L119.728 30.2281L121.5 32.8021L122.992 35.5444L124.22 38.4768H144.501L146.258 38.6397L147.871 39.0687L149.363 39.7746L150.717 40.7195L151.862 41.849L152.82 43.1849L153.53 44.6565L153.971 46.2422L154.136 47.9799V71.2109L153.971 72.9432L153.53 74.5343L152.82 76.0059L151.862 77.3364L150.717 78.4713L149.363 79.4162L147.871 80.1167L146.258 80.5511L144.501 80.714H46.3258L44.5641 80.5511L42.9566 80.1167L41.4591 79.4162L40.1103 78.4713L38.9652 77.3364L38.0073 76.0059L37.2916 74.5343L36.8512 72.9432L36.6916 71.2109V64.4719L35.6125 62.5712L34.7097 60.5783L33.983 58.4768L33.4544 56.3155L33.1351 54.0782L33.0195 51.7486L33.1572 49.2452L33.526 46.8504L34.1206 44.5588L34.9409 42.3541L35.9869 40.2308L37.2035 38.2487L38.6019 36.4024L40.1874 34.6864L41.9271 33.1225L43.7989 31.7432L45.8083 30.5376L47.9609 29.5113L50.196 28.7022L52.5192 28.1103L54.9471 27.7464L57.485 27.6161L59.6651 27.7084L61.7681 27.9799L63.8051 28.4252L65.7925 29.0388L67.6918 29.8045L69.503 30.7223L71.529 28.2406L73.7751 25.9979L76.269 23.9778L78.9556 22.2183L81.8183 20.7467L84.8738 19.552L87.2355 18.8678L89.6744 18.3736L92.1903 18.0695L94.7998 17.9609Z" fill="url(#paint2_linear_6843_67345)"/>
    <path d="M314.877 74.2188V74.1644C311.937 66.0021 302.354 62.1331 294.223 63.3194C300.252 59.6246 310.221 58.6397 314.877 64.3098V64.3587C319.544 58.7376 329.546 59.6736 335.526 63.3684C327.405 62.2365 317.823 66.0892 314.877 74.2134V74.2188Z" fill="url(#paint3_linear_6843_67345)"/>
    <path d="M360.881 67.3971V67.3372C358.84 61.6671 352.204 59.0062 346.571 59.8224C350.747 57.2594 357.643 56.5575 360.881 60.5081V60.5407C364.12 56.6445 371.054 57.2758 375.225 59.8551C369.592 59.0715 362.956 61.7379 360.881 67.3753V67.3971Z" fill="url(#paint4_linear_6843_67345)"/>
    <path d="M341.706 48.6331V48.6005C339.664 42.9249 333.028 40.264 327.362 41.0802C331.544 38.5173 338.44 37.8153 341.706 41.7659V41.7985C344.944 37.9078 351.873 38.5336 356.049 41.1183C350.411 40.3293 343.78 42.9957 341.706 48.6331Z" fill="url(#paint5_linear_6843_67345)"/>
    <path d="M399.895 70.6385C398.483 66.7042 393.882 64.8541 389.965 65.4255C392.861 63.6515 397.639 63.1727 399.895 65.8989C402.146 63.1781 406.945 63.6515 409.825 65.4255C405.913 64.8813 401.313 66.7314 399.895 70.6385Z" fill="url(#paint6_linear_6843_67345)"/>
    <path d="M469.574 262.253C478.142 258.734 481.986 260.466 481.113 267.443C480.617 269.609 479.721 270.962 478.428 271.502C475.06 275.253 473.28 278.261 473.086 280.523C472.795 283.914 469.91 287.759 462.685 285.56C457.867 284.094 454.558 286.546 452.761 292.919C447.338 299.503 437.803 302.134 424.153 300.813C410.503 299.491 411.373 293.734 426.759 283.543C430.942 282.034 434.134 281.101 436.339 280.743C438.545 280.386 439.625 278.186 439.581 274.145C439.581 271.614 441.584 269.767 445.591 268.602C449.599 267.436 451.282 265.584 450.64 263.049C453.302 259.463 456.477 258.952 460.167 261.514C463.857 264.075 466.994 264.323 469.574 262.253Z" fill="url(#paint7_linear_6843_67345)"/>
    <path d="M469.976 265.876L457.315 273.604C457.96 270.507 458.731 267.996 459.628 266.072C460.958 263.225 456.851 270.819 456.796 273.921L446.243 280.363L446.272 280.327C445.98 276.18 446.096 273.285 446.623 271.642C445.918 272.505 445.168 278.689 445.574 280.757L435.871 286.684L435.96 286.583C435.96 286.583 435.462 283.16 435.902 281.433C435.464 281.913 435.173 285.511 435.299 287.031L427.298 291.937L428.313 292.865L436.584 287.509C438.818 288.708 441.884 288.898 443.366 288.773C440.628 288.543 438.627 287.967 437.363 287.046C437.161 287.197 436.941 287.324 436.707 287.43L460 272.345C459.948 272.398 459.901 272.45 459.853 272.508C463.305 272.954 466.402 272.765 469.148 271.937C468.927 271.536 465.279 273.098 460.462 272.045L469.976 265.876ZM459.135 284.311C456.371 284.383 452.773 282.923 448.338 279.929C448.157 280.119 447.963 280.294 447.756 280.459C451.949 283.486 456.442 284.678 459.135 284.311Z" fill="url(#paint8_linear_6843_67345)"/>
    <path d="M460.289 245.674C468.725 240.423 472.641 241.745 472.035 249.634C470.411 255.287 469.347 259.067 469.879 262.531C470.411 265.995 468.746 272.545 460.289 275.244C454.65 277.035 453.066 279.578 455.539 282.869C456.78 287.925 449.94 291.554 435.024 293.754C412.648 297.057 417.977 289.467 423.731 281.243C427.893 277.434 428.452 275.107 428.452 272.195C428.452 269.283 425.404 264.52 434.158 262.543C438.005 261.744 440.019 258.226 440.203 251.989C440.809 248.857 444.48 248.072 451.217 249.639C454.21 250.164 457.233 248.842 460.289 245.674Z" fill="url(#paint9_linear_6843_67345)"/>
    <path d="M464.129 249.863L454.835 260.657L454.817 260.616C453.81 258.477 453.595 256.095 454.2 253.833L454.221 253.759C453.61 255.502 452.435 257.582 454.381 261.178L446.514 270.335L446.461 270.271C444.888 268.237 444.101 265.562 444.101 262.247C443.739 263.276 443.731 268.004 445.979 270.945L439 279.081C438.56 278.455 437.458 276.682 437.458 274.725C437.225 276.08 437.196 277.896 438.481 279.685L428.183 291.659H429.816L439.782 279.534C444.602 281.417 447.306 280.628 448.646 280.076C446.034 280.661 443.262 280.261 440.33 278.877L447.899 269.657C447.859 269.729 447.815 269.8 447.767 269.877C452.805 271.492 458.037 271.681 460.452 270.532C457.864 271.424 453.757 270.981 448.127 269.201L448.242 269.237L456.671 258.949L456.624 259.072C460.329 259.28 463.287 258.203 465.498 255.838C465.149 255.526 462.784 258.669 457.069 258.477L464.129 249.863Z" fill="url(#paint10_linear_6843_67345)"/>
    <path d="M431.539 246.026C428.282 241.886 425.366 242.306 422.793 247.288C421.545 251.591 423.517 254.328 417.071 256.282C412.775 257.587 412.125 260.317 415.12 264.474C416.373 267.088 415.45 268.76 412.348 269.489C409.245 270.218 409.618 273.113 413.465 278.177C414.8 280.952 414.8 282.809 413.465 283.742C411.467 285.142 407.622 289.342 412.348 297.507C417.074 305.672 428.203 299.33 429.871 295.492C431.539 291.655 428.203 286.366 429.871 283.739C431.539 281.113 441.269 280.211 438.67 272.341C436.506 269.122 433.496 268.191 436.519 262.708C439.543 257.225 440.312 259.429 436.519 254.028C434.865 252.478 433.205 249.811 431.539 246.026Z" fill="url(#paint11_linear_6843_67345)"/>
    <path d="M427.107 253.166L424.13 266.816C422.19 264.212 420.792 261.938 419.934 259.997C418.673 257.119 421.642 265.149 423.999 267.378L421.529 278.759V278.714C418.117 275.97 415.964 273.847 415.064 272.345C415.232 273.413 419.481 278.27 421.382 279.469L419.1 289.939L419.087 289.81C419.087 289.81 416.085 287.713 415.064 286.212C415.13 286.838 417.687 289.558 418.964 290.56L417.081 299.195H418.516L420.218 290.059C422.733 289.467 425.04 287.612 425.987 286.564C423.873 288.174 422.014 289.061 420.409 289.229C420.383 289.464 420.325 289.697 420.241 289.922L425.048 264.192C425.048 264.262 425.061 264.334 425.072 264.403C427.857 262.485 429.9 260.345 431.201 257.987C430.736 257.848 429.365 261.309 425.145 263.679L427.107 253.166ZM433.695 273.211C431.796 275.051 428.124 276.346 422.68 277.095C422.699 277.346 422.699 277.596 422.68 277.848C427.972 277.279 432.074 275.214 433.695 273.211Z" fill="url(#paint12_linear_6843_67345)"/>
    <path d="M49.9967 328.536C51.4686 316.488 47.677 309.995 38.627 309.068C50.8798 307.82 58.9909 315.789 59.1229 328.536C56.585 328.628 53.5446 328.628 49.9967 328.536Z" fill="url(#paint13_linear_6843_67345)"/>
    <path d="M55.9459 328.609C58.3366 316.441 55.3977 307.464 47.1191 301.676C57.6869 305.24 65.2802 310.594 67.747 328.609C63.8184 328.864 59.8745 328.864 55.9459 328.609Z" fill="url(#paint14_linear_6843_67345)"/>
    <path d="M69.6236 328.797C68.5628 317.243 72.4457 310.625 81.2623 308.938C73.0853 308.721 63.9591 308.135 57.4316 328.797C62.9642 328.607 67.0299 328.607 69.6236 328.797Z" fill="url(#paint15_linear_6843_67345)"/>
    <path d="M72.4495 327.422C71.5827 323.972 69.0546 321.566 64.86 320.198C60.072 318.843 57.4459 317.25 60.4435 316.089C62.9716 315.913 68.3684 314.188 72.4495 324.492C72.7281 325.453 72.7281 326.46 72.4495 327.422Z" fill="url(#paint16_linear_6843_67345)"/>
    <path d="M72.6601 327.967C70.1371 319.731 67.2736 313.713 64.0645 309.907C61.7118 307.32 61.8769 303.613 64.0645 302.773C66.3037 302.574 70.4312 302.236 73.5268 316.431C73.728 317.406 74.8218 323.122 73.5268 326.815C73.3772 327.267 73.078 327.669 72.6601 327.967Z" fill="url(#paint17_linear_6843_67345)"/>
    <path d="M73.2451 326.105C74.3853 322.421 74.2357 317.604 72.8065 311.658C70.6189 305.905 66.8887 298.831 73.6939 298.668C76.4542 298.998 79.7872 301.53 78.5283 314.15C77.7595 319.243 76.4232 322.277 75.025 326.083C74.4678 326.331 73.8126 326.34 73.2451 326.105Z" fill="url(#paint18_linear_6843_67345)"/>
    <path d="M74.558 327.538C74.0988 317.117 76.2761 309.636 81.095 305.098C82.3952 303.586 87.343 302.164 87.3275 306.904C86.8116 308.945 85.7023 313.311 79.3305 319.966C77.2306 322.368 75.853 325.876 75.8376 326.703C75.8427 327.263 75.4196 327.538 74.558 327.538Z" fill="url(#paint19_linear_6843_67345)"/>
    <path d="M49.7939 328.911C54.5612 328.134 57.1925 327.475 57.6827 326.929C58.4205 326.116 64.9058 322.622 68.956 325.574C69.8382 324.581 72.6604 323.814 74.2805 325.574C75.0183 322.793 79.6308 321.01 81.6378 321.299C83.8976 321.145 90.5687 321.208 91.0691 328.92C89.2479 328.952 75.4929 328.947 49.7939 328.911Z" fill="url(#paint20_linear_6843_67345)"/>
    <path d="M293.441 163.102H297.571V183.751H293.441V163.102Z" fill="#9EB6FF"/>
    <path d="M300.461 159.798C300.461 162.523 298.23 164.753 295.505 164.753C292.779 164.753 290.549 162.523 290.549 159.798C290.549 157.072 292.779 154.842 295.505 154.842C298.23 154.842 300.461 157.072 300.461 159.798Z" fill="#7497FF"/>
    <path d="M283.363 180.447H306.243L327.305 308.473H263.705L283.363 180.447Z" fill="url(#paint21_linear_6843_67345)"/>
    <path d="M280.226 206.879H310.745C314.091 206.879 316.899 209.357 317.312 212.661L317.436 213.487C317.642 215.015 317.229 216.584 316.238 217.823C315.247 219.062 313.884 219.847 312.315 220.053C312.067 220.095 311.819 220.094 311.571 220.094H279.441C276.178 220.094 273.535 217.451 273.535 214.189C273.535 213.982 273.535 213.734 273.576 213.487L273.659 212.743C274.031 209.398 276.88 206.879 280.226 206.879Z" fill="url(#paint22_linear_6843_67345)"/>
    <path fill-rule="evenodd" clip-rule="evenodd" d="M288.898 241.57H302.114C305.541 241.57 308.308 244.337 308.308 247.765C308.308 251.193 305.541 253.96 302.114 253.96H288.898C285.47 253.96 282.703 251.193 282.703 247.765C282.703 244.337 285.47 241.57 288.898 241.57Z" fill="url(#paint23_linear_6843_67345)"/>
    <path d="M370.296 169.09C370.338 188.913 362.45 207.911 348.408 221.87C346.467 223.811 343.287 223.811 341.305 221.87C339.364 219.887 339.364 216.749 341.305 214.766C358.526 197.586 364.639 172.187 357.122 149.06C349.606 125.933 329.7 109 305.664 105.283L307.935 100.328L304.549 95C342.048 99.4603 370.338 131.302 370.296 169.09ZM281.256 95.9086L284.643 100.328L282.908 105.779C259.864 110.446 241.197 127.296 234.135 149.721C227.114 172.146 232.813 196.636 249.043 213.651C250.778 215.675 250.654 218.69 248.713 220.548C246.772 222.407 243.757 222.407 241.816 220.548C223.025 200.849 216.459 172.518 224.636 146.541C232.854 120.646 254.577 101.195 281.256 95.9086ZM345.146 165.414C345.146 178.547 339.942 191.143 330.608 200.394C328.667 202.335 325.487 202.335 323.505 200.394C321.564 198.453 321.564 195.273 323.505 193.332C334.532 182.347 338.042 165.869 332.467 151.331C326.892 136.794 313.304 126.883 297.735 126.057L296.867 124.363L300.584 116.228C325.942 118.788 345.146 140.016 345.146 165.414ZM278.696 118.995L275.598 128.7L277.54 130.434C266.554 136.175 258.873 146.706 256.849 158.93C254.825 171.155 258.666 183.627 267.215 192.589C269.115 194.613 269.073 197.751 267.05 199.692C265.067 201.592 261.887 201.551 259.946 199.527C248.465 187.468 243.798 170.453 247.557 154.222C251.397 137.992 263.085 124.776 278.696 118.995ZM285.923 137.951L292.49 143.856L291.829 146.541C287.41 147.656 283.693 150.588 281.587 154.635C279.481 158.683 279.191 163.432 280.802 167.686L280.926 168.057C281.628 169.709 281.38 171.65 280.265 173.055C279.15 174.5 277.374 175.202 275.598 174.954C273.823 174.707 272.295 173.509 271.634 171.816C266.265 158.476 272.666 143.32 285.923 137.951ZM321.688 161.987C321.688 165.208 321.068 168.429 319.912 171.444C318.88 173.963 316.071 175.202 313.511 174.252C310.991 173.302 309.629 170.535 310.496 167.975L310.537 167.81C313.593 159.922 310 151.001 302.277 147.491L306.655 143.856L303.31 137.166C314.254 140.511 321.688 150.588 321.688 161.987Z" fill="url(#paint24_linear_6843_67345)"/>
    <path d="M345.372 316.836C345.372 326.631 337.403 334.603 327.595 334.603H272.365C261.264 334.603 252.258 325.572 252.258 314.488C252.258 303.403 261.067 294.568 271.994 294.372C276.083 281.968 287.794 273.449 300.987 273.449C316.259 273.449 328.986 284.517 331.219 299.423C339.384 301.106 345.376 308.335 345.376 316.836H345.372Z" fill="url(#paint25_linear_6843_67345)"/>
    <path d="M316.248 298.111L314.611 299.755C312.867 301.506 310.028 301.506 308.284 299.755C306.54 298.004 306.54 295.153 308.284 293.403L309.921 291.759C310.823 290.852 310.22 289.784 308.593 290.038C306.877 290.305 305.291 291.113 304.067 292.344C303.102 293.316 302.394 294.512 302.006 295.825C301.619 297.138 301.564 298.527 301.847 299.867L288.121 313.65C287.283 314.494 286.813 315.635 286.813 316.825C286.813 318.014 287.283 319.155 288.121 319.999C288.536 320.416 289.029 320.746 289.571 320.971C290.114 321.197 290.696 321.313 291.284 321.313C291.871 321.313 292.453 321.197 292.996 320.971C293.538 320.746 294.031 320.416 294.446 319.999L308.174 306.216C309.264 306.448 310.39 306.454 311.483 306.235C312.575 306.015 313.611 305.575 314.528 304.941C315.444 304.307 316.221 303.493 316.812 302.548C317.402 301.603 317.794 300.548 317.962 299.446C318.216 297.812 317.153 297.204 316.248 298.111ZM292.338 317.881C291.756 318.466 290.812 318.466 290.229 317.881C289.646 317.295 289.646 316.349 290.229 315.764C290.512 315.498 290.888 315.352 291.277 315.358C291.666 315.365 292.037 315.522 292.311 315.798C292.586 316.073 292.742 316.445 292.747 316.834C292.752 317.223 292.606 317.598 292.338 317.881ZM290.848 298.385L296.016 303.576L298.126 301.46L292.958 296.269L291.799 294.047L288.11 291.4L286 293.517L288.635 297.222L290.848 298.385ZM308.145 309.396C308.075 309.326 307.993 309.271 307.903 309.234C307.813 309.196 307.716 309.177 307.618 309.177C307.52 309.177 307.423 309.196 307.332 309.234C307.242 309.271 307.16 309.326 307.091 309.396L303.927 312.573C303.788 312.714 303.71 312.904 303.71 313.102C303.71 313.3 303.788 313.491 303.927 313.631L311.39 321.124C312.556 322.292 314.446 322.292 315.61 321.124C316.776 319.956 316.776 318.059 315.61 316.889L308.145 309.396Z" fill="white"/>
    <path d="M199.068 292.689C203.313 294.004 201.619 294.792 200.21 295.562C197.622 296.971 198.783 298.21 200.096 299.356C202.057 301.046 216.637 305.103 232.454 301.647C247.205 298.417 244.978 292.633 241.19 290.003C238.145 287.9 224.821 283.111 209.613 284.144C200.458 284.764 196.518 286.323 195.757 287.506C194.5 289.496 194.329 291.224 199.068 292.689Z" fill="#C5D2F2"/>
    <path d="M212.172 287.182C213.45 287.992 214.261 288.086 214.635 288.896C215.009 289.676 214.541 291.765 213.606 292.357C212.421 293.105 210.301 294.29 209.709 294.633C209.117 294.976 205.001 297.221 203.661 296.535C202.32 295.849 203.162 293.604 205.469 291.796C207.776 289.988 211.33 287.587 211.33 287.587L212.172 287.182Z" fill="#333333"/>
    <path d="M227.761 287.182C226.483 287.992 225.672 288.086 225.298 288.896C224.924 289.676 225.392 291.765 226.327 292.357C227.512 293.105 229.632 294.29 230.224 294.633C230.816 294.976 234.932 297.221 236.272 296.535C237.613 295.849 236.771 293.604 234.464 291.796C232.157 289.988 228.603 287.587 228.603 287.587L227.761 287.182Z" fill="#333333"/>
    <path d="M209.772 289.832C204.877 258.998 204.378 239.513 208.306 231.376C210.956 232.155 218.688 231.999 231.533 230.877C235.243 244.501 234.651 264.205 229.725 289.988C227.667 290.268 228.384 291.204 224.924 290.206C224.768 288.554 224.113 254.197 220.278 245.966C218.751 244.158 218.782 244.376 218.283 245.966C217.784 247.556 214.417 277.299 214.417 289.832C212.983 290.643 211.455 290.643 209.772 289.832Z" fill="url(#paint26_linear_6843_67345)"/>
    <path d="M253.451 199.855L251.767 201.289C251.269 201.071 250.894 200.635 250.676 200.105C250.271 199.294 250.396 198.109 250.146 198.39C249.803 198.795 249.616 200.51 249.616 203.534L250.707 204.688L254.979 201.258C255.353 198.608 255.353 197.08 254.979 196.644C254.573 196.332 254.074 197.361 253.451 199.855Z" fill="#EFBA9E"/>
    <path d="M183.209 209.147C182.648 209.708 182.866 213.387 183.209 213.886C183.396 214.166 184.924 215.289 187.823 217.19L188.79 216.193C188.79 213.044 188.603 211.267 188.229 210.893C187.886 210.612 188.01 211.797 187.667 212.67C187.449 213.2 187.044 213.605 186.545 213.855C185.921 213.387 185.298 212.919 184.737 212.358C184.394 211.953 183.77 208.586 183.209 209.147Z" fill="#EFBA9E"/>
    <path d="M216.381 184.828C217.878 184.828 219.312 185.451 220.372 186.511C220.715 186.823 220.995 187.197 221.245 187.603L221.276 187.634L221.213 187.447C221.681 187.54 221.931 188.288 222.055 189.255C223.209 188.538 224.518 192.373 221.868 192.653C221.806 192.903 221.712 193.152 221.588 193.401C221.089 194.337 220.528 195.521 219.686 196.301L219.935 198.857L214.978 199.356L214.76 196.55C214.261 196.238 213.825 195.802 213.451 195.303C213.014 194.711 212.64 194.087 212.328 193.433C209.491 193.776 210.146 189.504 211.486 190.159C211.486 190.097 211.486 190.034 211.486 189.972C211.486 188.818 211.86 187.727 212.515 186.792C213.357 185.514 214.822 184.765 216.381 184.828ZM221.401 188.164V188.195C221.401 188.413 221.463 188.6 221.556 188.787L221.401 188.164ZM221.213 187.603L221.369 188.164V188.101C221.369 187.977 221.338 187.852 221.307 187.758L221.276 187.665L221.213 187.603Z" fill="#EBB0B0"/>
    <path d="M222.274 189.817C223.895 188.04 224.144 182.522 220.746 181.368C220.341 180.963 219.561 180.9 218.501 180.963C217.753 180.994 217.691 181.275 217.286 181.243C216.88 181.212 216.257 180.339 214.76 180.277C213.95 180.215 211.58 180.994 211.081 181.68C210.115 182.522 208.899 184.455 208.743 186.793C208.587 189.131 209.897 190.191 211.05 191.906C211.954 191.251 212.079 189.911 212.671 188.975C213.513 187.853 214.604 186.949 215.883 186.294C218.657 185.702 219.998 185.608 221.463 188.009C221.494 187.946 221.744 188.57 222.274 189.817Z" fill="#131322"/>
    <path d="M214.729 197.361C216.662 198.484 218.47 198.484 220.122 197.361C221.276 197.33 227.355 193.932 237.394 211.796C239.14 209.832 241.541 210.269 249.896 201.414C250.582 202.319 251.985 201.57 252.359 203.347C251.704 205.436 247.121 219.715 238.517 222.334C235.586 222.521 232.406 220.744 228.166 215.88C230.286 219.403 233.965 231.874 232.468 232.685C230.972 233.495 215.571 237.205 207.059 233.495C207.184 231.188 208.837 220.837 210.925 215.88C209.211 218.842 207.652 226.605 196.335 224.111C192.095 223.456 188.852 220.682 186.67 215.818C186.888 214.54 187.699 214.103 189.164 214.571C190.131 215.537 198.517 218.219 200.356 214.571C202.196 210.923 202.819 205.561 207.091 201.414C209.086 199.294 211.798 197.86 214.729 197.361Z" fill="url(#paint27_linear_6843_67345)"/>
    <path d="M216.343 114.616C195.182 132.836 174.81 141.354 155.23 140.08C139.512 138.719 131.522 120.28 141.224 113.738C150.927 107.197 162.21 111.324 170.684 123.88C179.157 136.436 182.669 155.271 177.796 167.959" stroke="url(#paint28_linear_6843_67345)" stroke-width="0.429688" stroke-linecap="round"/>
    <path d="M159.779 190.459C154.452 186.138 149.419 187.394 144.776 194.278C142.382 198.096 141.453 203.472 136.811 204.678C152.742 206.185 160.366 201.462 159.779 190.459Z" fill="url(#paint29_linear_6843_67345)"/>
    <path d="M165.811 184.951C165.008 188.362 159.342 193.046 148.811 198.951" stroke="url(#paint30_linear_6843_67345)" stroke-width="0.429688" stroke-linecap="round"/>
  </g>
  <defs>
    <linearGradient id="paint0_linear_6843_67345" x1="33" y1="345.286" x2="487.796" y2="345.286" gradientUnits="userSpaceOnUse">
      <stop stop-color="#FAFBFF"/>
      <stop offset="1" stop-color="#DDE6FF"/>
    </linearGradient>
    <linearGradient id="paint1_linear_6843_67345" x1="396.761" y1="-16.7828" x2="398.155" y2="35.8642" gradientUnits="userSpaceOnUse">
      <stop stop-color="#98BEFA" stop-opacity="0.57"/>
      <stop offset="1" stop-color="#98BEFA" stop-opacity="0"/>
    </linearGradient>
    <linearGradient id="paint2_linear_6843_67345" x1="86.2874" y1="-9.85944" x2="86.2157" y2="59.6782" gradientUnits="userSpaceOnUse">
      <stop stop-color="#98BEFA" stop-opacity="0.79"/>
      <stop offset="1" stop-color="#98BEFA" stop-opacity="0"/>
    </linearGradient>
    <linearGradient id="paint3_linear_6843_67345" x1="8651.48" y1="-13048.4" x2="8677.5" y2="-13048.7" gradientUnits="userSpaceOnUse">
      <stop stop-color="#98D6FA"/>
      <stop offset="1" stop-color="#47B0F1"/>
    </linearGradient>
    <linearGradient id="paint4_linear_6843_67345" x1="5940.09" y1="-9069.14" x2="5958.41" y2="-9069.34" gradientUnits="userSpaceOnUse">
      <stop stop-color="#98D6FA"/>
      <stop offset="1" stop-color="#47B0F1"/>
    </linearGradient>
    <linearGradient id="paint5_linear_6843_67345" x1="5940.09" y1="-9069.15" x2="5958.41" y2="-9069.34" gradientUnits="userSpaceOnUse">
      <stop stop-color="#98D6FA"/>
      <stop offset="1" stop-color="#47B0F1"/>
    </linearGradient>
    <linearGradient id="paint6_linear_6843_67345" x1="4061.94" y1="-6320.15" x2="4074.44" y2="-6320.29" gradientUnits="userSpaceOnUse">
      <stop stop-color="#98D6FA"/>
      <stop offset="1" stop-color="#47B0F1"/>
    </linearGradient>
    <linearGradient id="paint7_linear_6843_67345" x1="491.813" y1="276.028" x2="446.224" y2="275.262" gradientUnits="userSpaceOnUse">
      <stop stop-color="#98D6FA"/>
      <stop offset="1" stop-color="#47B0F1"/>
    </linearGradient>
    <linearGradient id="paint8_linear_6843_67345" x1="458.234" y1="278.764" x2="455.472" y2="276.543" gradientUnits="userSpaceOnUse">
      <stop offset="0.03" stop-color="#AFDEF9"/>
      <stop offset="1" stop-color="#7CC9F9"/>
    </linearGradient>
    <linearGradient id="paint9_linear_6843_67345" x1="467.217" y1="277.19" x2="438.641" y2="264.152" gradientUnits="userSpaceOnUse">
      <stop stop-color="#98D6FA"/>
      <stop offset="1" stop-color="#47B0F1"/>
    </linearGradient>
    <linearGradient id="paint10_linear_6843_67345" x1="458.527" y1="265.747" x2="455.635" y2="264.726" gradientUnits="userSpaceOnUse">
      <stop offset="0.03" stop-color="#AFDEF9"/>
      <stop offset="1" stop-color="#7CC9F9"/>
    </linearGradient>
    <linearGradient id="paint11_linear_6843_67345" x1="428.571" y1="294.991" x2="410.535" y2="270.611" gradientUnits="userSpaceOnUse">
      <stop stop-color="#98D6FA"/>
      <stop offset="1" stop-color="#47B0F1"/>
    </linearGradient>
    <linearGradient id="paint12_linear_6843_67345" x1="428.703" y1="269.685" x2="425.097" y2="270.286" gradientUnits="userSpaceOnUse">
      <stop offset="0.03" stop-color="#AFDEF9"/>
      <stop offset="1" stop-color="#7CC9F9"/>
    </linearGradient>
    <linearGradient id="paint13_linear_6843_67345" x1="4303.38" y1="-18447.3" x2="4294.34" y2="-18461.9" gradientUnits="userSpaceOnUse">
      <stop stop-color="#98D6FA"/>
      <stop offset="1" stop-color="#47B0F1"/>
    </linearGradient>
    <linearGradient id="paint14_linear_6843_67345" x1="4320.09" y1="-25385.1" x2="4332.5" y2="-25398.2" gradientUnits="userSpaceOnUse">
      <stop stop-color="#98D6FA"/>
      <stop offset="1" stop-color="#47B0F1"/>
    </linearGradient>
    <linearGradient id="paint15_linear_6843_67345" x1="5002.29" y1="-18681.4" x2="5022.72" y2="-18686.7" gradientUnits="userSpaceOnUse">
      <stop stop-color="#98D6FA"/>
      <stop offset="1" stop-color="#47B0F1"/>
    </linearGradient>
    <linearGradient id="paint16_linear_6843_67345" x1="2743.67" y1="-10825.2" x2="2746.63" y2="-10815" gradientUnits="userSpaceOnUse">
      <stop stop-color="#98D6FA"/>
      <stop offset="1" stop-color="#47B0F1"/>
    </linearGradient>
    <linearGradient id="paint17_linear_6843_67345" x1="2385.04" y1="-23557.7" x2="2385.49" y2="-23534.9" gradientUnits="userSpaceOnUse">
      <stop stop-color="#98D6FA"/>
      <stop offset="1" stop-color="#47B0F1"/>
    </linearGradient>
    <linearGradient id="paint18_linear_6843_67345" x1="1783.31" y1="-25756" x2="1783.45" y2="-25731.1" gradientUnits="userSpaceOnUse">
      <stop stop-color="#98D6FA"/>
      <stop offset="1" stop-color="#47B0F1"/>
    </linearGradient>
    <linearGradient id="paint19_linear_6843_67345" x1="2602.89" y1="-22300.8" x2="2603.48" y2="-22279.3" gradientUnits="userSpaceOnUse">
      <stop stop-color="#98D6FA"/>
      <stop offset="1" stop-color="#47B0F1"/>
    </linearGradient>
    <linearGradient id="paint20_linear_6843_67345" x1="8685.29" y1="-7209.69" x2="8731.93" y2="-7209.69" gradientUnits="userSpaceOnUse">
      <stop stop-color="#98D6FA"/>
      <stop offset="1" stop-color="#47B0F1"/>
    </linearGradient>
    <linearGradient id="paint21_linear_6843_67345" x1="263.705" y1="244.46" x2="327.305" y2="244.46" gradientUnits="userSpaceOnUse">
      <stop stop-color="#6C95FF"/>
      <stop offset="1" stop-color="#96A2FF"/>
    </linearGradient>
    <linearGradient id="paint22_linear_6843_67345" x1="273.535" y1="213.487" x2="317.488" y2="213.487" gradientUnits="userSpaceOnUse">
      <stop stop-color="#E0E3FF"/>
      <stop offset="1" stop-color="#E0E3FF"/>
    </linearGradient>
    <linearGradient id="paint23_linear_6843_67345" x1="282.703" y1="247.765" x2="308.308" y2="247.765" gradientUnits="userSpaceOnUse">
      <stop stop-color="#E0E3FF"/>
      <stop offset="1" stop-color="#E0E3FF"/>
    </linearGradient>
    <linearGradient id="paint24_linear_6843_67345" x1="221.179" y1="159.163" x2="370.297" y2="159.163" gradientUnits="userSpaceOnUse">
      <stop stop-color="#6C95FF"/>
      <stop offset="1" stop-color="#96A2FF"/>
    </linearGradient>
    <linearGradient id="paint25_linear_6843_67345" x1="252.258" y1="304.026" x2="345.376" y2="304.026" gradientUnits="userSpaceOnUse">
      <stop stop-color="#AFC6FF"/>
      <stop offset="1" stop-color="#A1ACFF"/>
    </linearGradient>
    <linearGradient id="paint26_linear_6843_67345" x1="209.565" y1="229.2" x2="233.93" y2="229.2" gradientUnits="userSpaceOnUse">
      <stop stop-color="#001A25"/>
      <stop offset="0.3" stop-color="#001A25"/>
      <stop offset="0.5" stop-color="#001A25"/>
      <stop offset="0.7" stop-color="#001A25"/>
      <stop offset="1" stop-color="#00415D"/>
    </linearGradient>
    <linearGradient id="paint27_linear_6843_67345" x1="187.244" y1="216.113" x2="252.326" y2="216.113" gradientUnits="userSpaceOnUse">
      <stop stop-color="#81D9FF"/>
      <stop offset="1" stop-color="#27A6DD"/>
    </linearGradient>
    <linearGradient id="paint28_linear_6843_67345" x1="182.901" y1="96.5963" x2="167.428" y2="178.163" gradientUnits="userSpaceOnUse">
      <stop stop-color="#EFF2FF"/>
      <stop offset="1" stop-color="#8A9EFF"/>
    </linearGradient>
    <linearGradient id="paint29_linear_6843_67345" x1="124.218" y1="205.975" x2="147.071" y2="192.652" gradientUnits="userSpaceOnUse">
      <stop stop-color="#ACBAFF"/>
      <stop offset="1" stop-color="#8A9EFF"/>
    </linearGradient>
    <linearGradient id="paint30_linear_6843_67345" x1="163.141" y1="189.764" x2="150.394" y2="200.6" gradientUnits="userSpaceOnUse">
      <stop stop-color="#D4DDFF"/>
      <stop offset="1" stop-color="#849DFF"/>
    </linearGradient>
    <clipPath id="clip0_6843_67345">
      <rect width="520" height="430" fill="white"/>
    </clipPath>
  </defs>
</svg>