<svg width="520" height="430" viewBox="0 0 520 430" fill="none" xmlns="http://www.w3.org/2000/svg">
  <g clip-path="url(#clip0_6843_67374)">
    <g clip-path="url(#clip1_6843_67374)">
      <path opacity="0.8" d="M264.011 256.645C328.128 256.645 385.937 264.092 426.285 275.952C465.802 276.435 497.542 293.191 497.542 313.877C497.542 330.564 476.757 344.769 447.951 349.802C441.593 352.423 434.55 354.836 426.823 357.112C427.018 358.56 427.067 360.008 427.067 361.387C427.067 397.174 371.9 426.204 303.822 426.204C242.883 426.204 192.216 402.898 182.337 372.351C100.515 363.593 42.707 341.942 42.707 316.635C42.707 283.537 141.695 256.645 264.011 256.645Z" fill="url(#paint0_linear_6843_67374)"/>
      <path fill-rule="evenodd" clip-rule="evenodd" d="M459.385 35.7794L459.225 37.7196L458.779 39.5402L458.047 41.2793L457.062 42.8988L455.845 44.3879L454.38 45.752L452.751 46.9313L450.934 47.9312L448.913 48.7627L446.81 49.3551L444.564 49.7247L442.169 49.8605H388.911L386.516 49.5888L384.248 49.116L382.106 48.4421L380.042 47.5617L378.181 46.5237L376.496 45.3226L374.982 43.9368L373.721 42.4314L372.697 40.7956L371.932 39.0348L371.464 37.1653L371.293 35.1545L371.425 33.3937L371.805 31.7198L372.422 30.1003L373.248 28.5786L374.277 27.1493L375.505 25.8124L376.881 24.6222L378.412 23.5624L380.102 22.6386L379.552 21.231L379.37 20.5245L379.304 19.8234L379.497 18.0735L380.025 16.4268L380.901 14.8616L382.057 13.4704L383.472 12.2584L385.173 11.2259L387.023 10.465L389.055 9.99221L391.312 9.80743L393.366 9.98134L395.215 10.4378L396.955 11.1335L398.519 11.9976L400.264 9.69331L402.274 7.57381L404.57 5.63908L407.075 3.95979L409.795 2.53048L412.757 1.36205L415.047 0.693583L417.437 0.209903L419.931 -0.0944344L422.546 -0.203125L425.266 -0.0835628L427.854 0.247949L430.326 0.775107L432.693 1.49791L435.011 2.43267L437.153 3.51415L439.135 4.74781L440.968 6.13364L442.67 7.69337L444.156 9.35093L445.444 11.1172L446.535 12.9975L447.41 14.9812L448.043 17.03L448.429 19.1604L448.572 21.3886V22.6386L450.664 23.4864L452.541 24.5081L454.226 25.6982L455.74 27.0841L456.99 28.584L458.003 30.2198L458.763 31.9752L459.22 33.8176L459.385 35.7794Z" fill="url(#paint1_linear_6843_67374)"/>
      <path fill-rule="evenodd" clip-rule="evenodd" d="M104.512 13.8438L107.898 14.0231L111.136 14.5339L114.241 15.3709L117.241 16.5176L120.06 17.9306L122.714 19.6262L125.181 21.5663L127.422 23.7293L129.442 26.1205L131.215 28.6965L132.707 31.441L133.935 34.3757H154.218L155.974 34.5388L157.588 34.9681L159.08 35.6746L160.434 36.6202L161.579 37.7506L162.537 39.0875L163.248 40.5603L163.688 42.1472L163.853 43.8863V67.1356L163.688 68.8692L163.248 70.4615L162.537 71.9343L161.579 73.2658L160.434 74.4016L159.08 75.3473L157.588 76.0483L155.974 76.4831L154.218 76.6461H56.034L54.2721 76.4831L52.6644 76.0483L51.1669 75.3473L49.818 74.4016L48.6728 73.2658L47.7148 71.9343L46.999 70.4615L46.5586 68.8692L46.3989 67.1356V60.3912L45.3198 58.4891L44.4168 56.4946L43.6901 54.3914L43.1615 52.2284L42.8422 49.9894L42.7266 47.6579L42.8642 45.1526L43.2331 42.7559L43.8277 40.4625L44.6481 38.256L45.6942 36.1311L46.9109 34.1475L48.3094 32.2997L49.8951 30.5824L51.6349 29.0172L53.5068 27.6368L55.5164 26.4303L57.6692 25.4032L59.9045 24.5934L62.2279 24.001L64.656 23.6369L67.1941 23.5065L69.3744 23.5989L71.4776 23.8706L73.5147 24.3163L75.5023 24.9304L77.4018 25.6966L79.2132 26.6151L81.2393 24.1315L83.4857 21.887L85.9798 19.8653L88.6666 18.1045L91.5296 16.6317L94.5853 15.4361L96.9472 14.7513L99.3863 14.2568L101.902 13.9524L104.512 13.8438Z" fill="url(#paint2_linear_6843_67374)"/>
      <path d="M334.169 55.525V55.4846C331.985 49.4178 324.868 46.5421 318.828 47.4238C323.307 44.6776 330.711 43.9455 334.169 48.1599V48.1963C337.636 44.0183 345.064 44.714 349.506 47.4602C343.474 46.619 336.357 49.4825 334.169 55.521V55.525Z" fill="url(#paint3_linear_6843_67374)"/>
      <path d="M368.338 50.4543V50.4099C366.822 46.1955 361.893 44.2177 357.709 44.8244C360.811 42.9194 365.933 42.3976 368.338 45.334V45.3582C370.743 42.4624 375.894 42.9315 378.991 44.8486C374.808 44.2662 369.878 46.248 368.338 50.4382V50.4543Z" fill="url(#paint4_linear_6843_67374)"/>
      <path d="M354.097 36.5085V36.4842C352.581 32.2658 347.651 30.288 343.443 30.8947C346.549 28.9897 351.671 28.468 354.097 31.4043V31.4286C356.502 28.5367 361.648 29.0018 364.75 30.923C360.563 30.3365 355.637 32.3183 354.097 36.5085Z" fill="url(#paint5_linear_6843_67374)"/>
      <path d="M397.315 52.8651C396.266 49.9409 392.849 48.5658 389.939 48.9905C392.091 47.672 395.639 47.316 397.315 49.3424C398.987 47.3201 402.551 47.672 404.69 48.9905C401.785 48.586 398.368 49.9612 397.315 52.8651Z" fill="url(#paint6_linear_6843_67374)"/>
      <path d="M479.318 258.327C487.887 254.805 491.731 256.538 490.858 263.521C490.362 265.689 489.465 267.043 488.172 267.583C484.805 271.337 483.024 274.347 482.83 276.611C482.539 280.005 479.654 283.853 472.428 281.652C467.61 280.185 464.3 282.639 462.504 289.017C457.08 295.606 447.544 298.24 433.893 296.917C420.241 295.594 421.112 289.833 436.5 279.633C440.683 278.123 443.875 277.19 446.08 276.832C448.286 276.474 449.367 274.273 449.322 270.228C449.322 267.696 451.326 265.847 455.333 264.681C459.341 263.514 461.025 261.661 460.382 259.124C463.044 255.535 466.22 255.024 469.91 257.587C473.601 260.151 476.737 260.398 479.318 258.327Z" fill="url(#paint7_linear_6843_67374)"/>
      <path d="M479.721 261.954L467.059 269.689C467.704 266.59 468.475 264.076 469.372 262.151C470.702 259.302 466.594 266.902 466.539 270.005L455.986 276.453L456.014 276.417C455.723 272.267 455.839 269.369 456.366 267.725C455.66 268.589 454.91 274.778 455.317 276.847L445.613 282.778L445.702 282.678C445.702 282.678 445.204 279.252 445.644 277.524C445.206 278.004 444.915 281.605 445.041 283.126L437.039 288.035L438.054 288.964L446.326 283.604C448.561 284.804 451.627 284.994 453.108 284.869C450.37 284.639 448.369 284.063 447.105 283.141C446.903 283.292 446.683 283.419 446.449 283.525L469.744 268.428C469.692 268.481 469.645 268.534 469.597 268.592C473.049 269.038 476.146 268.848 478.892 268.02C478.672 267.619 475.024 269.182 470.206 268.128L479.721 261.954ZM468.879 280.404C466.115 280.476 462.516 279.014 458.081 276.019C457.9 276.208 457.706 276.384 457.499 276.549C461.693 279.579 466.185 280.772 468.879 280.404Z" fill="url(#paint8_linear_6843_67374)"/>
      <path d="M470.033 241.735C478.471 236.48 482.386 237.803 481.781 245.698C480.157 251.356 479.092 255.139 479.625 258.605C480.157 262.072 478.492 268.627 470.033 271.328C464.395 273.121 462.81 275.666 465.284 278.959C466.524 284.019 459.684 287.651 444.766 289.853C422.389 293.158 427.718 285.563 433.473 277.332C437.635 273.52 438.194 271.191 438.194 268.277C438.194 265.363 435.146 260.595 443.901 258.617C447.748 257.818 449.762 254.296 449.946 248.055C450.552 244.92 454.224 244.135 460.961 245.703C463.954 246.228 466.978 244.906 470.033 241.735Z" fill="url(#paint9_linear_6843_67374)"/>
      <path d="M473.873 245.928L464.579 256.73L464.56 256.689C463.553 254.548 463.338 252.164 463.944 249.901L463.965 249.826C463.354 251.571 462.179 253.653 464.125 257.251L456.257 266.416L456.204 266.351C454.631 264.315 453.844 261.639 453.844 258.321C453.482 259.351 453.474 264.083 455.722 267.026L448.743 275.168C448.302 274.542 447.2 272.768 447.2 270.809C446.967 272.165 446.938 273.982 448.223 275.773L437.924 287.756H439.558L449.524 275.622C454.345 277.506 457.049 276.716 458.389 276.164C455.777 276.75 453.004 276.349 450.072 274.964L457.641 265.737C457.602 265.809 457.557 265.881 457.51 265.957C462.549 267.573 467.781 267.763 470.196 266.613C467.608 267.506 463.501 267.062 457.87 265.28L457.985 265.316L466.414 255.021L466.367 255.143C470.073 255.352 473.032 254.274 475.242 251.907C474.894 251.595 472.528 254.74 466.813 254.548L473.873 245.928Z" fill="url(#paint10_linear_6843_67374)"/>
      <path d="M441.28 242.087C438.023 237.944 435.107 238.364 432.534 243.349C431.285 247.656 433.258 250.395 426.811 252.351C422.515 253.657 421.864 256.389 424.86 260.549C426.113 263.165 425.19 264.839 422.087 265.568C418.985 266.298 419.357 269.196 423.205 274.263C424.54 277.04 424.54 278.898 423.205 279.832C421.206 281.234 417.361 285.437 422.087 293.608C426.813 301.78 437.944 295.433 439.612 291.592C441.28 287.751 437.944 282.458 439.612 279.83C441.28 277.201 451.011 276.299 448.412 268.423C446.248 265.201 443.237 264.27 446.261 258.782C449.285 253.295 450.053 255.501 446.261 250.095C444.606 248.544 442.946 245.875 441.28 242.087Z" fill="url(#paint11_linear_6843_67374)"/>
      <path d="M436.848 249.232L433.871 262.894C431.931 260.287 430.533 258.011 429.675 256.069C428.414 253.188 431.382 261.225 433.74 263.455L431.27 274.846V274.8C427.858 272.054 425.704 269.929 424.805 268.427C424.973 269.495 429.221 274.356 431.123 275.556L428.841 286.034L428.828 285.905C428.828 285.905 425.825 283.807 424.805 282.304C424.87 282.931 427.427 285.653 428.705 286.656L426.822 295.298H428.256L429.958 286.154C432.474 285.561 434.782 283.706 435.728 282.657C433.614 284.268 431.755 285.156 430.15 285.324C430.124 285.559 430.066 285.792 429.982 286.018L434.789 260.267C434.789 260.337 434.802 260.409 434.813 260.479C437.598 258.558 439.641 256.417 440.942 254.057C440.478 253.918 439.106 257.382 434.886 259.754L436.848 249.232ZM443.436 269.293C441.538 271.134 437.866 272.431 432.421 273.18C432.439 273.432 432.439 273.681 432.421 273.933C437.714 273.365 441.816 271.298 443.436 269.293Z" fill="url(#paint12_linear_6843_67374)"/>
      <path d="M59.7047 324.663C61.1768 312.606 57.3848 306.107 48.334 305.179C60.5879 303.93 68.6997 311.905 68.8317 324.663C66.2936 324.755 63.2529 324.755 59.7047 324.663Z" fill="url(#paint13_linear_6843_67374)"/>
      <path d="M65.6537 324.735C68.0446 312.558 65.1055 303.574 56.8262 297.781C67.3948 301.348 74.9888 306.706 77.4558 324.735C73.5269 324.99 69.5827 324.99 65.6537 324.735Z" fill="url(#paint14_linear_6843_67374)"/>
      <path d="M79.3337 324.924C78.2727 313.36 82.156 306.737 90.9734 305.049C82.7956 304.832 73.6686 304.245 67.1406 324.924C72.6737 324.734 76.7397 324.734 79.3337 324.924Z" fill="url(#paint15_linear_6843_67374)"/>
      <path d="M82.1596 323.548C81.2927 320.096 78.7644 317.688 74.5694 316.318C69.7811 314.963 67.1547 313.368 70.1526 312.207C72.6809 312.03 78.0781 310.304 82.1596 320.616C82.4382 321.578 82.4382 322.586 82.1596 323.548Z" fill="url(#paint16_linear_6843_67374)"/>
      <path d="M82.3699 324.094C79.8468 315.852 76.983 309.829 73.7736 306.02C71.4207 303.431 71.5858 299.721 73.7736 298.881C76.013 298.682 80.1409 298.343 83.2368 312.549C83.438 313.525 84.5319 319.246 83.2368 322.942C83.0871 323.394 82.7879 323.796 82.3699 324.094Z" fill="url(#paint17_linear_6843_67374)"/>
      <path d="M82.9543 322.231C84.0947 318.543 83.945 313.722 82.5158 307.771C80.328 302.015 76.5974 294.934 83.4032 294.771C86.1638 295.101 89.497 297.636 88.238 310.266C87.4692 315.362 86.1328 318.399 84.7345 322.208C84.1772 322.456 83.5219 322.466 82.9543 322.231Z" fill="url(#paint18_linear_6843_67374)"/>
      <path d="M84.267 323.664C83.8078 313.235 85.9852 305.748 90.8045 301.207C92.1048 299.693 97.0531 298.27 97.0376 303.014C96.5216 305.057 95.4123 309.426 89.0399 316.087C86.9398 318.49 85.5621 322.001 85.5467 322.828C85.5518 323.389 85.1287 323.664 84.267 323.664Z" fill="url(#paint19_linear_6843_67374)"/>
      <path d="M59.502 325.038C64.2696 324.261 66.9012 323.601 67.3914 323.054C68.1292 322.241 74.6151 318.744 78.6656 321.699C79.5479 320.705 82.3704 319.937 83.9906 321.699C84.7284 318.915 89.3413 317.131 91.3485 317.42C93.6085 317.266 100.28 317.329 100.781 325.047C98.9593 325.079 85.2031 325.074 59.502 325.038Z" fill="url(#paint20_linear_6843_67374)"/>
      <path d="M346.452 171.413V306.922H324.826V171.413C324.826 169.695 326.226 168.303 327.953 168.303H343.325C345.052 168.303 346.452 169.695 346.452 171.413Z" fill="url(#paint21_linear_6843_67374)"/>
      <path d="M357.884 310.392V317.79C357.884 320.458 355.707 322.623 353.024 322.623H318.253C315.57 322.623 313.393 320.458 313.393 317.79V310.392C313.393 308.478 314.953 306.92 316.884 306.92H354.393C356.317 306.92 357.884 308.472 357.884 310.392Z" fill="#7497FF"/>
      <path d="M327.687 168.303H343.62C349.516 165.383 353.575 159.341 353.575 152.336C353.575 142.485 345.563 134.518 335.656 134.518C325.75 134.518 317.713 142.485 317.713 152.336C317.713 159.341 321.784 165.383 327.687 168.303Z" fill="#7497FF"/>
      <path d="M345.909 152.355C345.909 157.998 341.307 162.574 335.632 162.574C329.958 162.574 325.381 157.998 325.381 152.355C325.381 146.711 329.982 142.16 335.632 142.16C341.283 142.16 345.909 146.711 345.909 152.355Z" fill="white"/>
      <path d="M192.709 181.913V306.993H171.391V181.913C171.391 180.328 172.771 179.043 174.474 179.043H189.632C191.335 179.043 192.716 180.328 192.716 181.913H192.709Z" fill="url(#paint22_linear_6843_67374)"/>
      <path d="M204.255 319.153V311.755C204.255 309.087 202.078 306.922 199.395 306.922H164.624C161.941 306.922 159.764 309.087 159.764 311.755V319.153C159.764 321.067 161.324 322.625 163.255 322.625H200.764C202.688 322.625 204.255 321.073 204.255 319.153Z" fill="#7497FF"/>
      <path d="M367.175 186.551V217.796C367.175 221.839 363.887 225.126 359.823 225.126H152.65C148.64 225.053 145.408 221.802 145.408 217.796V186.551C145.408 182.49 148.714 179.221 152.779 179.221H359.823C360.045 179.221 360.267 179.239 360.47 179.258C364.239 179.57 367.175 182.711 367.175 186.551Z" fill="url(#paint23_linear_6843_67374)"/>
      <path d="M367.177 248.055V264.119C367.177 268.161 363.89 271.449 359.825 271.449H152.782C150.962 271.449 149.29 270.805 147.989 269.713C146.41 268.345 145.404 266.352 145.404 264.119V248.055C145.404 244.012 148.71 240.725 152.775 240.725H359.825C360.738 240.725 361.607 240.89 362.409 241.203C365.197 242.24 367.184 244.914 367.184 248.055H367.177Z" fill="url(#paint24_linear_6843_67374)"/>
      <path d="M183.931 179.221L152.652 225.133C148.642 225.059 145.41 221.808 145.41 217.803V208.755L165.525 179.227H183.931V179.221Z" fill="url(#paint25_linear_6843_67374)"/>
      <path d="M186.18 240.719L165.232 271.449H152.785C150.965 271.449 149.294 270.805 147.992 269.713L167.755 240.719H186.18Z" fill="url(#paint26_linear_6843_67374)"/>
      <path d="M228.079 179.221L196.8 225.133H178.375L209.654 179.221H228.079Z" fill="url(#paint27_linear_6843_67374)"/>
      <path d="M230.327 240.719L209.38 271.449H190.955L211.902 240.719H230.327Z" fill="url(#paint28_linear_6843_67374)"/>
      <path d="M272.223 179.221L240.944 225.133H222.52L253.799 179.221H272.223Z" fill="url(#paint29_linear_6843_67374)"/>
      <path d="M274.451 240.719L253.498 271.449H235.098L256.045 240.719H274.451Z" fill="url(#paint30_linear_6843_67374)"/>
      <path d="M316.347 179.221L285.074 225.133H266.668L297.947 179.221H316.347Z" fill="url(#paint31_linear_6843_67374)"/>
      <path d="M318.596 240.719L297.642 271.449H279.242L300.19 240.719H318.596Z" fill="url(#paint32_linear_6843_67374)"/>
      <path d="M360.475 179.258L329.22 225.133H310.814L342.087 179.221H359.821C360.043 179.221 360.265 179.239 360.469 179.258H360.475Z" fill="url(#paint33_linear_6843_67374)"/>
      <path d="M362.404 241.203L341.79 271.455H323.365L344.313 240.725H359.82C360.732 240.725 361.602 240.89 362.404 241.203Z" fill="url(#paint34_linear_6843_67374)"/>
      <path d="M367.179 207.16V217.797C367.179 221.839 363.892 225.126 359.827 225.126H354.941L367.179 207.154V207.16Z" fill="url(#paint35_linear_6843_67374)"/>
      <path d="M312.876 156.802L293.141 191.128C291.137 194.613 287.437 196.763 283.428 196.763H243.945C239.936 196.763 236.236 194.613 234.232 191.128L214.497 156.802C212.493 153.317 212.493 149.025 214.497 145.54L234.232 111.199C236.236 107.714 239.936 105.564 243.945 105.564H283.428C287.437 105.564 291.144 107.714 293.141 111.199L312.876 145.54C314.88 149.025 314.88 153.317 312.876 156.802Z" fill="#E0E3FF"/>
      <path d="M303.28 152.125L284.721 184.131C284.004 185.381 282.641 186.159 281.199 186.159H244.074C242.617 186.159 241.269 185.381 240.537 184.131L221.992 152.125C221.26 150.875 221.26 149.333 221.992 148.069L240.551 116.077C241.269 114.82 242.617 114.049 244.074 114.049H281.199C282.641 114.049 283.99 114.813 284.721 116.077L303.28 148.083C303.998 149.333 303.998 150.875 303.28 152.125Z" fill="url(#paint36_linear_6843_67374)"/>
      <path d="M238.926 161.096C235.154 161.096 232.555 159.67 230.685 157.831L233.252 154.282C234.583 155.549 236.232 156.532 238.102 156.532C240.384 156.532 241.81 155.296 241.81 152.855C241.81 150.478 240.384 149.21 238.355 149.21C237.056 149.21 236.422 149.464 235.027 150.351L232.555 148.735L233.157 137.071H246.406V141.762H238.007L237.658 145.756C238.514 145.407 239.211 145.28 240.098 145.28C244.092 145.28 247.452 147.626 247.452 152.729C247.452 158.022 243.458 161.096 238.926 161.096ZM261.378 161.096C256.402 161.096 253.042 156.849 253.042 148.735C253.042 140.621 256.402 136.627 261.378 136.627C266.354 136.627 269.745 140.684 269.745 148.735C269.745 156.849 266.354 161.096 261.378 161.096ZM261.378 156.722C263.058 156.722 264.421 155.201 264.421 148.735C264.421 142.301 263.058 140.97 261.378 140.97C259.698 140.97 258.367 142.301 258.367 148.735C258.367 155.201 259.698 156.722 261.378 156.722ZM283.228 161.096C278.252 161.096 274.892 156.849 274.892 148.735C274.892 140.621 278.252 136.627 283.228 136.627C288.204 136.627 291.595 140.684 291.595 148.735C291.595 156.849 288.204 161.096 283.228 161.096ZM283.228 156.722C284.908 156.722 286.27 155.201 286.27 148.735C286.27 142.301 284.908 140.97 283.228 140.97C281.548 140.97 280.217 142.301 280.217 148.735C280.217 155.201 281.548 156.722 283.228 156.722Z" fill="url(#paint37_linear_6843_67374)"/>
      <path d="M190.142 129.373L190.826 129.483L191.477 129.676L192.102 129.95L192.686 130.302L193.222 130.725L193.71 131.222L194.101 131.725L194.42 132.277L194.433 132.305L194.397 132.116L194.582 132.222L194.74 132.418L194.873 132.737L194.988 133.28L195.033 133.981V134.023L195.237 134.011L195.425 134.073L195.606 134.218L195.819 134.524L195.977 134.94L196.043 135.398L196.011 135.869L195.924 136.173L195.782 136.44L195.578 136.683L195.324 136.865L194.99 136.994L194.548 137.058L194.413 137.369L194.28 137.601L193.346 138.971L192.796 139.634L192.171 140.195L192.18 142.572L187.499 142.639L187.52 139.845L186.995 139.332L186.555 138.714L186.088 137.907L185.71 137.058L185.802 137.053L185.268 137.033L184.87 136.932L184.574 136.759L184.332 136.515L184.16 136.235L184.059 135.915L184.016 135.407L184.089 134.917L184.268 134.473L184.506 134.168L184.705 134.039L184.911 134.007L185.14 134.066L185.145 133.685L185.284 132.91L185.536 132.172L185.896 131.477L186.358 130.845L186.874 130.339L187.444 129.936L188.071 129.633L188.74 129.433L189.427 129.348L190.142 129.373ZM194.539 132.845L194.541 132.882L194.564 133.163L194.651 133.427L194.539 132.845ZM194.433 132.305L194.539 132.845L194.536 132.813L194.495 132.461L194.475 132.395L194.433 132.305Z" fill="#EBB0B0"/>
      <path d="M195.072 134.488L195.367 134.143L195.642 133.708L195.894 133.168L196.171 132.303L196.345 131.33L196.393 130.332L196.299 129.341L196.15 128.697L195.928 128.106L195.633 127.564L195.255 127.081L194.788 126.683L194.22 126.361L194.027 126.184L193.771 126.041L193.437 125.938L192.887 125.85L192.179 125.816L191.854 125.83L191.648 125.871L191.332 125.982L191.197 126.011L191.032 126.007L190.853 125.926L190.588 125.731L190.292 125.51L189.882 125.255L189.406 125.053L188.763 124.91L188.446 124.898L187.975 124.947L187.473 125.039L186.928 125.179L186.395 125.354L185.927 125.549L185.522 125.786L185.284 126.007L184.807 126.428L184.276 127.053L183.798 127.777L183.356 128.661L183.117 129.288L182.932 129.964L182.799 130.696L182.758 131.422L182.804 132.052L182.927 132.6L183.234 133.388L183.642 134.136L184.59 135.686L184.975 135.355L185.282 134.931L185.769 133.956L186.012 133.464L186.291 133.02L186.972 132.303L187.73 131.675L188.552 131.137L189.436 130.696L190.688 130.542L191.643 130.514L192.234 130.585L192.759 130.758L193.228 131.029L193.634 131.395L194.048 131.933L194.476 132.687L195.072 134.488Z" fill="#131322"/>
      <path d="M187.605 140.658L188.381 141.187L189.21 141.688L189.636 141.854L190.051 141.918L190.369 141.87L190.738 141.693L191.459 141.164L192.094 140.658L193.09 140.755L194.336 140.978L195.634 141.309L197.091 141.79L198.561 142.385L200.1 143.139L201.108 143.71L202.108 144.356L203.105 145.076L203.082 147.865L203.013 150.135L202.898 152.253L202.754 153.998L202.562 155.638L202.346 157.049L202.095 158.406L201.817 159.68L201.185 162.276L200.475 165.229L200.143 165.9L199.326 167.368L198.236 169.239L197.084 171.12L196.076 172.622L195.648 173.156L195.423 173.349L194.365 173.832L193.374 174.177L192.444 174.395L191.496 174.526L190.534 174.584L189.556 174.563L188.058 174.448L186.375 174.255L186.132 174.163L185.642 173.859L184.463 172.965L183.146 171.872L182.006 170.879L181.353 170.279L181.216 170.09L180.943 169.607L180.297 168.315L179.571 166.749L178.914 165.259L178.477 164.192L177.973 162.706L177.506 160.975L177.341 160.122L177.27 159.42L177.151 156.373L177.022 152.781L176.91 149.019L176.844 145.467L177.464 144.65L178.108 143.97L178.774 143.406L179.496 142.916L180.231 142.507L180.98 142.178L182.139 141.787L183.295 141.5L185.56 141.086L186.636 140.888L187.605 140.658Z" fill="url(#paint38_linear_6843_67374)"/>
      <path d="M186.678 143.287H192.524L192.882 143.361L193.17 143.556L193.367 143.846L193.44 144.207V153.727L193.367 154.088L193.17 154.378L192.882 154.573L192.524 154.647H186.678L186.321 154.573L186.032 154.378L185.835 154.088L185.762 153.727V144.207L185.835 143.846L186.032 143.556L186.321 143.361L186.678 143.287Z" fill="url(#paint39_linear_6843_67374)"/>
      <path d="M183.398 153.384L183.831 152.239L184.31 151.261L184.83 150.431L185.391 149.734L185.776 149.534L185.957 149.488L186.066 149.525L186.076 149.635L186.009 149.783L185.856 149.983L186.483 149.838L186.925 149.815L187.431 149.902L187.752 150.036L188.07 150.27L188.393 150.624L188.641 151.034L188.867 151.622L189.057 152.441L188.876 152.928L188.583 153.51L188.217 154.083L187.754 154.66L187.216 155.18L186.598 155.619L186.149 155.849L185.666 156.014L185.146 156.116L184.669 156.047L184.285 155.886L183.973 155.637L183.724 155.29L183.536 154.823L183.421 154.2L183.398 153.384Z" fill="#EFBA9E"/>
      <path d="M176.057 145.574L176.734 144.841L177.36 144.328L177.941 143.999L178.491 143.82L179.022 143.771L179.549 143.847L180.087 144.057L180.646 144.418L181.237 144.958L181.498 145.305L181.745 145.843L181.97 146.637L182.18 147.906L182.32 149.573L182.375 151.346L182.357 153.368L182.279 155.442L182.146 157.617L181.965 159.795L181.75 161.92L181.498 163.998L181.237 165.873L180.71 166.438L180.204 166.861L179.714 167.163L179.235 167.358L178.55 167.503L177.902 167.498L177.275 167.356L176.679 167.094L176.134 166.735L175.635 166.273L175.205 165.739L174.859 165.155L174.593 164.516L174.096 162.108L173.75 159.873L173.551 157.794L173.482 155.86L173.535 154.064L173.702 152.393L173.975 150.833L174.35 149.382L174.824 148.026L175.392 146.759L176.057 145.574Z" fill="url(#paint40_linear_6843_67374)"/>
      <path d="M176.555 163.259L176.889 162.017L177.345 160.796L177.934 159.589L178.66 158.395L179.53 157.209L180.558 156.027L181.756 154.847L183.139 153.67L183.59 153.541L184.028 153.49L184.463 153.513L184.879 153.617L185.26 153.803L185.61 154.077L185.894 154.422L186.123 154.87L186.292 155.447L186.338 155.801L186.288 156.565L186.148 157.432L185.894 158.563L185.557 159.745L185.106 161.049L184.563 162.35L183.918 163.634L183.425 164.457L182.892 165.218L182.319 165.919L181.685 166.559L181.016 167.09L180.306 167.518L179.301 167.66L178.506 167.653L177.881 167.524L177.389 167.299L177.001 166.979L176.704 166.559L176.493 166.011L176.381 165.308L176.39 164.406L176.555 163.259Z" fill="url(#paint41_linear_6843_67374)"/>
      <path d="M196.161 153.386L195.728 152.241L195.249 151.263L194.73 150.433L194.168 149.736L193.784 149.536L193.603 149.49L193.493 149.527L193.484 149.637L193.55 149.785L193.704 149.985L193.076 149.84L192.634 149.817L192.128 149.904L191.807 150.038L191.489 150.272L191.166 150.626L190.919 151.036L190.692 151.624L190.502 152.443L190.683 152.93L190.976 153.512L191.342 154.085L191.805 154.662L192.343 155.182L192.962 155.621L193.41 155.851L193.894 156.016L194.413 156.118L194.89 156.049L195.275 155.888L195.586 155.639L195.836 155.292L196.023 154.825L196.138 154.202L196.161 153.386Z" fill="#EFBA9E"/>
      <path d="M203.506 145.574L202.828 144.841L202.203 144.328L201.621 143.999L201.072 143.82L200.54 143.771L200.014 143.847L199.475 144.057L198.917 144.418L198.326 144.958L198.065 145.305L197.817 145.843L197.593 146.637L197.382 147.906L197.242 149.573L197.188 151.346L197.206 153.368L197.284 155.442L197.417 157.617L197.597 159.795L197.813 161.92L198.065 163.998L198.326 165.873L198.852 166.438L199.359 166.861L199.849 167.163L200.327 167.358L201.012 167.503L201.66 167.498L202.288 167.356L202.883 167.094L203.428 166.735L203.927 166.273L204.358 165.739L204.704 165.155L204.969 164.516L205.466 162.108L205.812 159.873L206.011 157.794L206.08 155.86L206.027 154.064L205.86 152.393L205.588 150.833L205.212 149.382L204.738 148.026L204.17 146.759L203.506 145.574Z" fill="url(#paint42_linear_6843_67374)"/>
      <path d="M203.006 163.259L202.672 162.017L202.216 160.796L201.627 159.589L200.901 158.395L200.031 157.209L199.003 156.027L197.805 154.847L196.422 153.67L195.971 153.541L195.533 153.49L195.098 153.513L194.681 153.617L194.301 153.803L193.951 154.077L193.667 154.422L193.438 154.87L193.268 155.447L193.223 155.801L193.273 156.565L193.413 157.432L193.667 158.563L194.004 159.745L194.455 161.049L194.997 162.35L195.643 163.634L196.136 164.457L196.669 165.218L197.242 165.919L197.876 166.559L198.545 167.09L199.255 167.518L200.26 167.66L201.055 167.653L201.68 167.524L202.172 167.299L202.559 166.979L202.857 166.559L203.068 166.011L203.18 165.308L203.171 164.406L203.006 163.259Z" fill="url(#paint43_linear_6843_67374)"/>
      <path d="M173.826 178.813L173.224 176.495L172.841 174.557L172.642 172.952L172.594 171.63L172.669 170.553L172.843 169.684L173.102 168.983L173.432 168.426L173.83 167.987L174.3 167.649L174.852 167.408L175.507 167.265L176.288 167.23L186.369 172.632L187.308 173.177L188.192 173.543L189.032 173.747L189.843 173.81L190.633 173.734L191.416 173.52L192.202 173.156L192.999 172.632L194.583 171.418L196.203 170.335L197.856 169.378L199.544 168.544L201.275 167.828L203.048 167.23L203.961 167.373L204.706 167.608L205.306 167.925L205.791 168.318L206.171 168.792L206.46 169.358L206.65 170.034L206.733 170.845L206.691 171.82L206.494 172.989L206.114 174.384L205.507 176.047L204.637 178.013L203.451 180.324L198.305 180.225L189.341 180.207L175.03 180.324L174.682 180.12L174.364 179.811L174.078 179.386L173.826 178.813Z" fill="url(#paint44_linear_6843_67374)"/>
      <path d="M182.597 196.716L183.522 196.621L184.202 196.555L184.491 196.591L184.77 196.704L185.031 196.934L185.301 197.332L185.51 197.799L185.647 198.307L185.688 198.811L185.606 199.22L185.123 200.314L184.594 201.444L184.23 202.207L183.856 202.952L183.156 204.157L182.725 204.783L182.29 205.307L181.967 205.613L181.683 205.794L181.427 205.882L181.088 205.863L180.81 205.73L180.575 205.472L180.41 205.146L180.295 204.716L180.24 204.164L180.256 203.607L180.346 202.982L180.517 202.276L181.049 200.627L181.617 199.018L182.072 197.794L182.258 197.309L182.597 196.716Z" fill="#333333"/>
      <path d="M196.027 196.716L195.102 196.621L194.421 196.555L194.135 196.591L193.856 196.704L193.595 196.932L193.325 197.332L193.116 197.799L192.976 198.307L192.938 198.811L193.02 199.22L193.503 200.314L194.032 201.444L194.396 202.207L194.77 202.952L195.47 204.157L195.901 204.783L196.336 205.307L196.659 205.613L196.943 205.794L197.199 205.882L197.538 205.863L197.815 205.73L198.051 205.472L198.216 205.146L198.331 204.716L198.386 204.164L198.367 203.607L198.28 202.982L198.109 202.276L197.577 200.627L197.009 199.018L196.554 197.794L196.368 197.309L196.027 196.716Z" fill="#333333"/>
      <path d="M171.101 173.574L171.028 173.093L170.943 171.86L170.953 171.081L171.033 170.193L171.204 169.299L171.493 168.404L171.761 167.836L172.1 167.307L172.517 166.813L173 166.39L173.588 166.029L174.296 165.732L175.15 165.504L175.908 165.38L176.577 165.346L177.172 165.392L177.965 165.569L178.663 165.849L179.279 166.229L179.843 166.696L180.353 167.218L180.814 167.799L181.43 168.724L181.97 169.653L182.955 175.397L186.37 196.178L185.68 196.742L184.943 197.188L184.155 197.526L183.305 197.753L182.385 197.873L181.384 197.875L180.287 197.751L179.602 195.746L178.425 192.554L176.934 188.622L175.315 184.4L173.74 180.337L172.393 176.878L171.454 174.475L171.101 173.574Z" fill="url(#paint45_linear_6843_67374)"/>
      <path d="M207.419 173.574L207.49 173.093L207.577 171.86L207.567 171.081L207.487 170.193L207.316 169.299L207.027 168.404L206.759 167.836L206.42 167.307L206.003 166.813L205.52 166.39L204.932 166.029L204.224 165.732L203.37 165.504L202.612 165.38L201.943 165.346L201.347 165.392L200.553 165.569L199.857 165.849L199.241 166.229L198.677 166.696L198.167 167.218L197.706 167.799L197.09 168.724L196.55 169.653L195.565 175.397L192.15 196.178L192.84 196.742L193.577 197.188L194.365 197.526L195.215 197.753L196.135 197.873L197.136 197.875L198.233 197.751L198.918 195.746L200.095 192.554L201.583 188.622L203.205 184.4L204.78 180.337L206.127 176.878L207.066 174.475L207.419 173.574Z" fill="url(#paint46_linear_6843_67374)"/>
    </g>
  </g>
  <defs>
    <linearGradient id="paint0_linear_6843_67374" x1="42.707" y1="341.424" x2="497.542" y2="341.424" gradientUnits="userSpaceOnUse">
      <stop stop-color="#FAFBFF"/>
      <stop offset="1" stop-color="#DDE6FF"/>
    </linearGradient>
    <linearGradient id="paint1_linear_6843_67374" x1="406.499" y1="-16.9991" x2="407.896" y2="35.6892" gradientUnits="userSpaceOnUse">
      <stop stop-color="#98BEFA" stop-opacity="0.57"/>
      <stop offset="1" stop-color="#98BEFA" stop-opacity="0"/>
    </linearGradient>
    <linearGradient id="paint2_linear_6843_67374" x1="95.999" y1="-13.9985" x2="95.9272" y2="55.5938" gradientUnits="userSpaceOnUse">
      <stop stop-color="#98BEFA" stop-opacity="0.79"/>
      <stop offset="1" stop-color="#98BEFA" stop-opacity="0"/>
    </linearGradient>
    <linearGradient id="paint3_linear_6843_67374" x1="6526.15" y1="-9698.08" x2="6545.48" y2="-9698.29" gradientUnits="userSpaceOnUse">
      <stop stop-color="#98D6FA"/>
      <stop offset="1" stop-color="#47B0F1"/>
    </linearGradient>
    <linearGradient id="paint4_linear_6843_67374" x1="4512.28" y1="-6740.42" x2="4525.89" y2="-6740.57" gradientUnits="userSpaceOnUse">
      <stop stop-color="#98D6FA"/>
      <stop offset="1" stop-color="#47B0F1"/>
    </linearGradient>
    <linearGradient id="paint5_linear_6843_67374" x1="4512.28" y1="-6740.43" x2="4525.89" y2="-6740.57" gradientUnits="userSpaceOnUse">
      <stop stop-color="#98D6FA"/>
      <stop offset="1" stop-color="#47B0F1"/>
    </linearGradient>
    <linearGradient id="paint6_linear_6843_67374" x1="3117.28" y1="-4697.19" x2="3126.57" y2="-4697.3" gradientUnits="userSpaceOnUse">
      <stop stop-color="#98D6FA"/>
      <stop offset="1" stop-color="#47B0F1"/>
    </linearGradient>
    <linearGradient id="paint7_linear_6843_67374" x1="501.559" y1="272.113" x2="455.966" y2="271.347" gradientUnits="userSpaceOnUse">
      <stop stop-color="#98D6FA"/>
      <stop offset="1" stop-color="#47B0F1"/>
    </linearGradient>
    <linearGradient id="paint8_linear_6843_67374" x1="467.978" y1="274.853" x2="465.214" y2="272.632" gradientUnits="userSpaceOnUse">
      <stop offset="0.03" stop-color="#AFDEF9"/>
      <stop offset="1" stop-color="#7CC9F9"/>
    </linearGradient>
    <linearGradient id="paint9_linear_6843_67374" x1="476.962" y1="273.276" x2="448.377" y2="260.242" gradientUnits="userSpaceOnUse">
      <stop stop-color="#98D6FA"/>
      <stop offset="1" stop-color="#47B0F1"/>
    </linearGradient>
    <linearGradient id="paint10_linear_6843_67374" x1="468.27" y1="261.824" x2="465.379" y2="260.803" gradientUnits="userSpaceOnUse">
      <stop offset="0.03" stop-color="#AFDEF9"/>
      <stop offset="1" stop-color="#7CC9F9"/>
    </linearGradient>
    <linearGradient id="paint11_linear_6843_67374" x1="438.312" y1="291.091" x2="420.258" y2="266.703" gradientUnits="userSpaceOnUse">
      <stop stop-color="#98D6FA"/>
      <stop offset="1" stop-color="#47B0F1"/>
    </linearGradient>
    <linearGradient id="paint12_linear_6843_67374" x1="438.445" y1="265.764" x2="434.838" y2="266.365" gradientUnits="userSpaceOnUse">
      <stop offset="0.03" stop-color="#AFDEF9"/>
      <stop offset="1" stop-color="#7CC9F9"/>
    </linearGradient>
    <linearGradient id="paint13_linear_6843_67374" x1="4313.45" y1="-18465.9" x2="4304.4" y2="-18480.6" gradientUnits="userSpaceOnUse">
      <stop stop-color="#98D6FA"/>
      <stop offset="1" stop-color="#47B0F1"/>
    </linearGradient>
    <linearGradient id="paint14_linear_6843_67374" x1="4330.16" y1="-25409.2" x2="4342.58" y2="-25422.2" gradientUnits="userSpaceOnUse">
      <stop stop-color="#98D6FA"/>
      <stop offset="1" stop-color="#47B0F1"/>
    </linearGradient>
    <linearGradient id="paint15_linear_6843_67374" x1="5012.42" y1="-18700.2" x2="5032.86" y2="-18705.5" gradientUnits="userSpaceOnUse">
      <stop stop-color="#98D6FA"/>
      <stop offset="1" stop-color="#47B0F1"/>
    </linearGradient>
    <linearGradient id="paint16_linear_6843_67374" x1="2753.61" y1="-10837.8" x2="2756.58" y2="-10827.6" gradientUnits="userSpaceOnUse">
      <stop stop-color="#98D6FA"/>
      <stop offset="1" stop-color="#47B0F1"/>
    </linearGradient>
    <linearGradient id="paint17_linear_6843_67374" x1="2394.95" y1="-23580.3" x2="2395.4" y2="-23557.6" gradientUnits="userSpaceOnUse">
      <stop stop-color="#98D6FA"/>
      <stop offset="1" stop-color="#47B0F1"/>
    </linearGradient>
    <linearGradient id="paint18_linear_6843_67374" x1="1793.17" y1="-25780.3" x2="1793.3" y2="-25755.5" gradientUnits="userSpaceOnUse">
      <stop stop-color="#98D6FA"/>
      <stop offset="1" stop-color="#47B0F1"/>
    </linearGradient>
    <linearGradient id="paint19_linear_6843_67374" x1="2612.81" y1="-22322.4" x2="2613.4" y2="-22300.9" gradientUnits="userSpaceOnUse">
      <stop stop-color="#98D6FA"/>
      <stop offset="1" stop-color="#47B0F1"/>
    </linearGradient>
    <linearGradient id="paint20_linear_6843_67374" x1="8695.74" y1="-7219.48" x2="8742.38" y2="-7219.48" gradientUnits="userSpaceOnUse">
      <stop stop-color="#98D6FA"/>
      <stop offset="1" stop-color="#47B0F1"/>
    </linearGradient>
    <linearGradient id="paint21_linear_6843_67374" x1="324.826" y1="237.615" x2="346.452" y2="237.615" gradientUnits="userSpaceOnUse">
      <stop stop-color="#B4BDFF"/>
      <stop offset="1" stop-color="#7497FF"/>
    </linearGradient>
    <linearGradient id="paint22_linear_6843_67374" x1="171.391" y1="243.021" x2="192.716" y2="243.021" gradientUnits="userSpaceOnUse">
      <stop stop-color="#7497FF"/>
      <stop offset="1" stop-color="#B4BDFF"/>
    </linearGradient>
    <linearGradient id="paint23_linear_6843_67374" x1="255.548" y1="179.578" x2="255.485" y2="224.445" gradientUnits="userSpaceOnUse">
      <stop stop-color="#7497FF"/>
      <stop offset="1" stop-color="#8EABFF"/>
    </linearGradient>
    <linearGradient id="paint24_linear_6843_67374" x1="255.551" y1="240.964" x2="255.522" y2="270.993" gradientUnits="userSpaceOnUse">
      <stop stop-color="#7497FF"/>
      <stop offset="1" stop-color="#8EABFF"/>
    </linearGradient>
    <linearGradient id="paint25_linear_6843_67374" x1="164.802" y1="179.043" x2="164.37" y2="225.309" gradientUnits="userSpaceOnUse">
      <stop stop-color="#E0E3FF"/>
      <stop offset="1" stop-color="white"/>
    </linearGradient>
    <linearGradient id="paint26_linear_6843_67374" x1="167.216" y1="240.6" x2="167.021" y2="271.569" gradientUnits="userSpaceOnUse">
      <stop stop-color="#E0E3FF"/>
      <stop offset="1" stop-color="white"/>
    </linearGradient>
    <linearGradient id="paint27_linear_6843_67374" x1="203.397" y1="179.043" x2="203.061" y2="225.31" gradientUnits="userSpaceOnUse">
      <stop stop-color="#E0E3FF"/>
      <stop offset="1" stop-color="white"/>
    </linearGradient>
    <linearGradient id="paint28_linear_6843_67374" x1="210.776" y1="240.6" x2="210.586" y2="271.569" gradientUnits="userSpaceOnUse">
      <stop stop-color="#E0E3FF"/>
      <stop offset="1" stop-color="white"/>
    </linearGradient>
    <linearGradient id="paint29_linear_6843_67374" x1="247.541" y1="179.043" x2="247.206" y2="225.31" gradientUnits="userSpaceOnUse">
      <stop stop-color="#E0E3FF"/>
      <stop offset="1" stop-color="white"/>
    </linearGradient>
    <linearGradient id="paint30_linear_6843_67374" x1="254.909" y1="240.6" x2="254.719" y2="271.569" gradientUnits="userSpaceOnUse">
      <stop stop-color="#E0E3FF"/>
      <stop offset="1" stop-color="white"/>
    </linearGradient>
    <linearGradient id="paint31_linear_6843_67374" x1="291.677" y1="179.043" x2="291.342" y2="225.31" gradientUnits="userSpaceOnUse">
      <stop stop-color="#E0E3FF"/>
      <stop offset="1" stop-color="white"/>
    </linearGradient>
    <linearGradient id="paint32_linear_6843_67374" x1="299.053" y1="240.6" x2="298.864" y2="271.569" gradientUnits="userSpaceOnUse">
      <stop stop-color="#E0E3FF"/>
      <stop offset="1" stop-color="white"/>
    </linearGradient>
    <linearGradient id="paint33_linear_6843_67374" x1="335.814" y1="179.043" x2="335.479" y2="225.31" gradientUnits="userSpaceOnUse">
      <stop stop-color="#E0E3FF"/>
      <stop offset="1" stop-color="white"/>
    </linearGradient>
    <linearGradient id="paint34_linear_6843_67374" x1="343.005" y1="240.596" x2="342.779" y2="271.59" gradientUnits="userSpaceOnUse">
      <stop stop-color="#E0E3FF"/>
      <stop offset="1" stop-color="white"/>
    </linearGradient>
    <linearGradient id="paint35_linear_6843_67374" x1="361.165" y1="207.117" x2="361.037" y2="225.176" gradientUnits="userSpaceOnUse">
      <stop stop-color="#E0E3FF"/>
      <stop offset="1" stop-color="white"/>
    </linearGradient>
    <linearGradient id="paint36_linear_6843_67374" x1="244.904" y1="114.285" x2="244.904" y2="185.872" gradientUnits="userSpaceOnUse">
      <stop stop-color="#6994FF"/>
      <stop offset="1" stop-color="#A1A5FF"/>
    </linearGradient>
    <linearGradient id="paint37_linear_6843_67374" x1="229.917" y1="78.5554" x2="297.482" y2="78.5554" gradientUnits="userSpaceOnUse">
      <stop stop-color="white"/>
      <stop offset="0.5" stop-color="white"/>
    </linearGradient>
    <linearGradient id="paint38_linear_6843_67374" x1="177.073" y1="157.633" x2="203.091" y2="157.633" gradientUnits="userSpaceOnUse">
      <stop stop-color="#81D9FF"/>
      <stop offset="1" stop-color="#27A6DD"/>
    </linearGradient>
    <linearGradient id="paint39_linear_6843_67374" x1="185.921" y1="153.171" x2="191.301" y2="148.882" gradientUnits="userSpaceOnUse">
      <stop stop-color="#4168CF"/>
      <stop offset="1" stop-color="#6E96FF"/>
    </linearGradient>
    <linearGradient id="paint40_linear_6843_67374" x1="173.56" y1="155.645" x2="182.37" y2="155.645" gradientUnits="userSpaceOnUse">
      <stop stop-color="#81D9FF"/>
      <stop offset="1" stop-color="#27A6DD"/>
    </linearGradient>
    <linearGradient id="paint41_linear_6843_67374" x1="176.468" y1="160.58" x2="186.333" y2="160.58" gradientUnits="userSpaceOnUse">
      <stop stop-color="#81D9FF"/>
      <stop offset="1" stop-color="#27A6DD"/>
    </linearGradient>
    <linearGradient id="paint42_linear_6843_67374" x1="197.265" y1="155.645" x2="206.076" y2="155.645" gradientUnits="userSpaceOnUse">
      <stop stop-color="#81D9FF"/>
      <stop offset="1" stop-color="#27A6DD"/>
    </linearGradient>
    <linearGradient id="paint43_linear_6843_67374" x1="193.31" y1="160.58" x2="203.175" y2="160.58" gradientUnits="userSpaceOnUse">
      <stop stop-color="#81D9FF"/>
      <stop offset="1" stop-color="#27A6DD"/>
    </linearGradient>
    <linearGradient id="paint44_linear_6843_67374" x1="202.059" y1="166.863" x2="169.131" y2="166.863" gradientUnits="userSpaceOnUse">
      <stop stop-color="#00415D"/>
      <stop offset="0.3" stop-color="#001A25"/>
      <stop offset="0.5" stop-color="#001A25"/>
      <stop offset="0.7" stop-color="#001A25" stop-opacity="0.8"/>
      <stop offset="1" stop-color="#00415D"/>
    </linearGradient>
    <linearGradient id="paint45_linear_6843_67374" x1="173.061" y1="164.433" x2="186.37" y2="164.433" gradientUnits="userSpaceOnUse">
      <stop stop-color="#001A25"/>
      <stop offset="0.3" stop-color="#001A25"/>
      <stop offset="0.5" stop-color="#001A25"/>
      <stop offset="0.7" stop-color="#001A25"/>
      <stop offset="1" stop-color="#00415D"/>
    </linearGradient>
    <linearGradient id="paint46_linear_6843_67374" x1="194.268" y1="164.433" x2="207.577" y2="164.433" gradientUnits="userSpaceOnUse">
      <stop stop-color="#001A25"/>
      <stop offset="0.3" stop-color="#001A25"/>
      <stop offset="0.5" stop-color="#001A25"/>
      <stop offset="0.7" stop-color="#001A25"/>
      <stop offset="1" stop-color="#00415D"/>
    </linearGradient>
    <clipPath id="clip0_6843_67374">
      <rect width="520" height="430" fill="white"/>
    </clipPath>
    <clipPath id="clip1_6843_67374">
      <rect width="520" height="430" fill="white"/>
    </clipPath>
  </defs>
</svg>