<svg width="520" height="430" viewBox="0 0 520 430" fill="none" xmlns="http://www.w3.org/2000/svg">
  <g clip-path="url(#clip0_6843_67331)">
    <path opacity="0.8" d="M262.469 258.848C326.586 258.848 384.395 266.295 424.743 278.155C464.26 278.638 496 295.394 496 316.08C496 332.767 475.215 346.972 446.409 352.006C440.051 354.626 433.008 357.039 425.281 359.315C425.476 360.763 425.525 362.211 425.525 363.59C425.525 399.378 370.358 428.408 302.28 428.408C241.342 428.408 190.674 405.101 180.795 374.554C98.9731 365.797 41.165 344.145 41.165 318.838C41.165 285.74 140.153 258.848 262.469 258.848Z" fill="url(#paint0_linear_6843_67331)"/>
    <path fill-rule="evenodd" clip-rule="evenodd" d="M457.843 37.9826L457.683 39.9227L457.237 41.7433L456.505 43.4824L455.52 45.1019L454.303 46.591L452.838 47.9551L451.209 49.1344L449.392 50.1344L447.371 50.9659L445.268 51.5582L443.022 51.9278L440.627 52.0637H387.369L384.974 51.7919L382.706 51.3191L380.564 50.6452L378.5 49.7648L376.639 48.7268L374.954 47.5257L373.44 46.1399L372.179 44.6345L371.155 42.9987L370.39 41.2379L369.922 39.3684L369.751 37.3576L369.883 35.5968L370.263 33.9229L370.88 32.3034L371.706 30.7817L372.735 29.3524L373.963 28.0155L375.339 26.8253L376.87 25.7656L378.56 24.8417L378.01 23.4341L377.828 22.7276L377.762 22.0266L377.955 20.2766L378.483 18.6299L379.359 17.0647L380.515 15.6735L381.93 14.4616L383.631 13.429L385.481 12.6681L387.513 12.1953L389.77 12.0106L391.824 12.1845L393.673 12.641L395.413 13.3366L396.977 14.2007L398.722 11.8964L400.732 9.77693L403.028 7.84221L405.533 6.16292L408.253 4.73361L411.215 3.56517L413.505 2.89671L415.895 2.41303L418.389 2.10869L421.004 2L423.724 2.11956L426.312 2.45107L428.784 2.97823L431.151 3.70104L433.469 4.63579L435.611 5.71727L437.593 6.95093L439.426 8.33676L441.128 9.89649L442.614 11.5541L443.902 13.3203L444.993 15.2007L445.868 17.1843L446.501 19.2332L446.887 21.3635L447.03 23.5917V24.8417L449.122 25.6895L450.999 26.7112L452.684 27.9014L454.198 29.2872L455.448 30.7871L456.461 32.423L457.221 34.1783L457.678 36.0207L457.843 37.9826Z" fill="url(#paint1_linear_6843_67331)"/>
    <path fill-rule="evenodd" clip-rule="evenodd" d="M102.97 16.0469L106.356 16.2262L109.594 16.7371L112.699 17.574L115.699 18.7207L118.518 20.1337L121.172 21.8293L123.639 23.7695L125.88 25.9324L127.9 28.3237L129.673 30.8997L131.165 33.6442L132.393 36.5788H152.676L154.432 36.7419L156.046 37.1712L157.538 37.8777L158.892 38.8233L160.037 39.9537L160.995 41.2907L161.706 42.7634L162.146 44.3503L162.311 46.0894V69.3387L162.146 71.0723L161.706 72.6647L160.995 74.1375L160.037 75.4689L158.892 76.6048L157.538 77.5504L156.046 78.2515L154.432 78.6862L152.676 78.8493H54.492L52.7301 78.6862L51.1225 78.2515L49.6249 77.5504L48.276 76.6048L47.1308 75.4689L46.1728 74.1375L45.457 72.6647L45.0166 71.0723L44.8569 69.3387V62.5943L43.7778 60.6922L42.8748 58.6977L42.1481 56.5945L41.6195 54.4315L41.3002 52.1925L41.1846 49.861L41.3222 47.3557L41.6911 44.959L42.2857 42.6656L43.1061 40.4592L44.1522 38.3342L45.3689 36.3506L46.7674 34.5028L48.3531 32.7855L50.0929 31.2203L51.9648 29.8399L53.9744 28.6334L56.1272 27.6063L58.3625 26.7965L60.6859 26.2042L63.114 25.8401L65.6521 25.7096L67.8324 25.802L69.9356 26.0737L71.9727 26.5194L73.9603 27.1335L75.8598 27.8998L77.6712 28.8182L79.6973 26.3346L81.9437 24.0901L84.4378 22.0684L87.1246 20.3076L89.9876 18.8348L93.0433 17.6392L95.4052 16.9545L97.8443 16.4599L100.36 16.1556L102.97 16.0469Z" fill="url(#paint2_linear_6843_67331)"/>
    <path d="M332.627 57.7281V57.6877C330.443 51.6209 323.326 48.7452 317.286 49.627C321.765 46.8807 329.169 46.1487 332.627 50.3631V50.3995C336.094 46.2215 343.522 46.9171 347.964 49.6634C341.932 48.8221 334.815 51.6856 332.627 57.7241V57.7281Z" fill="url(#paint3_linear_6843_67331)"/>
    <path d="M366.797 52.6575V52.613C365.281 48.3986 360.351 46.4208 356.168 47.0275C359.27 45.1225 364.392 44.6008 366.797 47.5371V47.5614C369.202 44.6655 374.353 45.1346 377.45 47.0517C373.267 46.4693 368.337 48.4512 366.797 52.6413V52.6575Z" fill="url(#paint4_linear_6843_67331)"/>
    <path d="M352.554 38.7116V38.6873C351.038 34.4689 346.108 32.4911 341.9 33.0978C345.006 31.1928 350.128 30.6711 352.554 33.6074V33.6317C354.959 30.7398 360.105 31.205 363.207 33.1261C359.02 32.5397 354.094 34.5215 352.554 38.7116Z" fill="url(#paint5_linear_6843_67331)"/>
    <path d="M395.773 55.0683C394.724 52.1441 391.307 50.7689 388.397 51.1936C390.549 49.8751 394.097 49.5192 395.773 51.5455C397.445 49.5232 401.009 49.8751 403.148 51.1936C400.243 50.7892 396.826 52.1643 395.773 55.0683Z" fill="url(#paint6_linear_6843_67331)"/>
    <path d="M477.777 260.53C486.346 257.008 490.19 258.741 489.317 265.724C488.821 267.892 487.924 269.246 486.631 269.786C483.264 273.54 481.483 276.551 481.289 278.814C480.998 282.209 478.113 286.057 470.887 283.855C466.069 282.389 462.759 284.842 460.963 291.22C455.539 297.809 446.003 300.443 432.352 299.12C418.7 297.797 419.571 292.036 434.959 281.837C439.142 280.327 442.334 279.393 444.539 279.035C446.745 278.677 447.826 276.476 447.781 272.431C447.781 269.899 449.785 268.05 453.792 266.884C457.8 265.717 459.484 263.864 458.841 261.327C461.503 257.738 464.679 257.227 468.369 259.79C472.06 262.354 475.196 262.601 477.777 260.53Z" fill="url(#paint7_linear_6843_67331)"/>
    <path d="M478.18 264.157L465.518 271.892C466.163 268.793 466.934 266.279 467.831 264.354C469.161 261.505 465.053 269.105 464.998 272.209L454.445 278.656L454.473 278.62C454.182 274.47 454.298 271.572 454.825 269.928C454.119 270.792 453.369 276.981 453.776 279.05L444.072 284.982L444.161 284.881C444.161 284.881 443.663 281.455 444.103 279.727C443.665 280.207 443.374 283.808 443.5 285.33L435.498 290.239L436.513 291.168L444.785 285.807C447.02 287.008 450.086 287.197 451.567 287.072C448.829 286.842 446.828 286.266 445.564 285.344C445.362 285.495 445.142 285.622 444.908 285.728L468.203 270.631C468.151 270.684 468.104 270.737 468.056 270.795C471.508 271.241 474.605 271.052 477.351 270.223C477.131 269.822 473.483 271.385 468.665 270.331L478.18 264.157ZM467.338 282.607C464.573 282.679 460.975 281.218 456.54 278.222C456.359 278.411 456.165 278.587 455.958 278.752C460.152 281.782 464.644 282.975 467.338 282.607Z" fill="url(#paint8_linear_6843_67331)"/>
    <path d="M468.492 243.938C476.93 238.683 480.845 240.006 480.24 247.901C478.616 253.559 477.551 257.342 478.084 260.809C478.616 264.275 476.951 270.831 468.492 273.531C462.854 275.324 461.269 277.869 463.743 281.162C464.983 286.222 458.143 289.854 443.225 292.056C420.848 295.361 426.177 287.766 431.932 279.535C436.094 275.723 436.653 273.394 436.653 270.48C436.653 267.566 433.605 262.799 442.36 260.821C446.207 260.021 448.221 256.5 448.405 250.258C449.011 247.123 452.683 246.338 459.42 247.906C462.413 248.432 465.437 247.109 468.492 243.938Z" fill="url(#paint9_linear_6843_67331)"/>
    <path d="M472.332 248.131L463.037 258.933L463.019 258.892C462.012 256.751 461.797 254.367 462.403 252.104L462.424 252.029C461.813 253.774 460.638 255.856 462.584 259.454L454.716 268.619L454.663 268.554C453.09 266.519 452.303 263.842 452.303 260.525C451.941 261.554 451.933 266.286 454.181 269.229L447.202 277.371C446.761 276.745 445.659 274.971 445.659 273.012C445.426 274.368 445.397 276.185 446.682 277.976L436.383 289.959H438.017L447.983 277.825C452.804 279.709 455.508 278.92 456.848 278.367C454.236 278.953 451.463 278.552 448.531 277.167L456.1 267.94C456.061 268.012 456.016 268.084 455.969 268.161C461.008 269.776 466.24 269.966 468.655 268.816C466.067 269.709 461.96 269.265 456.329 267.484L456.444 267.52L464.873 257.224L464.826 257.346C468.532 257.555 471.491 256.477 473.701 254.11C473.353 253.798 470.987 256.943 465.272 256.751L472.332 248.131Z" fill="url(#paint10_linear_6843_67331)"/>
    <path d="M439.739 244.29C436.482 240.147 433.566 240.567 430.993 245.553C429.744 249.859 431.716 252.598 425.27 254.554C420.974 255.86 420.323 258.592 423.319 262.752C424.572 265.369 423.649 267.042 420.546 267.771C417.444 268.501 417.816 271.399 421.664 276.466C422.999 279.243 422.999 281.101 421.664 282.035C419.665 283.437 415.82 287.64 420.546 295.812C425.272 303.983 436.403 297.636 438.071 293.795C439.739 289.954 436.403 284.661 438.071 282.033C439.739 279.404 449.47 278.502 446.871 270.626C444.707 267.404 441.696 266.473 444.72 260.985C447.744 255.498 448.512 257.704 444.72 252.298C443.065 250.747 441.405 248.078 439.739 244.29Z" fill="url(#paint11_linear_6843_67331)"/>
    <path d="M435.306 251.436L432.329 265.097C430.389 262.49 428.991 260.214 428.133 258.272C426.872 255.392 429.84 263.428 432.198 265.658L429.728 277.049V277.003C426.316 274.257 424.162 272.133 423.263 270.63C423.431 271.698 427.679 276.559 429.581 277.759L427.299 288.237L427.286 288.108C427.286 288.108 424.283 286.01 423.263 284.507C423.328 285.134 425.885 287.856 427.163 288.859L425.28 297.501H426.714L428.416 288.357C430.932 287.765 433.24 285.909 434.186 284.86C432.072 286.471 430.213 287.359 428.608 287.527C428.582 287.762 428.524 287.995 428.44 288.221L433.247 262.471C433.247 262.54 433.261 262.612 433.271 262.682C436.056 260.761 438.099 258.62 439.4 256.261C438.936 256.121 437.564 259.585 433.344 261.957L435.306 251.436ZM441.894 271.496C439.996 273.338 436.324 274.634 430.879 275.383C430.897 275.635 430.897 275.885 430.879 276.137C436.172 275.568 440.274 273.501 441.894 271.496Z" fill="url(#paint12_linear_6843_67331)"/>
    <path d="M58.1637 326.866C59.6358 314.809 55.8438 308.31 46.793 307.382C59.0469 306.133 67.1587 314.108 67.2907 326.866C64.7526 326.958 61.7119 326.958 58.1637 326.866Z" fill="url(#paint13_linear_6843_67331)"/>
    <path d="M64.1136 326.938C66.5045 314.762 63.5654 305.777 55.2861 299.984C65.8548 303.551 73.4488 308.909 75.9158 326.938C71.9868 327.194 68.0426 327.194 64.1136 326.938Z" fill="url(#paint14_linear_6843_67331)"/>
    <path d="M77.7926 327.127C76.7317 315.564 80.615 308.94 89.4324 307.252C81.2546 307.035 72.1276 306.449 65.5996 327.127C71.1327 326.937 75.1987 326.937 77.7926 327.127Z" fill="url(#paint15_linear_6843_67331)"/>
    <path d="M80.6176 325.751C79.7507 322.299 77.2224 319.891 73.0275 318.522C68.2391 317.166 65.6128 315.571 68.6106 314.41C71.139 314.234 76.5362 312.507 80.6176 322.819C80.8962 323.781 80.8962 324.789 80.6176 325.751Z" fill="url(#paint16_linear_6843_67331)"/>
    <path d="M80.8289 326.297C78.3057 318.055 75.442 312.032 72.2326 308.223C69.8797 305.634 70.0448 301.924 72.2326 301.084C74.472 300.885 78.5999 300.546 81.6958 314.752C81.897 315.728 82.9909 321.449 81.6958 325.145C81.5461 325.597 81.2469 325.999 80.8289 326.297Z" fill="url(#paint17_linear_6843_67331)"/>
    <path d="M81.4133 324.434C82.5536 320.747 82.404 315.925 80.9747 309.974C78.787 304.218 75.0564 297.137 81.8622 296.975C84.6227 297.304 87.956 299.839 86.697 312.469C85.9282 317.566 84.5918 320.602 83.1935 324.411C82.6362 324.66 81.9809 324.669 81.4133 324.434Z" fill="url(#paint18_linear_6843_67331)"/>
    <path d="M82.726 325.867C82.2668 315.439 84.4442 307.951 89.2635 303.41C90.5638 301.896 95.5121 300.473 95.4966 305.218C94.9806 307.26 93.8713 311.629 87.4989 318.29C85.3988 320.694 84.0211 324.204 84.0056 325.031C84.0108 325.592 83.5877 325.867 82.726 325.867Z" fill="url(#paint19_linear_6843_67331)"/>
    <path d="M57.9609 327.241C62.7286 326.464 65.3601 325.804 65.8503 325.258C66.5882 324.444 73.0741 320.947 77.1246 323.902C78.0069 322.908 80.8294 322.14 82.4496 323.902C83.1874 321.119 87.8003 319.334 89.8075 319.623C92.0675 319.469 98.7392 319.533 99.2397 327.25C97.4183 327.282 83.6621 327.277 57.9609 327.241Z" fill="url(#paint20_linear_6843_67331)"/>
    <g filter="url(#filter0_i_6843_67331)">
      <path d="M377.77 211.359V280.007C377.77 283.798 374.334 286.872 370.085 286.872H261.509C257.277 286.872 253.819 283.803 253.819 280.007V211.359C253.819 210.856 254.28 210.449 254.838 210.449H376.751C377.32 210.449 377.77 210.861 377.77 211.359Z" fill="white"/>
    </g>
    <path d="M254.838 210.949H376.751C377.095 210.949 377.27 211.185 377.27 211.359V280.007C377.27 283.47 374.112 286.372 370.085 286.372H261.51C257.498 286.372 254.319 283.474 254.319 280.007V211.359C254.319 211.207 254.458 211.008 254.719 210.96L254.838 210.949Z" stroke="#7BA0FB"/>
    <path d="M261.495 197.684H369.876C373.58 197.684 376.561 200.641 376.562 204.246V205.236H376.567V211.036C376.567 211.037 376.566 211.038 376.564 211.039C376.561 211.042 376.558 211.044 376.554 211.046C376.55 211.047 376.547 211.048 376.541 211.048H254.836C254.829 211.048 254.825 211.047 254.822 211.046C254.819 211.044 254.815 211.042 254.812 211.039C254.811 211.037 254.81 211.036 254.81 211.035V204.246C254.81 200.641 257.802 197.684 261.495 197.684Z" fill="#7BA0FB" stroke="#7BA0FB" stroke-width="1.98095"/>
    <path d="M264.024 204.363C264.024 205.401 263.169 206.242 262.119 206.242C261.07 206.242 260.21 205.401 260.21 204.363C260.21 203.325 261.065 202.484 262.119 202.484C263.174 202.484 264.024 203.325 264.024 204.363Z" fill="white"/>
    <path d="M270.842 204.363C270.842 205.401 269.987 206.242 268.938 206.242C267.888 206.242 267.028 205.401 267.028 204.363C267.028 203.325 267.883 202.484 268.938 202.484C269.993 202.484 270.842 203.325 270.842 204.363Z" fill="white"/>
    <path d="M277.66 204.363C277.66 205.401 276.806 206.242 275.756 206.242C274.707 206.242 273.847 205.401 273.847 204.363C273.847 203.325 274.701 202.484 275.756 202.484C276.811 202.484 277.66 203.325 277.66 204.363Z" fill="white"/>
    <path d="M348.576 234.669H282.456C280.556 234.669 279.655 232.325 281.073 231.063L314.142 201.646C314.926 200.946 316.117 200.946 316.907 201.646L349.959 231.063C351.376 232.325 350.482 234.669 348.576 234.669ZM287.895 230.537H343.143L315.524 205.958L287.889 230.537H287.895Z" fill="#B4CAFF"/>
    <path d="M357.576 229.895H273.634C269.803 229.895 266.696 232.988 266.696 236.805V271.575C266.696 275.391 269.803 278.485 273.634 278.485H357.576C361.407 278.485 364.514 275.391 364.514 271.575V236.805C364.514 232.988 361.407 229.895 357.576 229.895Z" fill="url(#paint21_linear_6843_67331)"/>
    <path d="M330.249 246.111L328.612 247.755C326.868 249.506 324.029 249.506 322.285 247.755C320.541 246.004 320.541 243.153 322.285 241.403L323.922 239.759C324.824 238.852 324.221 237.784 322.594 238.038C320.878 238.305 319.292 239.113 318.068 240.344C317.103 241.316 316.395 242.512 316.007 243.825C315.62 245.138 315.565 246.527 315.848 247.867L302.122 261.65C301.284 262.494 300.814 263.635 300.814 264.825C300.814 266.014 301.284 267.155 302.122 267.999C302.537 268.416 303.03 268.746 303.572 268.971C304.115 269.197 304.697 269.313 305.285 269.313C305.872 269.313 306.454 269.197 306.997 268.971C307.539 268.746 308.032 268.416 308.447 267.999L322.175 254.216C323.265 254.448 324.391 254.454 325.484 254.235C326.576 254.015 327.612 253.575 328.529 252.941C329.445 252.307 330.222 251.493 330.813 250.548C331.403 249.603 331.795 248.548 331.963 247.446C332.217 245.812 331.154 245.204 330.249 246.111ZM306.339 265.881C305.757 266.466 304.813 266.466 304.23 265.881C303.647 265.295 303.647 264.349 304.23 263.764C304.513 263.498 304.889 263.352 305.278 263.358C305.667 263.365 306.038 263.522 306.312 263.798C306.587 264.073 306.743 264.445 306.748 264.834C306.753 265.223 306.607 265.598 306.339 265.881ZM304.849 246.385L310.017 251.576L312.127 249.46L306.959 244.269L305.8 242.047L302.111 239.4L300.001 241.517L302.636 245.222L304.849 246.385ZM322.145 257.396C322.076 257.326 321.994 257.271 321.904 257.234C321.814 257.196 321.717 257.177 321.619 257.177C321.521 257.177 321.424 257.196 321.333 257.234C321.243 257.271 321.161 257.326 321.092 257.396L317.928 260.573C317.789 260.714 317.711 260.904 317.711 261.102C317.711 261.3 317.789 261.491 317.928 261.631L325.391 269.124C326.557 270.292 328.447 270.292 329.611 269.124C330.777 267.956 330.777 266.059 329.611 264.889L322.145 257.396Z" fill="url(#paint22_linear_6843_67331)"/>
    <path d="M315.606 209.737C310.243 209.737 305.879 205.391 305.879 200.049C305.879 195.42 309.22 191.415 313.532 190.425V171.582C313.532 170.442 314.461 169.516 315.606 169.516C316.751 169.516 317.68 170.442 317.68 171.582V192.26C317.68 193.4 316.751 194.326 315.606 194.326C312.579 194.326 310.028 196.947 310.028 200.055C310.028 203.163 312.532 205.611 315.606 205.611C318.68 205.611 321.184 203.117 321.184 200.055C321.184 198.915 322.114 197.989 323.259 197.989C324.403 197.989 325.333 198.915 325.333 200.055C325.333 205.397 320.969 209.743 315.606 209.743V209.737Z" fill="#B4CAFF"/>
    <path d="M328.872 158.889V169.832C328.872 171.783 327.285 173.38 325.333 173.38H305.884C303.932 173.38 302.346 171.783 302.346 169.832V158.889H328.872Z" fill="#81A5FF"/>
    <path d="M162.529 198.567C161.385 198.567 160.455 197.641 160.455 196.501V157.24C160.455 156.1 161.385 155.174 162.529 155.174C163.674 155.174 164.604 156.1 164.604 157.24V196.501C164.604 197.641 163.674 198.567 162.529 198.567Z" fill="#7BA0FB"/>
    <path d="M254.412 160.84V186.611C254.412 190.72 251.071 194.042 246.951 194.042H221.076V160.84H254.412Z" fill="#E2EAFF"/>
    <path d="M204.029 123.604C202.885 123.604 201.955 122.678 201.955 121.538V91.3454C201.955 90.2053 202.885 89.2793 204.029 89.2793C205.174 89.2793 206.104 90.2053 206.104 91.3454V121.538C206.104 122.678 205.174 123.604 204.029 123.604Z" fill="#7BA0FB"/>
    <path d="M332.666 134.328L204.499 87.6882L154.992 133.518C154.155 134.293 152.842 134.247 152.064 133.414C151.285 132.58 151.331 131.272 152.168 130.491L202.605 83.7991C203.174 83.2724 204 83.1046 204.726 83.3708L334.084 130.445C335.159 130.838 335.716 132.025 335.321 133.095C334.926 134.172 333.729 134.716 332.66 134.328H332.666Z" fill="#7BA0FB"/>
    <path d="M215.72 87.6241C215.72 94.1001 210.496 99.3029 203.994 99.3029C197.492 99.3029 192.332 94.1001 192.332 87.6241C192.332 81.1481 197.562 75.9453 203.994 75.9453C210.427 75.9453 215.72 81.1481 215.72 87.6241Z" fill="#7BA0FB"/>
    <path d="M209.247 87.6245C209.247 90.5124 206.916 92.8389 204.011 92.8389C201.106 92.8389 198.805 90.5182 198.805 87.6245C198.805 84.7309 201.135 82.4102 204.011 82.4102C206.887 82.4102 209.247 84.7367 209.247 87.6245Z" fill="white"/>
    <path d="M348.429 162.657L230.385 162.281C228.258 162.281 226.585 160.58 226.585 158.496L226.66 132.008C226.66 129.947 228.276 128.223 230.461 128.223L333.386 128.599C334.565 128.599 335.704 129.166 336.425 130.109L353.444 152.662C356.53 156.702 353.682 162.651 348.429 162.651V162.657Z" fill="url(#paint23_linear_6843_67331)"/>
    <path d="M181.373 131.133V159.705C181.373 161.788 179.699 163.489 177.573 163.489H153.563C151.471 163.489 149.763 161.788 149.763 159.705V131.133C149.763 129.049 151.471 127.348 153.563 127.348H177.573C179.699 127.348 181.373 129.049 181.373 131.133Z" fill="url(#paint24_linear_6843_67331)"/>
    <path d="M220.689 298.241H220.683L186.447 298.143C185.895 298.143 185.372 297.923 184.982 297.535C184.593 297.147 184.378 296.621 184.378 296.071L184.767 169.23C184.767 168.09 185.697 167.17 186.842 167.17H186.847L221.084 167.268C221.636 167.268 222.159 167.488 222.548 167.876C222.938 168.264 223.153 168.79 223.153 169.34L222.763 296.181C222.763 297.321 221.834 298.241 220.689 298.241ZM188.533 294.016L218.62 294.103L218.998 171.395L188.91 171.308L188.533 294.016Z" fill="#7BA0FB"/>
    <path d="M220.735 212.988C220.131 212.988 219.532 212.728 219.12 212.224L185.232 170.538C184.511 169.653 184.651 168.351 185.54 167.633C186.429 166.916 187.736 167.054 188.457 167.94L222.345 209.626C223.065 210.511 222.926 211.814 222.037 212.531C221.653 212.844 221.194 212.994 220.735 212.994V212.988Z" fill="#99A3FF"/>
    <path d="M186.841 212.988C186.382 212.988 185.923 212.838 185.54 212.525C184.651 211.808 184.511 210.506 185.232 209.62L219.12 167.934C219.84 167.049 221.148 166.91 222.037 167.627C222.926 168.345 223.065 169.647 222.345 170.533L188.457 212.219C188.044 212.722 187.446 212.983 186.841 212.983V212.988Z" fill="#99A3FF"/>
    <path d="M220.735 254.555C220.131 254.555 219.532 254.294 219.12 253.791L185.232 212.105C184.511 211.219 184.651 209.917 185.54 209.2C186.429 208.482 187.736 208.621 188.457 209.506L222.345 251.192C223.065 252.078 222.926 253.38 222.037 254.098C221.653 254.41 221.194 254.561 220.735 254.561V254.555Z" fill="#99A3FF"/>
    <path d="M186.841 254.553C186.382 254.553 185.923 254.402 185.54 254.09C184.651 253.372 184.511 252.07 185.232 251.185L219.12 209.499C219.84 208.613 221.148 208.474 222.037 209.192C222.926 209.909 223.065 211.212 222.345 212.097L188.457 253.783C188.044 254.287 187.446 254.547 186.841 254.547V254.553Z" fill="#99A3FF"/>
    <path d="M220.735 296.117C220.131 296.117 219.532 295.857 219.12 295.353L185.232 253.667C184.511 252.782 184.651 251.48 185.54 250.762C186.429 250.044 187.736 250.183 188.457 251.069L222.345 292.755C223.065 293.64 222.926 294.942 222.037 295.66C221.653 295.973 221.194 296.123 220.735 296.123V296.117Z" fill="#99A3FF"/>
    <path d="M186.841 296.117C186.382 296.117 185.923 295.967 185.54 295.654C184.651 294.937 184.511 293.634 185.232 292.749L219.12 251.063C219.84 250.178 221.148 250.039 222.037 250.756C222.926 251.474 223.065 252.776 222.345 253.661L188.457 295.347C188.044 295.851 187.446 296.111 186.841 296.111V296.117Z" fill="#99A3FF"/>
    <path d="M240.64 317.635L240.675 303.647C240.716 297.478 235.661 292.449 229.466 292.408L177.682 292.258H177.641C171.447 292.258 166.432 297.252 166.397 303.422L166.362 317.635H240.64Z" fill="url(#paint25_linear_6843_67331)"/>
    <path d="M243.815 319.834C243.815 321.044 242.827 322.027 241.612 322.027H164.795C163.581 322.027 162.593 321.044 162.593 319.834C162.593 318.624 163.581 317.641 164.795 317.641H241.612C242.827 317.641 243.815 318.624 243.815 319.834Z" fill="#8491FF"/>
    <path d="M234.263 127.731L234.147 163.3C234.147 165.95 233.118 168.41 231.259 170.262C229.399 172.114 226.93 173.138 224.268 173.138L183.652 173.023C178.178 172.982 173.773 168.555 173.773 163.144L173.89 127.575C173.89 122.164 178.335 117.736 183.768 117.736H183.809L224.425 117.887C227.046 117.887 229.556 118.911 231.416 120.763C233.275 122.656 234.263 125.115 234.263 127.725V127.731Z" fill="url(#paint26_linear_6843_67331)"/>
    <path d="M215.866 145.456C215.866 151.944 210.549 157.239 204 157.239C197.452 157.239 192.17 151.944 192.17 145.456C192.17 138.969 197.452 133.639 204 133.639C210.549 133.639 215.866 138.934 215.866 145.456Z" fill="white"/>
    <path d="M254.412 175.719V186.605C254.412 190.708 251.071 194.036 246.951 194.036H235.951V179.66C235.951 177.484 237.723 175.719 239.908 175.719H254.418H254.412Z" fill="#AEC5FF"/>
    <path d="M170.96 204.909C170.96 209.55 167.189 213.306 162.529 213.306C157.869 213.306 154.098 209.55 154.098 204.909C154.098 200.268 157.869 196.5 162.529 196.5C167.189 196.5 170.96 200.273 170.96 204.909Z" fill="#7BA0FB"/>
    <path fill-rule="evenodd" clip-rule="evenodd" d="M392.133 365.065L392.025 365.756L391.72 366.443L391.185 367.139L390.367 367.862L389.162 368.635L387.579 369.402L385.552 370.143L383.48 370.731L381.111 371.248L378.404 371.683L375.694 371.989L372.781 372.177L369.656 372.249L366.532 372.177L363.619 371.989L360.908 371.683L358.202 371.248L355.833 370.731L353.761 370.143L351.733 369.402L350.151 368.639L348.946 367.862L348.128 367.139L347.593 366.443L347.288 365.756L347.18 365.065L347.288 364.374L347.593 363.687L348.128 362.991L348.946 362.268L350.151 361.495L351.733 360.728L353.761 359.987L355.833 359.399L358.202 358.882L360.908 358.447L363.619 358.141L366.532 357.953L369.656 357.881L372.781 357.953L375.694 358.141L378.404 358.447L381.111 358.882L383.48 359.399L385.552 359.987L387.579 360.728L389.162 361.495L390.367 362.268L391.185 362.991L391.72 363.687L392.025 364.374L392.133 365.065Z" fill="#C5D2F2"/>
    <path d="M362.942 356.199C364.117 356.944 364.863 357.03 365.207 357.776C365.55 358.492 365.121 360.412 364.261 360.957C363.172 361.645 361.223 362.734 360.678 363.049C360.134 363.365 356.35 365.428 355.118 364.798C353.885 364.167 354.659 362.103 356.78 360.441C358.901 358.779 362.168 356.572 362.168 356.572L362.942 356.199Z" fill="#333333"/>
    <path d="M377.274 356.199C376.098 356.944 375.353 357.03 375.009 357.776C374.665 358.492 375.095 360.412 375.955 360.957C377.044 361.645 378.993 362.734 379.538 363.049C380.082 363.365 383.866 365.428 385.098 364.798C386.331 364.167 385.557 362.103 383.436 360.441C381.315 358.779 378.047 356.572 378.047 356.572L377.274 356.199Z" fill="#333333"/>
    <path d="M360.735 358.634C356.235 330.288 355.777 312.375 359.388 304.894C361.824 305.611 368.932 305.467 380.741 304.436C384.151 316.96 383.607 335.074 379.078 358.777C377.187 359.035 377.846 359.895 374.665 358.978C374.521 357.459 373.919 325.874 370.394 318.308C368.99 316.645 369.018 316.846 368.56 318.308C368.101 319.769 365.006 347.112 365.006 358.634C363.687 359.379 362.283 359.379 360.735 358.634Z" fill="url(#paint27_linear_6843_67331)"/>
    <path d="M400.891 275.918L399.343 277.236C398.884 277.036 398.54 276.634 398.34 276.147C397.967 275.402 398.082 274.313 397.852 274.571C397.537 274.943 397.365 276.52 397.365 279.3L398.368 280.36L402.295 277.208C402.639 274.771 402.639 273.367 402.295 272.966C401.922 272.679 401.464 273.625 400.891 275.918Z" fill="#EFBA9E"/>
    <path d="M336.316 284.46C335.8 284.976 336.001 288.358 336.316 288.817C336.488 289.075 337.892 290.106 340.558 291.855L341.446 290.938C341.446 288.043 341.274 286.409 340.931 286.065C340.615 285.807 340.73 286.896 340.415 287.699C340.214 288.186 339.841 288.559 339.383 288.788C338.81 288.358 338.236 287.928 337.721 287.412C337.405 287.04 336.832 283.944 336.316 284.46Z" fill="#EFBA9E"/>
    <path d="M366.813 262.103C368.188 262.103 369.507 262.676 370.481 263.651C370.797 263.937 371.054 264.281 371.284 264.654L371.312 264.682L371.255 264.51C371.685 264.596 371.914 265.284 372.029 266.173C373.089 265.514 374.293 269.039 371.857 269.297C371.8 269.526 371.714 269.755 371.599 269.985C371.14 270.845 370.625 271.934 369.851 272.65L370.08 275L365.523 275.459L365.322 272.88C364.864 272.593 364.462 272.192 364.118 271.733C363.717 271.189 363.373 270.615 363.087 270.013C360.478 270.329 361.08 266.402 362.313 267.004C362.313 266.947 362.313 266.889 362.313 266.832C362.313 265.772 362.657 264.768 363.259 263.909C364.032 262.733 365.38 262.046 366.813 262.103ZM371.427 265.17V265.198C371.427 265.399 371.484 265.571 371.57 265.743L371.427 265.17ZM371.255 264.654L371.398 265.17V265.112C371.398 264.998 371.37 264.883 371.341 264.797L371.312 264.711L371.255 264.654Z" fill="#EBB0B0"/>
    <path d="M372.229 266.69C373.719 265.056 373.949 259.983 370.825 258.922C370.452 258.55 369.735 258.492 368.761 258.55C368.073 258.578 368.016 258.836 367.643 258.808C367.271 258.779 366.697 257.977 365.322 257.919C364.576 257.862 362.398 258.578 361.94 259.209C361.051 259.983 359.933 261.76 359.79 263.909C359.647 266.059 360.85 267.033 361.911 268.61C362.742 268.008 362.857 266.776 363.401 265.916C364.175 264.884 365.178 264.053 366.353 263.451C368.904 262.906 370.137 262.82 371.484 265.027C371.512 264.97 371.742 265.543 372.229 266.69Z" fill="#131322"/>
    <path d="M365.293 273.626C367.07 274.658 368.732 274.658 370.251 273.626C371.312 273.598 376.901 270.473 386.13 286.896C387.735 285.091 389.942 285.492 397.623 277.352C398.253 278.183 399.543 277.495 399.887 279.129C399.285 281.049 395.072 294.176 387.162 296.584C384.467 296.756 381.544 295.122 377.646 290.651C379.595 293.89 382.977 305.354 381.601 306.099C380.226 306.844 366.067 310.255 358.242 306.844C358.357 304.724 359.876 295.208 361.796 290.651C360.22 293.374 358.787 300.51 348.383 298.217C344.485 297.616 341.504 295.065 339.498 290.594C339.699 289.418 340.444 289.017 341.791 289.447C342.679 290.336 350.389 292.801 352.08 289.447C353.771 286.094 354.345 281.164 358.271 277.352C360.105 275.403 362.599 274.085 365.293 273.626Z" fill="url(#paint28_linear_6843_67331)"/>
  </g>
  <defs>
    <filter id="filter0_i_6843_67331" x="253.819" y="210.449" width="123.95" height="80.4238" filterUnits="userSpaceOnUse" color-interpolation-filters="sRGB">
      <feFlood flood-opacity="0" result="BackgroundImageFix"/>
      <feBlend mode="normal" in="SourceGraphic" in2="BackgroundImageFix" result="shape"/>
      <feColorMatrix in="SourceAlpha" type="matrix" values="0 0 0 0 0 0 0 0 0 0 0 0 0 0 0 0 0 0 127 0" result="hardAlpha"/>
      <feOffset dy="4"/>
      <feGaussianBlur stdDeviation="3.9619"/>
      <feComposite in2="hardAlpha" operator="arithmetic" k2="-1" k3="1"/>
      <feColorMatrix type="matrix" values="0 0 0 0 0.807692 0 0 0 0 0.863281 0 0 0 0 1 0 0 0 1 0"/>
      <feBlend mode="normal" in2="shape" result="effect1_innerShadow_6843_67331"/>
    </filter>
    <linearGradient id="paint0_linear_6843_67331" x1="41.165" y1="343.628" x2="496" y2="343.628" gradientUnits="userSpaceOnUse">
      <stop stop-color="#FAFBFF"/>
      <stop offset="1" stop-color="#DDE6FF"/>
    </linearGradient>
    <linearGradient id="paint1_linear_6843_67331" x1="404.957" y1="-14.796" x2="406.354" y2="37.8923" gradientUnits="userSpaceOnUse">
      <stop stop-color="#98BEFA" stop-opacity="0.57"/>
      <stop offset="1" stop-color="#98BEFA" stop-opacity="0"/>
    </linearGradient>
    <linearGradient id="paint2_linear_6843_67331" x1="94.457" y1="-11.7953" x2="94.3852" y2="57.7969" gradientUnits="userSpaceOnUse">
      <stop stop-color="#98BEFA" stop-opacity="0.79"/>
      <stop offset="1" stop-color="#98BEFA" stop-opacity="0"/>
    </linearGradient>
    <linearGradient id="paint3_linear_6843_67331" x1="6524.61" y1="-9695.88" x2="6543.94" y2="-9696.09" gradientUnits="userSpaceOnUse">
      <stop stop-color="#98D6FA"/>
      <stop offset="1" stop-color="#47B0F1"/>
    </linearGradient>
    <linearGradient id="paint4_linear_6843_67331" x1="4510.74" y1="-6738.22" x2="4524.35" y2="-6738.37" gradientUnits="userSpaceOnUse">
      <stop stop-color="#98D6FA"/>
      <stop offset="1" stop-color="#47B0F1"/>
    </linearGradient>
    <linearGradient id="paint5_linear_6843_67331" x1="4510.74" y1="-6738.22" x2="4524.34" y2="-6738.37" gradientUnits="userSpaceOnUse">
      <stop stop-color="#98D6FA"/>
      <stop offset="1" stop-color="#47B0F1"/>
    </linearGradient>
    <linearGradient id="paint6_linear_6843_67331" x1="3115.74" y1="-4694.99" x2="3125.03" y2="-4695.09" gradientUnits="userSpaceOnUse">
      <stop stop-color="#98D6FA"/>
      <stop offset="1" stop-color="#47B0F1"/>
    </linearGradient>
    <linearGradient id="paint7_linear_6843_67331" x1="500.018" y1="274.317" x2="454.425" y2="273.55" gradientUnits="userSpaceOnUse">
      <stop stop-color="#98D6FA"/>
      <stop offset="1" stop-color="#47B0F1"/>
    </linearGradient>
    <linearGradient id="paint8_linear_6843_67331" x1="466.437" y1="277.056" x2="463.673" y2="274.835" gradientUnits="userSpaceOnUse">
      <stop offset="0.03" stop-color="#AFDEF9"/>
      <stop offset="1" stop-color="#7CC9F9"/>
    </linearGradient>
    <linearGradient id="paint9_linear_6843_67331" x1="475.421" y1="275.479" x2="446.836" y2="262.446" gradientUnits="userSpaceOnUse">
      <stop stop-color="#98D6FA"/>
      <stop offset="1" stop-color="#47B0F1"/>
    </linearGradient>
    <linearGradient id="paint10_linear_6843_67331" x1="466.729" y1="264.027" x2="463.838" y2="263.006" gradientUnits="userSpaceOnUse">
      <stop offset="0.03" stop-color="#AFDEF9"/>
      <stop offset="1" stop-color="#7CC9F9"/>
    </linearGradient>
    <linearGradient id="paint11_linear_6843_67331" x1="436.771" y1="293.294" x2="418.717" y2="268.906" gradientUnits="userSpaceOnUse">
      <stop stop-color="#98D6FA"/>
      <stop offset="1" stop-color="#47B0F1"/>
    </linearGradient>
    <linearGradient id="paint12_linear_6843_67331" x1="436.903" y1="267.967" x2="433.296" y2="268.568" gradientUnits="userSpaceOnUse">
      <stop offset="0.03" stop-color="#AFDEF9"/>
      <stop offset="1" stop-color="#7CC9F9"/>
    </linearGradient>
    <linearGradient id="paint13_linear_6843_67331" x1="4311.91" y1="-18463.7" x2="4302.86" y2="-18478.4" gradientUnits="userSpaceOnUse">
      <stop stop-color="#98D6FA"/>
      <stop offset="1" stop-color="#47B0F1"/>
    </linearGradient>
    <linearGradient id="paint14_linear_6843_67331" x1="4328.62" y1="-25407" x2="4341.04" y2="-25420" gradientUnits="userSpaceOnUse">
      <stop stop-color="#98D6FA"/>
      <stop offset="1" stop-color="#47B0F1"/>
    </linearGradient>
    <linearGradient id="paint15_linear_6843_67331" x1="5010.88" y1="-18698" x2="5031.32" y2="-18703.3" gradientUnits="userSpaceOnUse">
      <stop stop-color="#98D6FA"/>
      <stop offset="1" stop-color="#47B0F1"/>
    </linearGradient>
    <linearGradient id="paint16_linear_6843_67331" x1="2752.07" y1="-10835.6" x2="2755.04" y2="-10825.4" gradientUnits="userSpaceOnUse">
      <stop stop-color="#98D6FA"/>
      <stop offset="1" stop-color="#47B0F1"/>
    </linearGradient>
    <linearGradient id="paint17_linear_6843_67331" x1="2393.41" y1="-23578.1" x2="2393.86" y2="-23555.3" gradientUnits="userSpaceOnUse">
      <stop stop-color="#98D6FA"/>
      <stop offset="1" stop-color="#47B0F1"/>
    </linearGradient>
    <linearGradient id="paint18_linear_6843_67331" x1="1791.62" y1="-25778.1" x2="1791.76" y2="-25753.3" gradientUnits="userSpaceOnUse">
      <stop stop-color="#98D6FA"/>
      <stop offset="1" stop-color="#47B0F1"/>
    </linearGradient>
    <linearGradient id="paint19_linear_6843_67331" x1="2611.27" y1="-22320.2" x2="2611.86" y2="-22298.7" gradientUnits="userSpaceOnUse">
      <stop stop-color="#98D6FA"/>
      <stop offset="1" stop-color="#47B0F1"/>
    </linearGradient>
    <linearGradient id="paint20_linear_6843_67331" x1="8694.2" y1="-7217.28" x2="8740.84" y2="-7217.28" gradientUnits="userSpaceOnUse">
      <stop stop-color="#98D6FA"/>
      <stop offset="1" stop-color="#47B0F1"/>
    </linearGradient>
    <linearGradient id="paint21_linear_6843_67331" x1="266.696" y1="254.19" x2="364.514" y2="254.19" gradientUnits="userSpaceOnUse">
      <stop stop-color="#DAE5FF"/>
      <stop offset="1" stop-color="white"/>
    </linearGradient>
    <linearGradient id="paint22_linear_6843_67331" x1="309.115" y1="238.105" x2="309.115" y2="269.872" gradientUnits="userSpaceOnUse">
      <stop stop-color="#6994FF"/>
      <stop offset="1" stop-color="#A1A5FF"/>
    </linearGradient>
    <linearGradient id="paint23_linear_6843_67331" x1="263.078" y1="128.335" x2="263.078" y2="162.52" gradientUnits="userSpaceOnUse">
      <stop stop-color="#6994FF"/>
      <stop offset="1" stop-color="#A1A5FF"/>
    </linearGradient>
    <linearGradient id="paint24_linear_6843_67331" x1="158.765" y1="127.466" x2="158.765" y2="163.345" gradientUnits="userSpaceOnUse">
      <stop stop-color="#6994FF"/>
      <stop offset="1" stop-color="#A1A5FF"/>
    </linearGradient>
    <linearGradient id="paint25_linear_6843_67331" x1="203.074" y1="322.78" x2="204.331" y2="287.929" gradientUnits="userSpaceOnUse">
      <stop stop-color="#99A4FF"/>
      <stop offset="1" stop-color="#E5EDFF"/>
    </linearGradient>
    <linearGradient id="paint26_linear_6843_67331" x1="191.001" y1="117.917" x2="191.001" y2="172.917" gradientUnits="userSpaceOnUse">
      <stop stop-color="#6994FF"/>
      <stop offset="1" stop-color="#A1A5FF"/>
    </linearGradient>
    <linearGradient id="paint27_linear_6843_67331" x1="14658.1" y1="-48407.5" x2="14667.5" y2="-48439.4" gradientUnits="userSpaceOnUse">
      <stop stop-color="#1D181C"/>
      <stop offset="0.3" stop-color="#2C2422"/>
      <stop offset="0.5" stop-color="#42352C"/>
      <stop offset="0.7" stop-color="#57352C"/>
      <stop offset="1" stop-color="#923629"/>
    </linearGradient>
    <linearGradient id="paint28_linear_6843_67331" x1="340.026" y1="290.865" x2="399.857" y2="290.865" gradientUnits="userSpaceOnUse">
      <stop stop-color="#81D9FF"/>
      <stop offset="1" stop-color="#27A6DD"/>
    </linearGradient>
    <clipPath id="clip0_6843_67331">
      <rect width="520" height="430" fill="white"/>
    </clipPath>
  </defs>
</svg>