<svg width="14" height="14" viewBox="0 0 14 14" fill="none" xmlns="http://www.w3.org/2000/svg">
<path d="M13.7322 12.4391L10.8989 9.60625C11.6349 8.60625 12.0709 7.37031 12.0709 6.03594C12.0709 2.70781 9.36263 0 6.03547 0C2.70674 0 0 2.70781 0 6.03594C0 9.36406 2.7083 12.0719 6.03547 12.0719C7.37009 12.0719 8.60468 11.6359 9.60643 10.9L12.4382 13.7328C12.6164 13.9109 12.8508 14 13.0852 14C13.3274 14 13.5603 13.9031 13.7322 13.7328C14.0901 13.375 14.0885 12.7953 13.7322 12.4391ZM1.48464 6.03594C1.48464 3.52656 3.52564 1.48594 6.03547 1.48594C8.54374 1.48594 10.5863 3.52656 10.5863 6.03594C10.5863 8.54375 8.5453 10.5859 6.03547 10.5859C3.5272 10.5859 1.48464 8.54531 1.48464 6.03594Z" fill="#2E3033"/>
</svg>
