<svg width="14" height="14" viewBox="0 0 14 14" fill="none" xmlns="http://www.w3.org/2000/svg">
<path d="M13.9606 0.471142C13.829 0.269213 13.6315 0 13.3682 0H0.598349C0.400872 0 0.137575 0.269232 0.0717548 0.471142C-0.0598848 0.67307 0.00593494 1.00961 0.137575 1.21153L4.61361 6.25962V11.8461C4.61361 12.0481 4.74527 12.3173 5.00855 12.3846L8.36557 13.9327C8.43141 14 8.56305 14 8.62889 14C8.76053 14 8.89219 14 8.95799 13.9327C9.15547 13.7981 9.28712 13.6635 9.28712 13.3942L9.4846 6.1923L13.829 1.14421C14.0265 1.00961 14.0265 0.740355 13.9606 0.471142ZM8.03648 12.4519L5.9301 11.4423V6.73076H8.23395L8.03648 12.4519ZM8.56305 5.3173C8.49723 5.3173 8.49723 5.3846 8.43141 5.3846H5.60098L2.04648 1.34614H11.9859L8.56305 5.3173Z" fill="#2E3033"/>
</svg>
